<?xml version="1.0" encoding="utf-8"?>
<!-- Generator: Adobe Illustrator 24.0.2, SVG Export Plug-In . SVG Version: 6.00 Build 0)  -->
<svg version="1.1" id="Capa_1" xmlns="http://www.w3.org/2000/svg" xmlns:xlink="http://www.w3.org/1999/xlink" x="0px" y="0px"
	 viewBox="0 0 841.89 595.28" style="enable-background:new 0 0 841.89 595.28;" xml:space="preserve">
<style type="text/css">
	.st0{fill:#5D417C;}
	.st1{fill:#F5B1C4;}
	.st2{fill:#F2F2F2;}
	.st3{fill:#472A6A;}
	.st4{fill:#ED6C81;}
	.st5{fill:#5EC2D6;}
	.st6{fill:#EB95AE;}
	.st7{fill:#7170B2;}
	.st8{fill:#775EA5;}
	.st9{fill:#E35B75;}
	.st10{fill:#E1DDE8;}
	.st11{fill:#3EBBD0;}
</style>
<g>
	<path class="st0" d="M470.24,515.17c-0.65,0.03-1.15,0.58-1.12,1.23c0.4,8.73,0.72,15.54,0.9,19.64c0.03,0.63,0.55,1.12,1.17,1.12
		c0.02,0,0.04,0,0.05,0c0.65-0.03,1.15-0.58,1.12-1.23c-0.19-4.11-0.5-10.91-0.9-19.64C471.44,515.64,470.88,515.14,470.24,515.17z"
		/>
	<path class="st0" d="M620.74,443.71c-0.15,1.75-0.29,3.51-0.44,5.26c-0.39,4.68-0.79,9.51-1.21,14.27
		c-0.06,0.65,0.42,1.22,1.07,1.27c0.03,0,0.07,0,0.1,0c0.6,0,1.12-0.46,1.17-1.07c0.41-4.76,0.82-9.6,1.21-14.27
		c0.15-1.75,0.29-3.51,0.44-5.26c0.05-0.65-0.43-1.22-1.07-1.27C621.36,442.59,620.79,443.07,620.74,443.71z"/>
	<path class="st0" d="M468.42,475.93c-0.65,0.03-1.15,0.58-1.12,1.23l0.91,19.61c0.03,0.63,0.55,1.12,1.17,1.12
		c0.02,0,0.04,0,0.06,0c0.65-0.03,1.15-0.58,1.12-1.23l-0.91-19.61C469.61,476.4,469.07,475.9,468.42,475.93z"/>
	<path class="st0" d="M624.44,404.67l-0.27,2.6c-0.57,5.54-1.16,11.27-1.71,16.91c-0.06,0.65,0.41,1.22,1.06,1.28
		c0.04,0,0.08,0.01,0.11,0.01c0.6,0,1.11-0.45,1.17-1.06c0.54-5.63,1.13-11.35,1.7-16.89l0.27-2.6c0.07-0.65-0.4-1.22-1.05-1.29
		C625.09,403.55,624.51,404.02,624.44,404.67z"/>
	<path class="st0" d="M629.19,308.21c0.08,0.02,0.16,0.02,0.24,0.02c0.55,0,1.04-0.38,1.15-0.94c1.21-5.93,4.46-11.23,7.61-16.36
		l0.55-0.89c0.34-0.55,0.16-1.28-0.39-1.62c-0.55-0.34-1.28-0.16-1.62,0.39l-0.55,0.89c-3.25,5.3-6.61,10.79-7.91,17.12
		C628.15,307.46,628.56,308.08,629.19,308.21z"/>
	<path class="st0" d="M626.42,183.58c-1.07,6.57-3.23,13.11-5.21,18.64c-0.22,0.61,0.1,1.28,0.71,1.5c0.13,0.05,0.26,0.07,0.4,0.07
		c0.48,0,0.94-0.3,1.11-0.78c2.01-5.63,4.21-12.3,5.31-19.06c0.1-0.64-0.33-1.25-0.97-1.35
		C627.13,182.5,626.53,182.94,626.42,183.58z"/>
	<path class="st0" d="M625.99,221.74c-0.19,0.26-0.42,0.59-0.71,1.02c-0.16-0.3-0.32-0.59-0.48-0.88c0.04-0.38,0.08-0.76,0.1-1.13
		c0.04-0.65-0.46-1.2-1.11-1.24c-0.65-0.03-1.2,0.46-1.24,1.11c-0.02,0.43-0.07,0.87-0.13,1.32c-0.04,0.25,0.01,0.51,0.14,0.73
		c0.52,0.93,1.03,1.9,1.53,2.9c0.19,0.37,0.56,0.62,0.97,0.65c0.03,0,0.05,0,0.08,0c0.39,0,0.75-0.19,0.97-0.52
		c0.9-1.33,1.42-2.09,1.79-2.59c1.02-1.41,1.71-3.22,2.45-5.14c0.69-1.8,1.41-3.67,2.48-5.52c0.33-0.56,0.13-1.28-0.43-1.61
		c-0.56-0.32-1.28-0.13-1.61,0.43c-1.16,2.01-1.95,4.05-2.64,5.85C627.44,218.98,626.83,220.57,625.99,221.74z"/>
	<path class="st0" d="M626.36,385.18c-0.06,0.65,0.42,1.22,1.06,1.28c0.04,0,0.07,0.01,0.11,0.01c0.6,0,1.11-0.46,1.17-1.07
		c0.66-7.25,1.16-13.65,1.52-19.57c0.04-0.65-0.45-1.21-1.1-1.25c-0.65-0.04-1.21,0.45-1.25,1.1
		C627.52,371.58,627.02,377.96,626.36,385.18z"/>
	<path class="st0" d="M469.34,561.88c0.19-1.93,0.42-4.07,0.69-6.32c0.08-0.64-0.38-1.23-1.03-1.31c-0.64-0.08-1.23,0.38-1.31,1.03
		c-0.25,2.07-0.51,4.39-0.72,6.6H469.34z"/>
	<path class="st0" d="M663.75,238.23c0.04,0,0.08,0.01,0.12,0.01c0.59,0,1.1-0.45,1.17-1.05c0.03-0.29,0.06-0.58,0.08-0.87
		c1.57-1.87,2.71-4.15,3.3-6.64c0.31-1.29,0.45-2.59,0.45-4.08c0-1.18-0.09-2.54-0.28-4.14c0.35-0.86,0.64-1.76,0.84-2.66
		c0.15-0.63-0.25-1.26-0.88-1.41c-0.63-0.14-1.26,0.25-1.41,0.88c-0.2,0.87-0.48,1.73-0.84,2.55c-0.08,0.19-0.11,0.4-0.09,0.61
		c0.2,1.65,0.3,3.01,0.3,4.17c0,1.31-0.12,2.43-0.39,3.54c-0.53,2.25-1.58,4.3-3.03,5.93c-0.18,0.2-0.28,0.45-0.3,0.72
		c-0.02,0.39-0.05,0.77-0.09,1.16C662.64,237.58,663.11,238.16,663.75,238.23z"/>
	<path class="st0" d="M647.09,273.39c0.43,0,0.84-0.24,1.05-0.65c2.78-5.51,5.55-11.31,8.48-17.72c0.27-0.59,0.01-1.29-0.58-1.56
		c-0.59-0.27-1.29-0.01-1.56,0.58c-2.92,6.38-5.68,12.15-8.44,17.64c-0.29,0.58-0.06,1.29,0.52,1.58
		C646.73,273.35,646.91,273.39,647.09,273.39z"/>
	<path class="st0" d="M645.55,200.61c0.58,0.28,1.29,0.04,1.57-0.54l1.69-3.46l10.39,5.07c0.51,0.25,1.01,0.53,1.48,0.83
		c0.2,0.13,0.41,0.18,0.63,0.18c0.39,0,0.77-0.19,0.99-0.54c0.35-0.55,0.19-1.27-0.36-1.62c-0.55-0.35-1.13-0.67-1.72-0.96
		l-11.45-5.58c-0.58-0.28-1.29-0.04-1.57,0.54l-2.2,4.52C644.72,199.62,644.97,200.32,645.55,200.61z"/>
	<path class="st0" d="M462.95,358.29c-0.65,0.03-1.15,0.58-1.12,1.23c0.29,6.16,0.59,12.74,0.91,19.61
		c0.03,0.63,0.55,1.12,1.17,1.12c0.02,0,0.04,0,0.06,0c0.65-0.03,1.15-0.58,1.12-1.23c-0.32-6.87-0.62-13.45-0.91-19.61
		C464.15,358.76,463.6,358.26,462.95,358.29z"/>
	<path class="st0" d="M629.79,347.34c0.01,0,0.01,0,0.02,0c0.64,0,1.17-0.52,1.18-1.16c0.02-1.38,0.03-2.78,0.03-4.14
		c0-0.83,0-1.66-0.01-2.49c-0.03-3.6-0.32-7.38-0.61-11.03c-0.05-0.67-0.1-1.35-0.16-2.02c-0.05-0.65-0.62-1.13-1.26-1.08
		c-0.65,0.05-1.13,0.61-1.08,1.26c0.05,0.68,0.1,1.35,0.16,2.02c0.28,3.61,0.57,7.35,0.6,10.87c0.01,0.82,0.01,1.65,0.01,2.47
		c0,1.35-0.01,2.74-0.03,4.11C628.62,346.8,629.14,347.34,629.79,347.34z"/>
	<path class="st0" d="M464.04,319.21c-0.64-0.08-1.23,0.38-1.31,1.03c-0.57,4.78-1.18,9.19-1.71,13.07l-0.28,2.05
		c-0.01,0.07-0.01,0.14-0.01,0.21l0.2,4.33c0.03,0.63,0.55,1.12,1.17,1.12c0.02,0,0.04,0,0.05,0c0.65-0.03,1.15-0.58,1.12-1.23
		l-0.19-4.22l0.27-1.94c0.54-3.9,1.14-8.31,1.72-13.11C465.14,319.87,464.68,319.29,464.04,319.21z"/>
	<path class="st0" d="M432.01,248.63c0.04,0,0.07,0.01,0.11,0.01c0.6,0,1.11-0.46,1.17-1.07c0.68-7.31,1.57-13.61,2.73-19.28
		c0.13-0.64-0.28-1.26-0.92-1.39c-0.64-0.13-1.26,0.28-1.39,0.92c-1.18,5.75-2.09,12.14-2.77,19.54
		C430.89,248,431.37,248.57,432.01,248.63z"/>
	<path class="st0" d="M464.77,397.51c-0.65,0.03-1.15,0.58-1.12,1.23l0.91,19.61c0.03,0.63,0.55,1.12,1.17,1.12
		c0.02,0,0.04,0,0.06,0c0.65-0.03,1.15-0.58,1.12-1.23L466,398.63C465.97,397.98,465.42,397.48,464.77,397.51z"/>
	<path class="st0" d="M474.23,180.11c0.71,0.55,1.13,1.03,1.36,1.36l-0.09,0.56c-2.19,0.5-4.18,1.04-6.04,1.63
		c-0.62,0.2-0.96,0.86-0.77,1.48c0.16,0.5,0.62,0.82,1.12,0.82c0.12,0,0.24-0.02,0.36-0.06c2.01-0.64,4.18-1.21,6.62-1.75
		c0.47-0.1,0.84-0.49,0.91-0.97l0.27-1.78c0.04-0.25-0.01-0.51-0.12-0.73c-0.3-0.57-0.93-1.46-2.19-2.42
		c-2.05-1.58-3.92-3.39-5.55-5.4c-0.41-0.5-1.15-0.58-1.65-0.17c-0.5,0.41-0.58,1.15-0.17,1.65
		C470.03,176.48,472.03,178.42,474.23,180.11z"/>
	<path class="st0" d="M461.73,156.93c0.04,0,0.08,0,0.12-0.01c0.65-0.07,1.12-0.65,1.05-1.29c-0.11-1.08-0.17-2.17-0.17-3.25
		c0-5.27,1.31-10.3,3.89-14.96c0.31-0.57,0.11-1.28-0.46-1.6c-0.57-0.31-1.28-0.11-1.6,0.46c-2.78,5.01-4.18,10.43-4.18,16.1
		c0,1.16,0.06,2.33,0.18,3.49C460.63,156.48,461.14,156.93,461.73,156.93z"/>
	<path class="st0" d="M465.47,437.95l0.91,19.6c0.03,0.63,0.55,1.12,1.17,1.12c0.02,0,0.04,0,0.06,0c0.65-0.03,1.15-0.58,1.12-1.23
		l-0.91-19.6c-0.03-0.65-0.58-1.15-1.23-1.12C465.94,436.75,465.44,437.3,465.47,437.95z"/>
	<path class="st0" d="M436.59,279.24l0.17,1.51c0.07,0.6,0.58,1.04,1.17,1.04c0.05,0,0.09,0,0.14-0.01c0.65-0.07,1.11-0.66,1.03-1.3
		l-0.17-1.51c-0.13-1.15-0.26-2.29-0.4-3.41c-0.06-0.53-0.48-0.95-1.01-1.02l-5.78-0.78c0.05-1.15,0.11-2.35,0.16-3.59
		c0.04-1,0.09-2.03,0.14-3.09c0.03-0.65-0.47-1.2-1.12-1.23c-0.65-0.03-1.2,0.47-1.23,1.12c-0.05,1.05-0.09,2.08-0.14,3.09
		c-0.07,1.62-0.14,3.18-0.21,4.66c-0.03,0.61,0.41,1.14,1.02,1.22l5.94,0.8C436.4,277.57,436.49,278.4,436.59,279.24z"/>
	<path class="st0" d="M440.25,210.46c0.16,0.08,0.33,0.11,0.5,0.11c0.44,0,0.86-0.25,1.06-0.67c1.72-3.63,3.7-6.72,5.9-9.19
		c1.89-2.12,3.84-4.04,5.8-5.71c0.49-0.42,0.55-1.16,0.13-1.66c-0.42-0.5-1.16-0.56-1.66-0.13c-2.04,1.73-4.07,3.73-6.03,5.93
		c-2.34,2.63-4.45,5.91-6.27,9.74C439.41,209.48,439.66,210.18,440.25,210.46z"/>
	<path class="st0" d="M442.84,299.39c-0.23-0.61-0.91-0.91-1.52-0.68c-0.61,0.23-0.91,0.91-0.68,1.52
		c3.07,8.05,8.08,11.96,15.33,11.96l0.11,0c0.65,0,1.17-0.53,1.17-1.18c0-0.65-0.53-1.17-1.18-1.17h-0.01l-0.09,0
		C449.73,309.83,445.55,306.51,442.84,299.39z"/>
	<path class="st0" d="M527.69,151.35c0.46,4.21,1.01,9.12,1.65,14.87c0.07,0.6,0.58,1.05,1.17,1.05c0.04,0,0.09,0,0.13-0.01
		c0.65-0.07,1.11-0.65,1.04-1.3c-0.64-5.75-1.18-10.66-1.65-14.87l-0.51-4.6c-0.07-0.65-0.66-1.11-1.3-1.04
		c-0.65,0.07-1.11,0.65-1.04,1.3L527.69,151.35z"/>
	<path class="st0" d="M616.07,503.49c0.05,0.01,0.1,0.01,0.15,0.01c0.58,0,1.09-0.43,1.16-1.03c0.78-6.06,1.51-12.44,2.23-19.5
		c0.07-0.65-0.4-1.22-1.05-1.29c-0.64-0.06-1.22,0.41-1.29,1.05c-0.72,7.04-1.44,13.4-2.22,19.44
		C614.97,502.82,615.42,503.41,616.07,503.49z"/>
	<path class="st0" d="M611.56,538.97c0.05,0.01,0.1,0.01,0.15,0.01c0.58,0,1.09-0.43,1.16-1.03c0.78-6.06,1.51-12.44,2.23-19.5
		c0.07-0.65-0.4-1.22-1.05-1.29c-0.64-0.06-1.22,0.4-1.29,1.05c-0.72,7.04-1.44,13.4-2.22,19.44
		C610.46,538.29,610.91,538.88,611.56,538.97z"/>
	<path class="st0" d="M579.99,141.94c0.13,0,0.26-0.02,0.4-0.07c3.85-1.38,7.88-2.07,11.99-2.07c2.25,0,4.5,0.21,6.7,0.63
		c0.64,0.12,1.25-0.3,1.37-0.94c0.12-0.64-0.3-1.25-0.93-1.37c-2.35-0.45-4.75-0.67-7.14-0.67c-4.38,0-8.68,0.74-12.79,2.21
		c-0.61,0.22-0.93,0.89-0.71,1.5C579.06,141.64,579.51,141.94,579.99,141.94z"/>
	<path class="st0" d="M478.72,123.77c0.21,0,0.41-0.05,0.6-0.17c1.69-1.01,3.47-1.81,5.29-2.39c0.15-0.05,0.3-0.13,0.42-0.24
		c3.24-2.84,7.09-5.22,11.11-6.89c0.6-0.25,0.88-0.94,0.64-1.54c-0.25-0.6-0.94-0.88-1.54-0.64c-4.18,1.73-8.17,4.2-11.57,7.13
		c-1.91,0.63-3.78,1.48-5.55,2.54c-0.56,0.33-0.74,1.06-0.41,1.61C477.93,123.56,478.32,123.77,478.72,123.77z"/>
	<path class="st0" d="M514.2,113.22c4.07,1.84,7.25,5.05,8.95,9.04c0.69,1.61,1.14,2.91,1.59,5.19c0.11,0.56,0.6,0.95,1.15,0.95
		c0.08,0,0.15-0.01,0.23-0.02c0.64-0.13,1.05-0.74,0.93-1.38c-0.48-2.46-1-3.94-1.73-5.65c-1.93-4.53-5.53-8.18-10.14-10.26
		c-0.59-0.27-1.29,0-1.56,0.59C513.35,112.25,513.61,112.95,514.2,113.22z"/>
	<path class="st0" d="M547.97,164c0.13,0,0.27-0.02,0.4-0.07c3.49-1.26,3.96-1.57,4.12-1.67c3.69-2.44,6.99-5.43,10.18-8.33
		c0.6-0.55,1.21-1.1,1.82-1.64c0.48-0.43,0.52-1.18,0.09-1.66c-0.43-0.48-1.18-0.52-1.66-0.09c-0.61,0.55-1.22,1.1-1.82,1.65
		c-3.13,2.84-6.36,5.77-9.89,8.1c-0.18,0.11-1.15,0.53-3.63,1.43c-0.61,0.22-0.93,0.89-0.71,1.51
		C547.04,163.7,547.49,164,547.97,164z"/>
	<path class="st0" d="M622.83,157.79c1.18,2.23,2.12,4.55,2.81,6.9c0.15,0.51,0.62,0.85,1.13,0.85c0.11,0,0.22-0.02,0.33-0.05
		c0.62-0.18,0.98-0.83,0.8-1.46c-0.73-2.5-1.73-4.97-2.98-7.34c-1.93-3.66-4.45-6.92-7.48-9.69c-0.48-0.44-1.22-0.4-1.66,0.08
		c-0.44,0.48-0.4,1.22,0.08,1.66C618.67,151.32,621.02,154.36,622.83,157.79z"/>
</g>
<g>
	<g>
		<path class="st1" d="M811.93,314.05c0,0-0.28,1.94-2.3,6.61c-2.02,4.67-3.1-3.83-3.1-3.83L811.93,314.05z"/>
		<g>
			<g>
				<path class="st1" d="M728.07,250.65l21.84,2.29l6.89,35.16c1.17,1.89,43.23,31.22,43.23,31.22s-1.34,6.29-4.71,8.27
					c-5.31-6.46-56.75-26.91-57.59-29.12C736.85,296.18,728.07,250.65,728.07,250.65z"/>
				<g>
					<polygon class="st2" points="749.44,363.14 813.94,308.86 776,261.17 716.34,322.09 					"/>
					<polygon class="st2" points="743.15,363.43 811.43,306.78 772.64,260.87 704.36,317.52 					"/>
					<polygon class="st0" points="751.22,364.7 815.9,310.75 780.71,262.14 712.43,318.79 					"/>
				</g>
			</g>
			<path class="st1" d="M642.33,527.97c0,0-4.62,4.53-4.73,6.19c-0.11,1.66-0.41,19.47,1.48,21.14c1.89,1.66,7.43,2.84,5.65,4.71
				c-1.35,1.41-11.71,1.11-18.57,0.73c-2-0.11-4.52-16.18-5.31-18.54c-1.15-3.43-5.31-10.89-4.26-13.28
				c0.51-1.16,4.3-3.82,7.75-6.05c3.62-2.35,7.09-7.58,7.09-7.58L642.33,527.97z"/>
			<path class="st1" d="M704.17,539.09c0,0-3.58,10.17-4.08,11.6c-0.04,0.11-1.58,6.62-1.58,8.31c0,6.35,28.51-5.39,22.12-8.2
				c-0.58-0.25-2.39-2.29-2.58-4.45c-0.29-3.33,2.4-7.51,2.4-7.51L704.17,539.09z"/>
			<g>
				<path class="st3" d="M743.51,316.26l10.32,26.49c0,0,6.73,63.22,2.81,101.07c-1.64,15.83-37.15,100.56-37.15,100.56l-17.64-2.5
					l23.62-100.34l-8.69-38.37l-12.3-75.84L743.51,316.26z"/>
				<path class="st0" d="M694.88,317.64l-8.86,29.5l-13.47,89.04l-45.55,83.29c0,0,6.85,10.42,14.2,12.06l64.65-84.18l35.04-105.38
					l-1.23-23.41L694.88,317.64z"/>
			</g>
			<path class="st4" d="M753.37,265.45l-25.14,2.58c0,0-1.15-20.7-1.15-30.57c0-11.98,2.21-26.97,3.62-26.53
				c3.91,1.21,8.32,2.63,11.57,7.1C753.48,233.5,753.37,265.45,753.37,265.45z"/>
			<path class="st1" d="M660.41,364.87c-3.84-6.23-4.7-5.35-5.17-6.16c-0.56-0.96,0.06-15.79,0.06-15.79s1.54-43.72,1.7-46.08
				l19.64-40.37l-16.98-15.85c0,0-20.21,44.51-20.87,47.03c-0.66,2.52,4.02,61.94,4.26,67.19c0,0-1.97,6.34-3.08,10.36
				c-1.11,4.02-0.4,8.36-0.54,9.55c-0.02,0.17-0.26,4.15,0.72,9.13c0.85,4.3,1.97-0.15,1.97-0.15s-0.17-8.23,0.47-8.13
				c0.49,0.08,0.32,4.58,1.21,9.34c0.23,1.23,0.46,2.43,0.68,3.54c0.58,2.91,2.49,3.4,2.36,0.26c-0.05-1.11-0.16-2.95-0.43-4.25
				c-0.29-1.4-0.11-2.78-0.17-4c-0.13-2.42-0.25-4.17-0.15-4.13c0.13,0.07,0.44-0.43,0.72,0.86c0.34,1.55,0.34,5.01,1.01,7.26
				c0.38,1.27,1.02,3.99,1.02,3.99s1.71,3.92,1.97,3.9c1.39-0.12,0.96-3.13,0.23-4.79c0.06-1.3-0.69-4.13-0.69-4.13
				s-0.26-6.06,0.58-6.1c0.36-0.02,0.95,3.69,2.09,7.23c1.06,3.29,2.65,6.45,3.32,6.34c1.13-0.18,0.34-3.96,0.34-3.96
				s-0.7-2.62-0.86-3.5c-0.19-1.04-0.54-4.2-0.54-4.2s-0.71-11.04,0.08-11.01c0.8,0.03,2.83,0.95,3.11,1.62
				c0.28,0.67,0.15,2.16,0.43,2.84c0.28,0.67,1.2,1.31,2.03,1.04c0.83-0.27,0.71-4.02,0.71-4.02S661.52,366.67,660.41,364.87z"/>
			<path class="st5" d="M646.8,558.06c-1.67-1.95-7.23-3.92-8.34-4.31c-4.17-1.45-13.9-31.04-13.9-31.04s-8.46,2.49-9.11,3.78
				c-0.65,1.3,5.22,15.55,5.22,15.55c1.11,5.83,3.92,19.11,3.92,19.11h19.78C645.92,561.15,648.62,560.18,646.8,558.06z"/>
			<path class="st5" d="M696.88,561.1l3.2-10.4c0,0,6.93,2.96,10.35,2.47c3.43-0.49,10.12-2.43,10.12-2.43
				c13.69,4.52,24.9,6.72,22.86,10.36l0,0H696.88z"/>
			<path class="st4" d="M698.08,209.47c0,0-13.31,1.83-16.81,4.38c-3.94,2.87-16.16,16.26-16.16,16.26s25.42,72.16,24.44,85
				s-3.77,31.86-3.77,31.86s49.37,3.09,68.07-4.23c0,0-5.9-29.09-5.9-36.73c0-7.64-3.32-83.99-5.68-87.99
				c-2.36-4-7.12-6.27-16.14-8.22C717.11,207.85,698.08,209.47,698.08,209.47z"/>
			<path class="st1" d="M701.72,188.87l-3.28,20.6c0,0,12.02,26.21,19.2,24.01c6.02-1.85,2.32-24.36,2.32-24.36
				s-3.28-12.09-2.3-18.14C718.63,184.92,701.72,188.87,701.72,188.87z"/>
			<path class="st6" d="M717.65,190.97c0.98-6.05-15.93-2.1-15.93-2.1l-0.27,1.77c0.49,1.19,1.1,2.2,1.83,2.98
				c3.78,4,9.69,6.41,14.79,6.59C717.56,196.95,717.25,193.45,717.65,190.97z"/>
			<g>
				<path class="st1" d="M698.94,158.64c-0.48-0.17-3.83,24.34,2.53,31.08c6.37,6.74,18.77,8.95,23.22,3.64
					c4.92-5.87,4.67-32.22-5.22-39.15C709.57,147.27,698.94,158.64,698.94,158.64z"/>
				<path class="st3" d="M701.27,149.2c-3.47,0.4-8.2,2.29-13.07,10.24c-6,9.77-1.57,20.6,5.41,25.91
					c6.98,5.31,6.85,11.39,6.85,11.39l1.13-3.12c0.81-2.4,1.15-4.95,0.87-7.47c-0.16-1.51-0.49-3.15-1.13-4.49
					c-1.68-3.55,3.61-5.9,5.09-8.85c1.14-2.27,1.2-7.47,2.99-11.23l2.15-2.87c0,0,4.95-3.79,9.8-2.72
					C726.21,157.05,720.26,133.78,701.27,149.2z"/>
				<path class="st7" d="M708.27,174.69l-2.87,18.16c0,0,6.01,4.83,13.2,4.83c7.19,0,8.36-6.01,8.36-6.01s2.74-9.67,0.91-16.85
					C727.86,174.83,713.36,176.52,708.27,174.69z"/>
				<polygon class="st7" points="709.18,176.59 708.27,174.69 703.76,172.28 703.5,173.32 709.31,178.09 				"/>
				<polygon class="st7" points="706.5,191.48 701.73,181.95 700.56,180.38 705.39,192.86 				"/>
				<path class="st1" d="M706.11,177.16c0.05,2.99-1.33,5.44-3.08,5.47c-1.75,0.03-3.22-2.37-3.27-5.36
					c-0.05-2.99,1.33-5.44,3.08-5.47C704.59,171.77,706.05,174.17,706.11,177.16z"/>
			</g>
			<path class="st4" d="M648.6,255.98l22.25,17.2c0,0,9.83-9.34,14.76-19.67c5-10.46,1.5-41.41-3.81-39.99
				C669.91,216.7,648.6,255.98,648.6,255.98z"/>
		</g>
	</g>
	<path class="st1" d="M792.87,318.54c0.51-0.19,1.21,0.14,1.98,0.75c-2.04-2.66-3.7-5.3-2.64-5.74c0.46-0.19,4.01,2.72,4.71,3.12
		c-0.99-1.24-4.08-3.82-2.83-4.78c0.75-0.58,4.41,2.32,6.46,4.04c-1.19-1.15-2.43-3-1.84-3.26c1.27-0.54,8.7,6.58,10.77,5.9
		c2.04-0.67,0.64,3.89-1.82,6.49c-1.04,1.59-3.89,2.08-4.98,2.78c-2.73,1.75-4.95,0.37-5.08,0.34
		C797.59,328.18,790.86,319.31,792.87,318.54z"/>
</g>
<g>
	<path class="st5" d="M688.52,84.05c0,1.9-1.54,3.44-3.44,3.44c-1.9,0-3.44-1.54-3.44-3.44c0-1.9,1.54-3.44,3.44-3.44
		C686.97,80.6,688.52,82.14,688.52,84.05z"/>
	<path class="st5" d="M690.78,130.05c0,1.9-1.54,3.44-3.44,3.44c-1.9,0-3.44-1.54-3.44-3.44c0-1.9,1.54-3.44,3.44-3.44
		C689.23,126.61,690.78,128.15,690.78,130.05z"/>
	<path class="st5" d="M722.23,120.91c0,1.9-1.54,3.44-3.44,3.44c-1.9,0-3.44-1.54-3.44-3.44c0-1.9,1.54-3.44,3.44-3.44
		C720.69,117.46,722.23,119.01,722.23,120.91z"/>
	<path class="st5" d="M711.13,84.74c0,2.28-1.85,4.13-4.13,4.13s-4.13-1.85-4.13-4.13s1.85-4.13,4.13-4.13
		S711.13,82.46,711.13,84.74z"/>
	<path class="st5" d="M698.27,86.16c-0.17,1.29-1.36,2.2-2.65,2.02c-1.29-0.17-2.2-1.36-2.02-2.65c0.17-1.29,1.36-2.2,2.65-2.02
		C697.54,83.68,698.44,84.87,698.27,86.16z"/>
	<path class="st5" d="M721.15,108.33c0,1.3-1.06,2.36-2.36,2.36s-2.36-1.06-2.36-2.36c0-1.3,1.06-2.36,2.36-2.36
		S721.15,107.03,721.15,108.33z"/>
	<path class="st5" d="M677.71,118.95c0,1.3-1.06,2.36-2.36,2.36c-1.3,0-2.36-1.06-2.36-2.36c0-1.3,1.06-2.36,2.36-2.36
		C676.65,116.59,677.71,117.64,677.71,118.95z"/>
	<path class="st5" d="M677.31,99.68c0,2.93-2.38,5.31-5.31,5.31s-5.31-2.38-5.31-5.31c0-2.93,2.38-5.31,5.31-5.31
		S677.31,96.75,677.31,99.68z"/>
	<path class="st5" d="M709.26,132.31c0,2.93-2.38,5.31-5.31,5.31s-5.31-2.38-5.31-5.31c0-2.93,2.38-5.31,5.31-5.31
		S709.26,129.38,709.26,132.31z"/>
	
		<ellipse transform="matrix(0.1596 -0.9872 0.9872 0.1596 512.12 794.4164)" class="st5" cx="722.63" cy="96.43" rx="5.31" ry="5.31"/>
	<path class="st5" d="M722.07,95.68c-0.67,0.76-1.64,1.46-2.52,1.99c-1.32,0.79-2.79,1.4-4.27,1.84c-0.32,0.09-1.27,0.38-2.81,0.78
		c-1.7-3.15-4.39-5.69-7.65-7.21c0.03-0.28,0.06-0.56,0.1-0.83c0.08-0.65,0.18-1.29,0.3-1.93c0.33-1.76,1.17-4.01,2.46-5.17
		l-2.13-0.84c0.03,0.35,0.01,0.68-0.03,1.01c-0.04,0.33-0.1,0.64-0.17,0.95c-0.15,0.62-0.36,1.22-0.62,1.8
		c-0.26,0.58-0.57,1.14-0.91,1.69c-0.35,0.54-0.72,1.08-1.1,1.61c-0.18,0.25-0.36,0.49-0.55,0.74c-1.8-0.48-3.67-0.66-5.52-0.53
		c-0.17-1.73-0.3-4.06,0.16-5.74h-1.7c0.48,1.73,0.32,4.13,0.15,5.9c-1.61,0.25-3.14,0.73-4.56,1.41c-1.61-2.53-3.98-6.16-4.45-9.2
		l-2.08,0.97c2.04,2.32,3.31,6.52,4.25,9.54c-2.65,1.82-4.75,4.39-5.98,7.41c-3.03-0.59-6.11-1.23-8.73-2.94
		c-0.38-0.25-0.74-0.51-1.09-0.83l-1.17,3.13c0.47-0.01,0.92,0.03,1.37,0.09c3.15,0.44,5.98,2.05,8.7,3.64
		c-0.61,3.12-0.34,6.47,0.95,9.58c-1.79,1.31-3.34,2.41-5.3,3.12c-0.63,0.23-1.46,0.46-2.12,0.5l0.68,1.56
		c0.25-0.24,0.58-0.49,0.87-0.68c2.05-1.35,4.5-1.87,6.94-2.34c1.37,2.29,3.27,4.23,5.53,5.63c-0.3,1.65-0.83,5.01-2.57,6.69
		l2.13,0.86c-0.04-1.17,0.48-2.62,1.02-3.68c0.36-0.73,1.26-2.1,1.67-2.71c3.07,1.31,6.38,1.62,9.47,1.07
		c0.65,1.44,1.15,2.92,1.41,4.49c0.24,1.46,0.28,3.37-0.14,4.64l3.28-0.63c-0.87-1.03-1.54-2.81-1.86-4.25
		c-0.36-1.6-0.44-3.22-0.36-4.83c3.2-1.07,5.98-3.08,7.98-5.71c1.56,0.54,4.87,1.67,6.92,3.05l1.06-2.04
		c-2.07-0.78-4.69-2.6-6.28-3.75c1.07-2.16,1.68-4.6,1.71-7.17c1.3,0.04,3.08,0.26,4.27,0.79l0.14-1.7
		c-1.27,0.34-3.11,0.26-4.41,0.08c-0.07-1.78-0.41-3.5-1-5.09c1.31-0.8,2.13-1.27,2.47-1.46c2.1-1.19,5.08-2.35,7.46-2.25
		L722.07,95.68z"/>
</g>
<g>
	<g>
		<path class="st6" d="M367.85,241.26l1.89,57.03c0.01,0.33,0.07,20.23,0.12,21.41c0.53,5.74,0.82,22.68,1.34,24.44
			c2.73,3.34,5.41,7.77,6.71,10.04c0.81,1.42,2.42,5.02,0.73,5.64c-2.66,0.98-2.75-3.17-4.82-5.02c0.11,1.7,0.33,5.09,0.98,8.35
			l2.2,7.36c0.11,0.57,2.12,4.35,0.25,5.03l-0.09,0.03c-1.72,0.48-3.24-3.75-6.56-10.63c0.34,3.75,0.72,3.26,1.22,6.92
			c1.07,1.87,2.03,5.08-0.07,5.51c-1.05,0.22-2.58-4.19-2.58-4.19c-0.21-0.6-1.86-5.26-2.22-6.16c0.37,1.63,2.01,8.55,0.45,9.12
			c-2.58,0.95-3.32-6.64-4.93-11.86c-0.21,1.31,2.76,8.21,2.15,8.44c-2.52,0.93-6.29-12.17-6.39-12.76
			c-1.04-6.47-0.24-5.75,0.78-17.18c-0.4-2.17-2.55-12.3-4.84-23.26l0.03-0.01c-0.23-0.97-3.39-23.53-3.23-24.71
			c0.32-2.4-3-59.29-3-59.29L367.85,241.26z"/>
	</g>
	<path class="st8" d="M394.57,255.85c0,0-44.9,15.69-45.99,15.4c-0.71-0.19-2.41-24.09-2.55-46.25
		c-0.06-10.24,9.42-22.34,20.53-19.9c5.59,1.23,5.51,2.89,13.78,15.72C388.63,233.65,394.57,255.85,394.57,255.85z"/>
	<path class="st1" d="M423.49,535.02c0,0-0.8,14.2-0.81,14.23c-0.3,1.8-1.46,6.26-1.46,7.9c0,6.16,27.4-5.23,21.26-7.96
		c-0.56-0.25-3.86-2.14-4.05-4.24c-0.28-3.23-0.13-11.17-0.13-11.17L423.49,535.02z"/>
	<path class="st0" d="M442.42,549.13c0,0-6.43,1.88-9.73,2.35s-7.64-3.49-9.97-2.42c-2.57,1.18-2.46,11.79-2.46,11.79
		s33.72,1.18,44.19-0.1C468.46,560.26,455.57,553.52,442.42,549.13z"/>
	<path class="st1" d="M367.45,535.02c0,0-0.8,14.2-0.81,14.23c-0.3,1.8-1.46,6.26-1.46,7.9c0,6.16,27.4-5.23,21.26-7.96
		c-0.56-0.25-4.33-3.51-4.51-5.61c-0.28-3.23-0.13-8.37-0.13-8.37L367.45,535.02z"/>
	<path class="st3" d="M386.37,549.13c0,0-6.43,1.88-9.73,2.35c-3.29,0.47-7.64-3.49-9.97-2.42c-2.56,1.18-2.71,12.01-2.71,12.01
		s34.44,1.15,44.44-0.32C412.4,560.16,399.52,553.52,386.37,549.13z"/>
	<g>
		<path class="st1" d="M369.99,181.92l-3.11,20.97c0,0,11.84,10.14,18.73,8c5.79-1.8,1.82-9.87,1.82-9.87s-3.08-11.19-2.14-17.06
			C386.25,178.09,369.99,181.92,369.99,181.92z"/>
		<path class="st6" d="M372.22,188.26c2.97,1.49,8.83,3.54,13.4,4.03c-0.44-2.93-0.68-6.04-0.32-8.33c0.44-2.71-2.79-3.35-6.39-3.25
			c-4.71,0.43-8.92,1.22-8.92,1.22l-0.6,4.03C370.29,186.96,371.24,187.76,372.22,188.26z"/>
		<path class="st1" d="M385.03,171.64c-0.83-2.61,0.29-5.3,2.49-5.99v0c-3.24-8.35-8.97-16.99-15.43-18.74
			c-11.25-3.04-17.03,10.83-17.03,10.83c-0.49,0,4.68,23.42,12.67,27.45c8,4.03,19.92,1.93,22.16-4.38c0.47-1.33,0.52-3.29,0.22-5.6
			C388.02,175.61,385.81,174.09,385.03,171.64z"/>
		<path class="st4" d="M390.52,166.29c0,0,9.41-14.89,10.49-14.89C402.08,151.4,390.52,166.29,390.52,166.29z"/>
		<path class="st4" d="M390.72,171.68c0,0,21.66-2.45,21.17-0.69C411.39,172.76,390.72,171.68,390.72,171.68z"/>
		<path class="st4" d="M397.18,165.61c0,0,9.02-7.94,9.8-6.76C407.77,160.02,397.18,165.61,397.18,165.61z"/>
		<path class="st2" d="M402.77,150.61c0,0.65-0.57,1.18-1.27,1.18c-0.7,0-1.27-0.53-1.27-1.18c0-0.65,0.57-1.18,1.27-1.18
			C402.2,149.44,402.77,149.96,402.77,150.61z"/>
		<path class="st2" d="M393.75,154.34c0,0.32-0.26,0.59-0.59,0.59c-0.33,0-0.59-0.26-0.59-0.59c0-0.32,0.26-0.59,0.59-0.59
			C393.49,153.75,393.75,154.01,393.75,154.34z"/>
		<path class="st2" d="M409.53,157.03c0,0.51-0.35,0.93-0.78,0.93c-0.43,0-0.78-0.42-0.78-0.93c0-0.51,0.35-0.93,0.78-0.93
			C409.18,156.1,409.53,156.52,409.53,157.03z"/>
		<path class="st2" d="M398.56,177.61c0,0.46-0.35,0.83-0.78,0.83c-0.43,0-0.78-0.37-0.78-0.83c0-0.46,0.35-0.83,0.78-0.83
			C398.21,176.78,398.56,177.15,398.56,177.61z"/>
		<path class="st2" d="M416.1,171.63c0,0.51-0.37,0.93-0.83,0.93c-0.46,0-0.83-0.42-0.83-0.93c0-0.51,0.37-0.93,0.83-0.93
			C415.72,170.7,416.1,171.12,416.1,171.63z"/>
		<path class="st2" d="M420.6,160.8c0,0.54-0.37,0.98-0.83,0.98c-0.46,0-0.83-0.44-0.83-0.98c0-0.54,0.37-0.98,0.83-0.98
			C420.23,159.82,420.6,160.26,420.6,160.8z"/>
		<path class="st2" d="M410.42,140.46c0,0.81-0.53,1.47-1.18,1.47s-1.18-0.66-1.18-1.47s0.53-1.47,1.18-1.47
			S410.42,139.64,410.42,140.46z"/>
		<path class="st3" d="M364.31,136.22c-6.39,3.93-9.32,9.76-10.3,12.15c-3,1.52-6.63,4.8-8.37,13.65
			c-2.14,10.88,5.47,19.27,13.54,21.79c8.07,2.52,9.35,8,9.35,8l0.88-5.91c0,0-1.8-5.34-4.49-8.01c-2.7-2.67,1.28-6.57,1.63-9.74
			c0.27-2.45-1.42-7.2-1.05-11.21c0,0,4.48-7.25,8.9-9.04C381.93,144.83,372.5,131.17,364.31,136.22z"/>
		<path class="st1" d="M367.71,172.22c1.05,2.71,0.62,5.39-0.95,6c-1.57,0.61-3.69-1.09-4.74-3.8c-1.05-2.71-0.62-5.39,0.95-6
			C364.54,167.81,366.66,169.51,367.71,172.22z"/>
	</g>
	<path class="st9" d="M373.65,311.02c0,0-4.64,23.96-2.75,42.12c1.89,18.16,2.04,82.69,2.04,82.69l-7.22,103.24l17.13,0.4
		c0,0,20.32-103.19,19.94-100.54c-0.38,2.65,6.81-72.66,6.81-72.66l-24.22-57.52L373.65,311.02z"/>
	<path class="st4" d="M378.2,309.89c0,0-3.03,21.57,0.76,31.03c3.78,9.46,32.46,102.29,32.84,109.85
		c0.38,7.57,9.91,91.22,9.91,91.22l19.92-0.6l4.31-93.01l-9.02-116.89l-8.76-29.55L378.2,309.89z"/>
	<path class="st1" d="M366.89,202.88c0,0,4.91,3.44,9.49,3.04c4.58-0.4,11.06-4.91,11.06-4.91l-0.9-3.26c0,0-11.85-1.84-12.15-1.64
		C374.09,196.31,366.89,202.88,366.89,202.88z"/>
	<path class="st0" d="M428.2,278.18c-2.62-15.19-9.06-43.15-14.1-51.56c-2.21-3.68-12.05-27.83-26.7-25.71
		c-10.2,1.47-20.5,1.97-20.5,1.97s-9.11,1.6-13.11,5.6c-4.01,4.01-5.07,15.09,0.69,36.12c4.55,16.6,10.18,25.72,12.97,37.82
		c0.56,4.06,1.68,54.71,1.68,54.71s49.57,10.97,68.12-5.68C437.23,331.46,430.88,293.74,428.2,278.18z"/>
	<path class="st0" d="M493.74,406.01l-58.49,16.02c-1.71,0.47-3.53-0.89-3.96-2.96l-6.24-39.84c-1.07-5.06-0.97-10.6,3.21-11.75
		l51.09-14c1.62-0.44,3.37,0.77,3.9,2.71l12.46,45.49C496.25,403.63,495.36,405.56,493.74,406.01z"/>
	<polygon class="st0" points="446.4,426.84 433.64,421.96 440.57,414.54 446.14,414.68 	"/>
	<g>
		<path class="st0" d="M469.72,362.52l-3.65,1l-3.3-12.05c-0.73-2.66-3.14-4.33-5.37-3.72l-7.86,2.16
			c-2.23,0.61-3.45,3.28-2.72,5.94l3.3,12.05l-3.65,1l-3.3-12.05c-1.39-5.07,0.93-10.13,5.18-11.3l7.86-2.15
			c4.24-1.16,8.82,2.01,10.21,7.08L469.72,362.52z"/>
	</g>
	<path class="st8" d="M428.26,367.49c1.26-0.34,57.89-15.86,59.79-16.38c1.54-0.42,3.21,0.65,3.83,2.46l0.47,1.1l0,0l20.75,48.93
		c0.56,1.31-0.14,2.82-1.5,3.25c-12.29,3.85-65.14,19.99-65.14,19.99c-1.36,0.37-9.27-36.36-12.38-51.07
		c-0.56-2.64-3.79-3.81-5.88-1.93c-3.74,3.36-1.87,12.89-1.87,12.89l-0.24-0.88l-1.03-6.6
		C423.98,374.18,424.08,368.63,428.26,367.49z"/>
	<path class="st1" d="M446.48,338.73c0,0,1.15-0.35,5.02,0.86c3.88,1.21,7.75,6.07,7.38,8.08c-0.37,2.01-3.22,2.01-3.22,2.01
		s-0.65,3.46-2.2,3.88c-1.54,0.42-3.04,1.21-3.74,2.01c-0.7,0.79-3.97,1.68-6.4-0.37c-2.43-2.05-7.11-12.82-7.11-12.82
		s-33.05-36.03-35.15-44.02c-2.1-7.99-12.75-43.71-12.75-43.71l23.26-2.8c0,0,6.72,25.92,8.83,33.06
		C422.5,292.05,446.48,338.73,446.48,338.73z"/>
	<path class="st8" d="M417.25,258.15c0,0-25.38,7.43-26.42,6.96c-0.66-0.3-15.82-30.84-14.21-49.28
		c0.89-10.2,11.27-17.45,18.76-13.97c5.19,2.41,7.54,5.38,13.6,19.4C415.04,235.28,417.25,258.15,417.25,258.15z"/>
	<g>
		<path class="st0" d="M446.03,394.61l49.51-15.11l0.93-7.73c0.07-0.61-0.36-1.17-0.98-1.25c-0.62-0.07-1.17,0.36-1.25,0.98
			l-0.75,6.28l-46.88,14.31l-5.55-5.16c-0.45-0.42-1.16-0.4-1.58,0.06c-0.42,0.45-0.4,1.16,0.06,1.58L446.03,394.61z"/>
	</g>
	<path class="st1" d="M465.04,285.8c0,0,6.44-0.89,6.63,1.12c0.19,2.01-8.08,3.18-8.59,3.88s0.61-4.25,0.61-4.25L465.04,285.8z"/>
</g>
<g>
	<path class="st1" d="M80.78,522.97c0,0-1.4,14.25-5.01,16.87c-3.61,2.62-8.42,12.3-6.01,17.53c2.41,5.23,12.51,3.4,12.51,3.4
		s6.01-5.49,6.56-17.07c0.54-11.58,4.15-17.47,4.15-17.47L80.78,522.97z"/>
	<path class="st1" d="M137.92,528.67c0,0,1.14,14.38,0.21,19.05c-0.49,2.5-3.25,7.65-1.98,10.01c1.26,2.36,2.71,2.94,2.71,2.94
		l36.62,0.59c0,0-0.08-4.62-17.5-9.62c-2.22-0.64-4.63-2.82-6.6-5c-2.35-2.61-2.56-15.27-2.56-15.27L137.92,528.67z"/>
	<path class="st10" d="M164.07,337.52c0,0,4.18,23.35,1.43,38.65c-2.74,15.31-14.22,157.94-14.22,157.94l-17.45,0.19
		c0,0-3.2-58.4-2.66-66.64c0.55-8.24,4.36-20.97,4.36-20.97l0.35-49.92l18.46-62.86L164.07,337.52z"/>
	<path class="st2" d="M121.07,332.61c0,0-11.52,17.07-14.26,31.2c-2.74,14.13,2.01,57.55-3.26,76.07
		c-2.86,10.02-16.79,24.3-18.44,37.25c-1.65,12.95-8.54,48.43-8.54,48.43l18.17,2.5l33.98-84.73l26.66-76.58l6.83-39.44
		L121.07,332.61z"/>
	<path class="st3" d="M87.33,552.02c-7.86,1.43-13.1-3.16-15.82-6.6c-2,3.89-3.22,8.75-1.75,11.95c2.41,5.23,12.51,3.4,12.51,3.4
		S85.38,557.93,87.33,552.02z"/>
	<path class="st3" d="M157.98,551.64c-0.63-0.18-1.27-0.48-1.92-0.88c-8.66,2.22-15.05,0.71-18.63-0.73
		c-0.92,2.61-2.2,5.69-1.93,7.67c0.33,2.4,1.4,3.26,1.4,3.26l38.58,0.29C175.48,561.26,175.4,556.64,157.98,551.64z"/>
	<g>
		<path class="st6" d="M213.28,378.37c0,0-1.73-1.85-2.25-2.51c-0.62-0.77-2.28-3.23-2.28-3.23s-5.39-8.81-4.7-9.15
			c0.69-0.34,2.47,0.68,3,1.11c0.53,0.43,1.18,0.88,1.71,1.31c0.53,0.43,1.28,0.4,1.87-0.2c0.59-0.6-1.13-2.76-1.88-3.39
			c-2.33-1.97-9.61-6-10.36-6.46c-0.89-0.54-7.39-17.51-10.09-23.15c0,0,0,0,0,0c-4.13-9.36-7.91-19.18-8.34-20.18l-5.21-43.33
			l-16.9-4.4c0,0,5.09,48.16,5.63,50.54c0.25,1.13,11.54,22.11,11.55,22.11c6.22,9.99,11.72,18.77,12.73,20.49
			c0,0,1.62,5.92,2.42,9.75c0.8,3.83,3.11,7.05,3.5,8.09c0.06,0.15,1.22,3.82,4.21,7.5c2.58,3.17,1.61-1.01,1.61-1.01
			s-3.71-6.74-3.12-6.94c0.45-0.16,2.26,3.64,5.08,7.19c0.72,0.91,1.44,1.81,2.11,2.63c1.75,2.15,3.59,1.69,2.12-0.85
			c-0.52-0.9-1.42-2.36-2.21-3.32c-0.85-1.03-1.3-2.26-1.88-3.23c-1.16-1.94-2.03-3.34-1.92-3.34c0.14-0.01,0.18-0.55,0.98,0.39
			c0.96,1.13,2.46,3.99,4.01,5.55c0.88,0.88,2.59,2.84,2.59,2.84s3.13,2.87,3.34,2.74c1.13-0.73-0.52-3.42-1.87-4.47
			c-0.51-1.1-2.38-3.11-2.38-3.11s-2.85-4.9-2.15-5.32c0.57-0.34,9.69,10.09,10.77,9.28C215.87,381.63,213.28,378.37,213.28,378.37z
			"/>
		<path class="st1" d="M196.36,363.04c0,0,4.96,2.81,7.6,0.5c0,0-0.98,1.87-3.17,1.9C198.61,365.45,196.36,363.04,196.36,363.04z"/>
	</g>
	<path class="st3" d="M130.82,181.36c-2.44,6.67-8.8,7.6-15.28,10.55c-4.35,1.98-5.78,9.99-4.31,15.57
		c3.73,14.14-8.01,9.84-15.97,17.46c-19.18,18.36,12.55,35.61,17.09,38.52c4.54,2.91,21.6,8.41,24.62,8.84
		c9.1,1.3,20.93-3.56,28.45-14.04c7.52-10.48,0.97-18.02,2.16-24.85c1.19-6.83,9.67-6.48,9.18-20.08
		c-0.53-14.71-5.08-26.64-11.66-32.77c-10.9-10.15-26.41-8.09-31.35-3.48C132.28,178.45,131.35,179.91,130.82,181.36z"/>
	<path class="st11" d="M160.36,235.9c0,0,5.04,2.32,11.86,16.12c6.35,12.85,7.39,42.73,7.39,42.73s-10.11,3.21-15.91,2.11
		C157.9,295.75,160.36,235.9,160.36,235.9z"/>
	<path class="st5" d="M141.29,231.57c0,0-3.37,0.28-20.5,3.93c-2.78,0.59-7.16,3.79-8.85,6.79c-8.76,15.57-16.46,43.45-16.46,43.45
		s14.31,4.68,19.28,4.68l5.89-18.55c0,0,6.69,39.14,3.93,45.77c-2.76,6.63-9.69,23.45-9.69,23.45s0.11,3.58,26.26,6.34
		c10.5,1.11,23.58-1.14,23.58-1.14s-2.38-25.41-0.27-36.46c3.44-17.99,10.15-39.53,10.49-42.27c0.55-4.42-9.64-29.44-14.9-31.8
		c-1.36-0.61-3.61-1.87-5.62-2.34C148.38,231.99,141.29,231.57,141.29,231.57z"/>
	<path class="st1" d="M143.57,213.84c0,0-0.55,12.52-2.14,17.13c-1.59,4.61,3.34,21.33,13.33,23.77c9,2.2,2.5-13.43,1.26-20.08
		c-0.14-0.73,1.61-23.92,1.61-23.92L143.57,213.84z"/>
	<path class="st6" d="M156.95,218.03c0.78-3.96,1.51-7.23,1.51-7.23l-14.89,3.04c0,0-0.11,2.56-0.38,5.79
		C148.77,222.21,153.54,221.06,156.95,218.03z"/>
	<path class="st1" d="M148.07,179.76c0,0-5.85,1.63-9.22,7.39c-3.37,5.76-5.06,22.29,7.36,29.35c12.42,7.06,21.23-4.25,20.85-14.83
		C166.69,191.1,163.72,177.11,148.07,179.76z"/>
	<path class="st1" d="M168.15,198.1c-0.9,2.6-2.86,4.29-4.37,3.76c-1.52-0.52-2.02-3.06-1.12-5.66c0.9-2.6,2.86-4.29,4.37-3.76
		C168.55,192.96,169.05,195.5,168.15,198.1z"/>
	<polygon class="st4" points="165.3,347.51 122.63,340.39 131.8,281.06 176.73,289.87 	"/>
	<path class="st1" d="M171.72,314.89c-0.06-0.25-3.6,0.72-6.04-0.33c-0.49-0.21,1.69-1.39,2.02-1.8c0.05-0.05,4.27-1.71,4.27-3.39
		c0-1.69-3.44-1.26-3.44-1.26s-9.97,2.46-11.51,3.51c-1.54,1.05-2.28,1.92-2.38,2.03c-0.6,0.07-1.11,0.1-1.48,0.08
		c-8.63-0.54-22.01-5.11-42.33-12.45l2.09-11c-4.49-0.59-12.09-2.86-15.58-3.95c-1.43,8.42-4.34,22.94-3.08,26.06
		c0.88,2.19,11.69,5.63,23.82,8.94c15.45,4.23,19.73,4.12,33.53,5.8c4.18,0.49,9.61,2.84,11.76,3.27c3.2,0.64,4.25,1.21,6.19-0.16
		c1.64-1.15,2.15-4.67,2.34-6.88C172.27,319.18,172.43,317.59,171.72,314.89z"/>
	<g>
		<g>
			<path class="st0" d="M119.57,511.81c-0.63,0-1.15-0.5-1.17-1.13c-0.04-1.13-0.07-2.22-0.1-3.28c-0.16,0.31-0.32,0.61-0.48,0.91
				c-0.39,0.74-0.76,1.45-1.03,2.03c-0.27,0.59-0.97,0.84-1.56,0.57c-0.59-0.27-0.84-0.97-0.57-1.56c0.3-0.64,0.68-1.36,1.08-2.13
				c1.02-1.95,2.4-4.58,2.47-6.1c0-0.09,0-0.19,0-0.28c0-0.64,0.51-1.16,1.15-1.18c0.64-0.01,1.17,0.48,1.2,1.12
				c0.01,0.12,0.01,0.24,0,0.36c0,2.95,0.07,6.04,0.19,9.45c0.02,0.65-0.48,1.19-1.13,1.22
				C119.6,511.81,119.59,511.81,119.57,511.81z"/>
		</g>
		<g>
			<path class="st0" d="M185.91,254.99c-0.63,0.16-1.01,0.8-0.85,1.43c1.41,5.6,2.43,11.67,3.21,19.11c0.06,0.6,0.57,1.05,1.17,1.05
				c0.04,0,0.08,0,0.12-0.01c0.65-0.07,1.11-0.65,1.05-1.29c-0.79-7.55-1.83-13.73-3.26-19.44
				C187.18,255.22,186.54,254.84,185.91,254.99z"/>
			<path class="st0" d="M189.95,295.03c0.71,6,2.01,12.32,3.98,19.32c0.15,0.52,0.62,0.86,1.13,0.86c0.11,0,0.21-0.01,0.32-0.04
				c0.63-0.18,0.99-0.83,0.81-1.45c-1.94-6.88-3.21-13.08-3.91-18.96c-0.08-0.64-0.66-1.11-1.3-1.03
				C190.34,293.8,189.87,294.39,189.95,295.03z"/>
			<path class="st0" d="M187.64,199.96c0.12,0.55,0.6,0.94,1.15,0.94c0.08,0,0.16-0.01,0.24-0.03c0.64-0.13,1.04-0.76,0.91-1.39
				c-1.38-6.59-3.83-13.01-7.07-18.56c-0.33-0.56-1.05-0.75-1.61-0.42c-0.56,0.33-0.75,1.05-0.42,1.61
				C183.96,187.43,186.31,193.61,187.64,199.96z"/>
			<path class="st0" d="M194.74,396.08c-0.29,0.58-0.06,1.29,0.52,1.58c3.39,1.72,7.09,2.59,11,2.59c0.74,0,1.49-0.03,2.24-0.09
				c2.4-0.2,4.66-0.69,6.7-1.46c0.61-0.23,0.91-0.91,0.69-1.51c-0.23-0.61-0.91-0.91-1.52-0.69c-1.84,0.69-3.88,1.14-6.06,1.32
				c-4.32,0.35-8.35-0.41-11.98-2.25C195.74,395.27,195.03,395.5,194.74,396.08z"/>
			<path class="st0" d="M188.02,218.88c-0.11,0.51-0.24,1.01-0.38,1.49c-0.69,2.42-1.93,4.51-3.13,6.53
				c-1.76,2.96-3.57,6.03-3.74,10.17c-0.03,0.65,0.48,1.2,1.13,1.22c0.02,0,0.03,0,0.05,0c0.63,0,1.15-0.5,1.17-1.13
				c0.14-3.55,1.73-6.23,3.42-9.07c1.27-2.15,2.59-4.37,3.37-7.08c0.15-0.52,0.29-1.07,0.41-1.62c0.14-0.63-0.26-1.26-0.89-1.41
				C188.79,217.85,188.16,218.24,188.02,218.88z"/>
			<path class="st0" d="M224.41,369.39c0.96,3.03,1.45,6.06,1.45,8.99c0,1.56-0.14,3.09-0.42,4.54c-0.12,0.64,0.3,1.25,0.93,1.38
				c0.07,0.01,0.15,0.02,0.22,0.02c0.55,0,1.05-0.39,1.15-0.96c0.31-1.6,0.46-3.27,0.46-4.98c0-3.18-0.53-6.45-1.56-9.71
				c-0.53-1.68-1.21-3.37-2.01-5.04c-0.28-0.59-0.98-0.83-1.57-0.55c-0.59,0.28-0.83,0.98-0.55,1.57
				C223.27,366.22,223.91,367.81,224.41,369.39z"/>
			<path class="st0" d="M93.57,418.28c0.05,0.01,0.1,0.01,0.14,0.01c0.59,0,1.09-0.44,1.17-1.03c0.77-6.3,1.16-12.72,1.16-19.07
				c0-0.2,0-0.4,0-0.59c0-0.65-0.53-1.17-1.18-1.17h0c-0.65,0-1.17,0.53-1.17,1.18c0,0.2,0,0.39,0,0.59
				c0,6.25-0.38,12.57-1.14,18.78C92.46,417.61,92.92,418.2,93.57,418.28z"/>
			<path class="st0" d="M83.12,291.35c-0.64-0.1-1.24,0.35-1.34,0.99c-0.57,3.87-0.85,7.25-0.85,10.34c0,3.52,0.35,6.65,1.08,9.56
				c0.13,0.53,0.61,0.89,1.14,0.89c0.09,0,0.19-0.01,0.29-0.04c0.63-0.16,1.01-0.8,0.85-1.43c-0.68-2.72-1.01-5.65-1.01-8.98
				c0-2.97,0.27-6.24,0.82-10C84.21,292.04,83.76,291.44,83.12,291.35z"/>
			<path class="st0" d="M204.98,343.35c1.5,2.34,3.56,4.25,5.9,6.34c0.22,0.2,0.5,0.3,0.78,0.3c0.32,0,0.65-0.13,0.88-0.39
				c0.43-0.49,0.39-1.23-0.1-1.66c-2.21-1.97-4.15-3.76-5.49-5.85c-2.05-3.19-3.56-6.96-4.64-9.89c-0.23-0.61-0.9-0.92-1.51-0.69
				c-0.61,0.23-0.92,0.9-0.69,1.51C201.24,336.05,202.81,339.97,204.98,343.35z"/>
			<path class="st0" d="M150.36,161.9c6.34,0.65,12.47,2.83,17.71,6.32c0.2,0.13,0.43,0.2,0.65,0.2c0.38,0,0.75-0.18,0.98-0.52
				c0.36-0.54,0.21-1.27-0.33-1.63c-5.56-3.7-12.05-6.02-18.78-6.7c-0.64-0.07-1.22,0.4-1.29,1.05
				C149.25,161.26,149.72,161.83,150.36,161.9z"/>
			<path class="st0" d="M72.76,493.82c0.11,0.03,0.22,0.05,0.33,0.05c0.51,0,0.98-0.33,1.13-0.84c1.58-5.37,3.34-11.34,5.56-18.79
				c0.19-0.62-0.17-1.28-0.79-1.46c-0.62-0.18-1.28,0.17-1.46,0.79c-2.22,7.46-3.99,13.43-5.56,18.8
				C71.78,492.98,72.13,493.64,72.76,493.82z"/>
			<path class="st0" d="M117.9,178.4c0.22,0,0.44-0.06,0.64-0.19c0.43-0.28,0.83-0.57,1.19-0.88c0.96-0.81,1.57-2.17,2.17-3.48
				c0.37-0.8,0.74-1.63,1.13-2.14c2.13-2.83,5.19-5.23,8.85-6.95c0.59-0.28,0.84-0.98,0.57-1.56c-0.27-0.59-0.98-0.84-1.56-0.57
				c-4.01,1.88-7.37,4.53-9.73,7.67c-0.54,0.72-0.97,1.66-1.39,2.58c-0.47,1.03-1,2.19-1.56,2.66c-0.29,0.24-0.6,0.48-0.95,0.7
				c-0.55,0.35-0.7,1.08-0.35,1.63C117.14,178.21,117.51,178.4,117.9,178.4z"/>
			<path class="st0" d="M76.42,239.27c0.02,0,0.04,0,0.06,0c0.65-0.03,1.15-0.58,1.12-1.23c-0.02-0.43-0.03-0.86-0.03-1.29
				c0-5.92,2.1-11.58,5.92-15.92c0.43-0.49,0.38-1.23-0.11-1.66c-0.49-0.43-1.23-0.38-1.66,0.11c-4.2,4.77-6.51,10.98-6.51,17.47
				c0,0.47,0.01,0.94,0.04,1.41C75.28,238.78,75.8,239.27,76.42,239.27z"/>
			<path class="st0" d="M88.69,435.96c-1.3,4.49-3.17,10.76-5.56,18.81c-0.19,0.62,0.17,1.28,0.79,1.46
				c0.11,0.03,0.23,0.05,0.34,0.05c0.51,0,0.97-0.33,1.13-0.84c2.4-8.05,4.27-14.33,5.57-18.82c0.18-0.62-0.18-1.28-0.8-1.46
				C89.52,434.98,88.87,435.34,88.69,435.96z"/>
			<path class="st0" d="M62.6,531.71c0.1,0.02,0.19,0.04,0.29,0.04c0.53,0,1.01-0.36,1.14-0.89c0.3-1.2,0.53-2.31,0.71-3.39
				c0.33-2.04,1.69-7.29,4.04-15.62c0.18-0.62-0.19-1.27-0.81-1.45c-0.62-0.18-1.27,0.19-1.45,0.81c-2.4,8.53-3.74,13.72-4.1,15.87
				c-0.17,1.01-0.38,2.06-0.67,3.19C61.59,530.91,61.97,531.55,62.6,531.71z"/>
			<path class="st0" d="M83.24,256.35c1.99,2.07,3.96,4.29,4.32,6.63c0.08,0.5,0.12,1.05,0.12,1.64c0,2.7-0.81,5.97-1.51,8.52
				c-0.17,0.63,0.19,1.27,0.82,1.45c0.11,0.03,0.21,0.04,0.31,0.04c0.52,0,0.99-0.34,1.13-0.86c0.75-2.69,1.6-6.16,1.6-9.14
				c0-0.71-0.05-1.39-0.15-2.01c-0.47-3.01-2.7-5.55-4.95-7.89c-0.45-0.47-1.19-0.48-1.66-0.04
				C82.8,255.14,82.79,255.88,83.24,256.35z"/>
			<path class="st0" d="M92.05,378.21c0.05,0.62,0.56,1.08,1.17,1.08c0.03,0,0.06,0,0.09,0c0.65-0.05,1.13-0.62,1.08-1.26
				c-0.1-1.22-0.14-2.32-0.15-3.37l0-0.17c0-4.43,0.98-9.22,1.93-13.84c0.11-0.55,0.23-1.1,0.34-1.64l0.01-0.03
				c0.12-0.64-0.29-1.24-0.93-1.37c-0.64-0.13-1.25,0.3-1.38,0.93c-0.11,0.54-0.22,1.09-0.34,1.64c-0.93,4.52-1.98,9.65-1.98,14.32
				l0,0.18C91.9,375.77,91.95,376.93,92.05,378.21z"/>
			<path class="st0" d="M96.24,207.8c0.18,0.1,0.38,0.15,0.58,0.15c0.41,0,0.81-0.21,1.02-0.6c0.26-0.46,0.5-0.93,0.7-1.4
				c1.03-2.37,1.37-4.89,1.7-7.34c0.18-1.38,0.37-2.8,0.69-4.14c0.46-1.98,1.25-3.91,2.34-5.73c0.33-0.56,0.15-1.28-0.41-1.61
				c-0.56-0.33-1.28-0.15-1.61,0.41c-1.21,2.02-2.09,4.18-2.61,6.4c-0.34,1.45-0.54,2.93-0.73,4.36c-0.32,2.39-0.62,4.65-1.52,6.71
				c-0.17,0.4-0.37,0.8-0.59,1.18C95.48,206.77,95.67,207.48,96.24,207.8z"/>
			<path class="st0" d="M101.33,547.47c0.13,0.05,0.26,0.07,0.39,0.07c0.48,0,0.94-0.3,1.11-0.79c2.98-8.45,4.63-13.11,6.65-18.34
				c0.23-0.61-0.07-1.29-0.67-1.52c-0.61-0.23-1.29,0.07-1.52,0.67c-2.03,5.27-3.68,9.93-6.67,18.41
				C100.39,546.58,100.72,547.25,101.33,547.47z"/>
			<path class="st0" d="M93.9,328.3c1.13,0.51,2.26,0.88,3.36,1.24c1.48,0.48,2.87,0.94,4.29,1.71c0.91,0.49,1.3,1.1,1.3,2.03
				c0,1.5-1,3.52-1.96,5.48c-0.16,0.32-0.31,0.63-0.46,0.94c-0.28,0.58-0.04,1.29,0.55,1.57c0.16,0.08,0.34,0.12,0.51,0.12
				c0.44,0,0.86-0.24,1.06-0.66c0.15-0.31,0.3-0.62,0.45-0.93c1.08-2.2,2.2-4.47,2.2-6.52c0-1.79-0.88-3.21-2.54-4.1
				c-1.61-0.86-3.17-1.37-4.67-1.87c-1.09-0.36-2.12-0.69-3.13-1.15c-0.59-0.27-1.29,0-1.55,0.59
				C93.04,327.34,93.31,328.03,93.9,328.3z"/>
		</g>
		<g>
			<path class="st0" d="M177.8,384.75c-0.04,0-0.07,0-0.11-0.01c-0.65-0.06-1.12-0.63-1.06-1.28c0.39-4.3,0.87-9.48,0.9-9.78
				c0.06-0.55,0.49-0.98,1.04-1.04c0.55-0.06,1.06,0.26,1.24,0.79c1.09,3.17,2.39,6.13,3.84,8.79c0.31,0.57,0.1,1.28-0.47,1.6
				c-0.57,0.31-1.28,0.1-1.6-0.47c-0.77-1.41-1.5-2.9-2.17-4.45c-0.11,1.26-0.26,2.83-0.44,4.78
				C178.91,384.29,178.4,384.75,177.8,384.75z"/>
		</g>
		<g>
			<path class="st0" d="M166.36,510.61c-0.04,0-0.07,0-0.11,0c-0.65-0.06-1.12-0.63-1.06-1.28l1.9-20.97
				c0.06-0.65,0.63-1.12,1.28-1.06c0.65,0.06,1.12,0.63,1.06,1.28l-1.9,20.97C167.48,510.16,166.96,510.61,166.36,510.61z
				 M170.17,468.67c-0.04,0-0.07,0-0.11-0.01c-0.65-0.06-1.12-0.63-1.06-1.28l1.91-20.98c0.06-0.65,0.63-1.12,1.28-1.06
				c0.65,0.06,1.12,0.63,1.06,1.28l-1.9,20.98C171.28,468.21,170.77,468.67,170.17,468.67z M173.98,426.72c-0.04,0-0.07,0-0.11,0
				c-0.65-0.06-1.12-0.63-1.06-1.28l1.91-20.97c0.06-0.65,0.63-1.12,1.28-1.06c0.65,0.06,1.12,0.63,1.06,1.28l-1.91,20.97
				C175.09,426.26,174.58,426.72,173.98,426.72z"/>
		</g>
		<g>
			<path class="st0" d="M171.96,546.2c-0.24,0-0.48-0.07-0.68-0.22c-4.8-3.43-7.02-4.52-8.04-4.83c-0.53-0.16-0.87-0.67-0.83-1.22
				c0-0.03,0.42-4.68,0.89-9.77c0.06-0.65,0.63-1.12,1.28-1.06c0.65,0.06,1.12,0.63,1.06,1.28c-0.4,4.36-0.68,7.44-0.8,8.87
				c1.77,0.76,4.34,2.35,7.81,4.83c0.53,0.38,0.65,1.11,0.27,1.64C172.69,546.02,172.33,546.2,171.96,546.2z"/>
		</g>
		<g>
			<path class="st0" d="M190.99,561.17c-0.27,0-0.53-0.09-0.75-0.27c-3.38-2.81-6.53-5.38-9.37-7.63c-0.51-0.4-0.59-1.14-0.19-1.65
				c0.4-0.51,1.14-0.59,1.65-0.19c2.85,2.27,6.02,4.84,9.41,7.67c0.5,0.42,0.57,1.16,0.15,1.66
				C191.66,561.03,191.32,561.17,190.99,561.17z"/>
		</g>
		<g>
			<path class="st0" d="M120.2,543.58c0,0.07,0.08,1.8,0.38,4.45c0.07,0.6,0.58,1.04,1.17,1.04c0.04,0,0.09,0,0.13-0.01
				c0.65-0.07,1.11-0.66,1.04-1.3c-0.29-2.56-0.37-4.27-0.37-4.29c-0.22-4.95-0.54-10.14-0.8-14.3c-0.04-0.65-0.6-1.14-1.25-1.1
				c-0.65,0.04-1.14,0.6-1.1,1.25C119.73,534.6,120,539.01,120.2,543.58z"/>
		</g>
	</g>
	<path class="st2" d="M140.78,201.8c0,0,11.11-3.66,13.85-3.66c2.74,0,9.93-0.65,9.93-0.65s1.96,7.58,2.35,11.24
		c0,0-2.48,7.45-7.45,9.93c-4.96,2.48-13.07-0.13-15.68-1.96c-2.61-1.83-4.44-4.31-4.44-4.31L140.78,201.8z"/>
	<polygon class="st2" points="142.28,202.71 136.27,197.68 135.42,198.4 142.02,204.87 	"/>
	<polygon class="st2" points="136.79,206.83 139.34,212.38 140.58,210.22 137.64,206.24 	"/>
	<polygon class="st2" points="165.93,192.06 164.29,197.68 164.62,199.58 166.71,192.33 	"/>
	<polygon class="st2" points="167.04,200.03 165.99,207.09 166.91,208.72 167.66,199.22 	"/>
	<path class="st1" d="M137.89,201.72c1.01,2.7,0.35,5.45-1.48,6.13c-1.83,0.68-4.13-0.96-5.14-3.66c-1.01-2.7-0.35-5.45,1.48-6.13
		C134.58,197.38,136.88,199.01,137.89,201.72z"/>
</g>
<g>
	<path class="st4" d="M612.96,191.26c1.74-7.91,3.44-15.86-1.14-24.55c-3.71-7.03-10.12-11.07-17.55-11.95
		c-21.03-2.5-22.89,16.3-42.87,24.53c-8.53,3.51-17.29,2.51-24.92,7.05c-13.77,8.2-8.7,18.13,0.43,39.57
		c22.36,52.5,60.84,22.1,67.62,11.76C599.59,229.98,611.84,196.35,612.96,191.26z"/>
	<g>
		<path class="st6" d="M607.47,225.95c-11.28,3.53-41.84,13.42-43.37,13.05l-27.85-22.16l-17.13,15.03c0,0,38.22,28.3,40.39,29.34
			c1.61,0.77,35.26-16.57,51.13-24.33C610.42,231.71,610,230.47,607.47,225.95z"/>
		<path class="st10" d="M556.52,229.24l-17.45,22.59c0,0-18.39-14.14-25.17-21.74c-8.23-9.23-17.23-29.04-15.9-29.76
			c3.73-2.03,11.77-3.66,17.31-2.42C534.51,202.2,556.52,229.24,556.52,229.24z"/>
	</g>
	<g>
		<path class="st6" d="M600.1,230.87l-2.15-11.23c0,0,6.35,1.52,10.4,7.8c4.04,6.28,10.81,27.52,11.97,28.14
			c1.16,0.63,13.95-19.08,16.18-22.19c2.77-3.84,3.8-8.25,5.53-11.6c1.73-3.35,7.83-4.49,10.14-4.07
			c2.31,0.42-3.17,10.22-3.17,10.22s-13.86,24.08-18.48,37.28c-4.62,13.19-19.06,19.48-21.37,17.59
			C606.84,280.92,600.1,230.87,600.1,230.87z"/>
		<path class="st11" d="M602.61,264.59l17.65-10.07c0,0-8.01-33.79-22.31-34.88L602.61,264.59z"/>
		<path class="st1" d="M642.19,223.64c0,0,0.58-2.54,2.13-3.05c1.56-0.52,4.26-0.06,4.44,0c0.17,0.06,3.17-1.56,3.17-1.56
			l-2.48,4.61c0,0-4.84,5.71-6.45,3.57C641.38,225.08,642.19,223.64,642.19,223.64z"/>
		<path class="st6" d="M652.79,219.24c0,0,1.75,8.89,1.31,10.76c-0.44,1.87-1.56,0.87-1.77,0.46c-0.86-1.67-1.46-7.38-1.46-7.38
			L652.79,219.24z"/>
		<path class="st6" d="M649.02,226.64c0,0,0.83,5.52,1.69,6.17c0.56,0.42,1.27,0.17,1.5-0.94c0.23-1.11-1.11-7.91-1.11-7.91
			L649.02,226.64z"/>
		<path class="st4" d="M643.93,242.29l-2.9-1.41l12.32-25.28l0,0c1.6,0.78,2.27,2.71,1.49,4.31L643.93,242.29z"/>
		<path class="st1" d="M528.84,522.86c0,0-1.5,15.21-5.35,18c-3.85,2.79-8.98,13.12-6.42,18.71c0.8,1.75,2.41,2.75,4.23,3.32
			c5.41,1.67,11.16-1.14,13.47-6.31c1.29-2.89,2.42-6.74,2.64-11.6c0.58-12.36,4.43-18.64,4.43-18.64L528.84,522.86z"/>
		<path class="st1" d="M588.01,529.08c0,0,1.21,15.35,0.23,20.33c-0.53,2.67-3.47,8.17-2.12,10.68c1.35,2.51,2.89,3.14,2.89,3.14
			l34.93,0.56c1.9,0.03,0.65-1.19-0.89-2.32c-2.51-1.84-4.54-3.06-12.56-6.93c-0.52-0.25-2.43-1.46-3.11-1.88
			c-1.74-1.06-3.49-2.73-5-4.4c-2.51-2.79-2.73-16.3-2.73-16.3L588.01,529.08z"/>
		<path class="st9" d="M615.31,325.11c0,0,4.4,24.91,1.51,41.25c-2.89,16.33-16.75,167.73-16.75,167.73l-15.4,0.87
			c0,0-3.23-63.24-2.65-72.04c0.58-8.8,5.15-23.51,5.15-23.51l-1.53-51.06l19.44-67.08L615.31,325.11z"/>
		<path class="st4" d="M570.04,319.87c0,0-12.13,18.22-15.02,33.3c-2.89,15.08,2.12,61.41-3.44,81.17
			c-3.01,10.7-14.4,27.21-16.14,41.03c-1.73,13.82-8.53,50.02-8.53,50.02l15.4,3.05l35.78-90.41l28.07-81.72l7.19-42.09
			L570.04,319.87z"/>
		<path class="st5" d="M579.86,216.21c0,0-8.32,1.37-14.51,7.43c-13.28,13,7.8,63.14,8.96,71.94c1.15,8.8-9.47,29.31-9.47,29.31
			s39.69,7.33,50.47,0.21c0,0,1.27-70.57,0.11-76.85c-1.15-6.28-14.08-25.67-16.39-28.18C596.72,217.56,579.86,216.21,579.86,216.21
			z"/>
		<path class="st1" d="M564.84,229.54c1.02-3.1,4.53-4.59,7.53-3.29c4.1,1.77,9.76,5.14,12.53,10.9
			c4.62,9.63,20.79,42.72,25.8,43.98c5.01,1.26,25.41-34.34,25.41-34.34s-0.58-6.28,1.16-9.84c1.73-3.56,6.93-7.33,7.7-6.07
			c0.77,1.26-2.89,4.4-2.89,5.03c0,0.63,1.54,1.05,3.66-0.21c2.12-1.26,3.27-3.8,3.27-3.8s3.47,6.31-0.19,11.96
			c-3.66,5.65-5.2,7.96-5.2,7.96s-23.68,52.56-32.34,53.19C603.2,305.59,556.73,254.05,564.84,229.54z"/>
		<path class="st1" d="M585.2,194.8c0,0-0.08,0.47-0.23,1.28c-0.72,3.85-3.47,16.63-5.34,20.15c-2.25,4.25,7.71,17.79,17.29,16.14
			c2.85-0.49-2.41-12.44-2.16-13.71c0.48-2.42,1.14-5.73,1.81-9.12c0.38-1.91,0.76-3.85,1.12-5.67c1.02-5.18,1.86-9.41,1.86-9.41
			L585.2,194.8z"/>
		<path class="st6" d="M584.97,196.08c0.15-0.8,0.23-1.28,0.23-1.28l14.36-0.36c0,0-0.84,4.24-1.86,9.41
			c-0.36,1.81-0.74,3.74-1.12,5.64c-2.22-0.33-4.53-1.4-6.86-3.43c-2.53-2.21-4.19-4.87-5.19-7.71
			C584.71,197.45,584.86,196.67,584.97,196.08z"/>
		<path class="st1" d="M593.84,160.67c0,0-5.86,0.81-10.1,6.29s-8.82,22.41,1.72,31.62c10.54,9.21,20.95-1.22,22.5-12.27
			C609.51,175.26,609.2,160.27,593.84,160.67z"/>
		<path class="st1" d="M611.34,182.54c-1.26,2.44-3.37,3.79-4.72,3.02c-1.35-0.77-1.42-3.38-0.16-5.82s3.37-3.79,4.72-3.02
			C612.52,177.49,612.6,180.1,611.34,182.54z"/>
		<path class="st4" d="M595.63,160.41c0,0-9.04,16.1-15.51,16.85c-6.47,0.74-7.32,9.3-7.32,9.3s2.31-19.72,8.72-23.52
			C587.92,159.24,595.63,160.41,595.63,160.41z"/>
		<path class="st1" d="M582.23,181.1c0.53,2.86-0.53,5.48-2.36,5.86c-1.83,0.38-3.74-1.64-4.27-4.5c-0.53-2.86,0.53-5.48,2.36-5.86
			C579.79,176.23,581.7,178.24,582.23,181.1z"/>
		<path class="st2" d="M535.83,553.85c-8.39,1.53-13.97-3.37-16.88-7.04c-2.13,4.15-3.44,9.34-1.87,12.75
			c1.38,3.01,5,3.25,8.18,3.37c3.36,0.12,6.65-1.05,8.32-3.97C534.35,557.59,535.16,555.9,535.83,553.85z"/>
		<path class="st2" d="M607.37,552.67c-9.24,2.37-16.06,0.76-19.88-0.78c-0.99,2.79-2.29,6.28-1.6,8.3
			c0.85,2.47,2.06,3.03,3.12,3.05c8.44,0.22,30.9,0.52,37.34,0.61c0.9,0.01,1.39-1.04,0.82-1.72
			C625.57,560.22,608.06,553.09,607.37,552.67z"/>
	</g>
	<path class="st11" d="M577.8,275.75l20.8-13.65c0,0-8.66-24.48-18.2-33.14c-9.53-8.66-14.04-6.56-16.03-4.77
		c-5.52,4.98-4.55,17.11,1.73,32.06C572.39,271.2,577.8,275.75,577.8,275.75z"/>
	<path class="st1" d="M545.14,531.77c0,0-0.81,14.33-0.82,14.36c-0.3,1.82-1.47,6.31-1.47,7.97c0,6.21,27.64-5.27,21.44-8.03
		c-0.56-0.25-3.5-2.13-3.68-4.25c-0.28-3.26-1-9.85-1-9.85L545.14,531.77z"/>
	<path class="st0" d="M564.23,546.01c0,0-6.49,1.9-9.81,2.38c-3.32,0.48-7.7-3.52-10.06-2.44c-2.59,1.19-2.08,15.21-2.08,15.21
		s36.19,2.83,45.98-0.33C592.13,559.57,577.5,550.43,564.23,546.01z"/>
	<path class="st1" d="M484.25,533.15c0,0-0.81,14.33-0.82,14.36c-0.3,1.82-1.47,6.31-1.47,7.97c0,6.21,27.64-5.27,21.44-8.03
		c-0.56-0.25-4.37-3.54-4.55-5.65c-0.28-3.26-0.13-8.44-0.13-8.44L484.25,533.15z"/>
	<path class="st0" d="M503.34,547.38c0,0-6.49,1.9-9.81,2.38c-3.32,0.48-7.7-3.53-10.06-2.44c-2.59,1.19-3.25,14.32-3.25,14.32
		s38.18,2.9,47.11,1.62C531.36,562.68,516.6,551.81,503.34,547.38z"/>
	<path class="st3" d="M528.05,326.34l11.68,5.04l24.58,117.38l-1,88l-19.7,0.46c0,0-9.16-76.98-9.16-82.94
		c0-5.97-42.45-104.39-42.45-104.39L528.05,326.34z"/>
	<path class="st0" d="M519.03,332.79c0,0-3.27,89.05-3.27,104.29c0,15.24-4.65,100.95-4.65,100.95l-27.42,0.9
		c0,0-1.42-26.01-3.54-64.27c-0.33-5.99,0.43-18.08,0-24.29c-3.07-44.62-9.15-86.62-6.25-103.27c0.47-2.68,1.35-9.69,3.06-11.46
		C489.89,322.27,519.03,332.79,519.03,332.79z"/>
	<path class="st2" d="M486.5,197.54c0,0-13.63,1.89-17.22,4.53c-4.04,2.97-8.52,9.61-8.52,9.61s16.73,79.1,16.76,92.41
		c0.02,10.3-3.62,35.58-3.62,35.58s50.57,3.19,69.72-4.37c0,0-6.05-30.07-6.05-37.97s-7.23-79.7-8.88-84.71
		c-1.49-4.55-4.22-12.73-13.46-14.74C505.98,195.86,486.5,197.54,486.5,197.54z"/>
	<path class="st1" d="M490.22,176.25l-3.26,21.34c0,0,10.25,18.29,17.6,16.01c6.17-1.91,4.33-16.43,4.33-16.43
		s-3.36-12.5-2.36-18.75C507.55,172.17,490.22,176.25,490.22,176.25z"/>
	<path class="st6" d="M506.54,178.42c1.01-6.25-16.32-2.17-16.32-2.17l-0.28,1.83c0.51,1.23,1.13,2.27,1.88,3.08
		c3.87,4.14,9.92,6.62,15.15,6.81C506.45,184.6,506.13,180.98,506.54,178.42z"/>
	<g>
		<path class="st1" d="M487.38,145c-0.49-0.18-3.93,25.16,2.6,32.13c6.52,6.97,19.23,9.25,23.78,3.76
			c5.04-6.07,4.79-33.3-5.35-40.47C498.26,133.25,487.38,145,487.38,145z"/>
		<path class="st3" d="M504.54,126.87c-7.84,1.59-12.91,6.34-14.78,8.37c-3.56,0.42-8.39,2.37-13.39,10.58
			c-6.14,10.1-1.61,21.29,5.54,26.78c3.86,2.97,5.6,6.2,6.39,8.55c0.29,0.86,1.5,0.85,1.79,0l0,0c0.83-2.49,1.17-5.12,0.9-7.73
			c-0.17-1.56-0.5-3.25-1.16-4.64c-1.72-3.67,3.69-6.1,5.21-9.15c1.17-2.35,1.23-7.72,3.07-11.6l2.2-2.96c0,0,5.07-3.92,10.04-2.81
			C515.31,143.35,514.6,124.83,504.54,126.87z"/>
		<path class="st1" d="M494.71,164.14c0.05,3.09-1.36,5.62-3.16,5.65c-1.8,0.03-3.29-2.45-3.35-5.54c-0.05-3.09,1.36-5.62,3.16-5.65
			C493.16,158.57,494.66,161.05,494.71,164.14z"/>
	</g>
	<path class="st3" d="M521.25,278l0.33,1.89c0.17,0.97,1.09,1.62,2.06,1.45l39.08-6.77c0.97-0.17,1.62-1.09,1.45-2.06l-0.33-1.89
		c-0.17-0.97-1.09-1.62-2.06-1.45l-39.09,6.77C521.74,276.11,521.08,277.03,521.25,278z"/>
	<path class="st1" d="M465.85,207.73c4.59-0.13,8.64,30.11,5.73,33.1c-2.91,2.98-3.46,40.24-3.46,40.24l43.26-1.08l0.01,0.01
		c0.84-0.57,9.91-6.65,11.2-7.98c1.36-1.4,7.96-0.7,9.71,1.22c1.75,1.92-3.36,1.25-4.88,1.97c-1.69,0.8,0.61,3.09,0.61,3.09
		s10.96,1.59,13.1-0.68c2.14-2.27,7.85-6.11,8.62-3.84c0.4,1.17-2.54,4.72-4.2,6.2c2.07-1.55,4.55-3.2,5.4-2.91
		c1.55,0.52,0.91,2.5,0.06,3.08c-0.84,0.58-9.54,7.23-10.9,7.69c-1.33,0.45-21.57,0.95-25.07,1.73c0,0-57.05,12.99-60.29,12.18
		c-2.85-0.71-5.69-18.97-5.69-32.96C449.05,254.82,451.52,208.14,465.85,207.73z"/>
	<path class="st2" d="M471.79,200.83c0,0-9.97,2.33-16.22,11.1c-6.55,9.18-12.22,55.6-12.22,55.6l25.89,4.18l2.07-22.82l6.92-10.44
		L471.79,200.83z"/>
	<path class="st1" d="M596.18,218.71c0,0,1.79-1.99,5.16-1.75c3.37,0.24,7.79,4.5,8.4,6.03c0.32,0.79-1.8,7-2.72,8.37
		c-0.54,0.81-1.8,1.21-2.23,0.79c-0.29-0.28,0.01-1.69,0.09-2c0.16-0.59,1.28-4.43,1.28-4.43s-2.18,3.87-3.19,4.11
		c-1.01,0.23-1.58-0.59-1.52-0.91c0.31-1.64,2-4.79,2-4.79s-2.55,3.75-3.81,3.35c-1.25-0.39-0.73-1.73-0.55-2.18
		c0.19-0.45,1.93-3.04,1.93-3.04s-2.77,3.83-3.31,2.46c-0.33-0.83,1.48-4.46,1.48-4.46L596.18,218.71z"/>
</g>
<g>
	<g>
		<g>
			<path class="st6" d="M277.56,535.22c0,0,7.02,16.9,7.03,16.93c0.3,1.87,1.5,6.49,1.5,8.19c0,6.38-28.2-5.42-21.88-8.25
				c0.57-0.26,2.37-2.3,2.55-4.47c0.29-3.35-2.38-7.55-2.38-7.55L277.56,535.22z"/>
			<path class="st9" d="M287.7,562.44c0,0-0.66-9.57-3.03-10.7c-2.22-1.06-6.25,3.21-9.39,2.72c-3.14-0.49-10.22-3.13-10.22-3.13
				c-12.54,4.55-21.86,7.44-19.99,11.1l0,0H287.7z"/>
			<path class="st1" d="M234.38,540.31c0,0,4.09,11.8,4.1,11.83c0.3,1.87,1.5,6.49,1.5,8.19c0,6.38-28.2-5.42-21.88-8.25
				c0.57-0.26,2.37-2.3,2.55-4.47c0.29-3.35-2.38-7.55-2.38-7.55L234.38,540.31z"/>
			<g>
				<path class="st3" d="M195.47,316.32l-10.21,26.63c0,0-6.66,63.55-2.78,101.59c1.62,15.91,36.74,101.08,36.74,101.08l17.44-2.51
					l-18.1-99.77l3.33-39.65l12.17-76.24L195.47,316.32z"/>
				<path class="st0" d="M207.7,319.48l-6.25,27.83c0,0,2.59,63.85,11.93,100.93c3.9,15.51,50.96,94.71,50.96,94.71l16.9-5.01
					l-32.33-96.11l3.02-94.7l-4.43-22.21L207.7,319.48z"/>
			</g>
			<path class="st4" d="M241.58,562.44c0,0-0.68-9.48-3.2-10.62c-2.4-1.08-6.81,3.14-10.2,2.65c-3.39-0.49-10.01-2.44-10.01-2.44
				c-13.53,4.55-24.62,6.76-22.61,10.41l0,0H241.58z"/>
			<g>
				<path class="st1" d="M149.03,337.24c6.36-2.45,6.52-1.27,7.32-1.61c0.95-0.4,8.71-11.99,8.71-11.99s23.09-34,24.28-35.88
					l7.54-42.15l21.64-1.96c0,0-9.4,45.63-10.3,47.92c-0.9,2.3-37.4,44.51-40.5,48.33c0,0-2.03,5.96-3.42,9.66
					c-1.39,3.7-4.34,6.56-4.89,7.54c-0.08,0.14-2.1,3.29-5.61,6.49c-3.02,2.75-1.41-1.28-1.41-1.28s4.69-6.13,4.15-6.43
					c-0.42-0.23-2.79,3.27-6.1,6.36c-0.85,0.79-1.7,1.57-2.48,2.28c-2.05,1.86-3.77,1.1-1.93-1.2c0.65-0.81,1.76-2.13,2.68-2.96
					c1-0.89,1.63-2.04,2.35-2.93c1.44-1.75,2.51-3.01,2.4-3.03c-0.13-0.03-0.09-0.58-1.02,0.23c-1.12,0.98-3.04,3.59-4.79,4.9
					c-0.99,0.74-2.98,2.42-2.98,2.42s-3.51,2.36-3.7,2.19c-0.99-0.92,1.05-3.34,2.53-4.16c0.68-1.02,2.81-2.72,2.81-2.72
					s3.56-4.44,2.94-4.97c-0.5-0.43-11.05,8.51-11.98,7.52c-0.76-0.81,2.3-3.64,2.3-3.64s1.98-1.57,2.6-2.14
					c0.72-0.67,2.74-2.85,2.74-2.85s6.66-7.93,6.04-8.38c-0.62-0.45-2.66-0.96-3.25-0.61c-0.58,0.34-1.32,1.55-1.9,1.89
					c-0.58,0.34-1.63,0.28-2.11-0.41c-0.48-0.7,1.7-3.46,1.7-3.46S147.2,337.94,149.03,337.24z"/>
				<path class="st10" d="M187.56,255.87l26.22,9.22c0,0,11.27-20.72,13.49-30.39c2.69-11.74-2.41-25.06-3.87-25.05
					c-4.11,0.02-10.36-1.46-14.49,2.21C194.63,224.54,187.56,255.87,187.56,255.87z"/>
				<path class="st1" d="M158.81,340.67c-2.34,1.98-4.89,2.77-7.84,2.11C153.7,344.91,157.58,343.37,158.81,340.67z"/>
			</g>
			<path class="st2" d="M240.4,208.99c0,0,13.16,1.84,16.62,4.4c3.9,2.89,15.98,16.34,15.98,16.34s-25.14,72.54-24.17,85.44
				c0.97,12.91,3.73,32.02,3.73,32.02s-48.82,3.1-67.32-4.25c0,0,5.84-29.24,5.84-36.92c0-7.68,4.26-65.69,6.08-71.61
				c1.37-4.44,6.57-23.15,15.49-25.11C221.58,207.36,240.4,208.99,240.4,208.99z"/>
			<path class="st1" d="M236.8,188.28l3.2,20.7c0,0-9.36,15.83-16.46,13.61c-5.96-1.86-4.78-13.96-4.78-13.96s3.25-12.15,2.27-18.23
				C220.07,184.31,236.8,188.28,236.8,188.28z"/>
			<path class="st6" d="M221.05,190.39c-0.97-6.08,15.76-2.11,15.76-2.11l0.27,1.78c-0.49,1.19-1.09,2.21-1.81,2.99
				c-3.74,4.02-9.58,6.44-14.63,6.62C221.13,196.4,221.45,192.89,221.05,190.39z"/>
			<g>
				<path class="st1" d="M239.55,157.89c0.47-0.17,3.79,24.46-2.51,31.24c-6.3,6.78-18.56,9-22.96,3.66
					c-4.87-5.9-4.62-32.38,5.17-39.36C229.04,146.46,239.55,157.89,239.55,157.89z"/>
				<path class="st4" d="M222.97,140.26c7.57,1.54,12.47,6.17,14.27,8.14c3.44,0.41,8.11,2.31,12.93,10.29
					c5.93,9.82,1.55,20.7-5.35,26.04c-6.9,5.34-6.77,11.57-6.77,11.57l-1.13-3.25c-0.81-2.42-1.13-4.98-0.86-7.51
					c0.16-1.52,0.49-3.17,1.12-4.52c1.66-3.57-3.57-5.93-5.03-8.9c-1.13-2.28-1.18-7.51-2.96-11.28l-2.12-2.88
					c0,0-4.9-3.81-9.69-2.74C212.58,156.29,213.27,138.28,222.97,140.26z"/>
				<path class="st1" d="M232.46,176.5c-0.05,3.01,1.32,5.47,3.05,5.5c1.73,0.03,3.18-2.38,3.23-5.39c0.05-3.01-1.32-5.47-3.05-5.5
					C233.96,171.09,232.51,173.5,232.46,176.5z"/>
			</g>
			<path class="st2" d="M289.33,255.74l-22.01,17.29c0,0-9.72-9.39-14.6-19.77c-4.94-10.51-0.61-41.18,4.65-39.76
				C269.14,216.69,289.33,255.74,289.33,255.74z"/>
		</g>
	</g>
	<g>
		<g>
			<path class="st3" d="M276.53,282.43c24.24,10.19,32.04-12.07,31.44-11.48c0.46-0.5,4.11-2.13,6.44-3.3
				c9.71-4.86,15.59-16.17,15.37-27.55c13.94-8.66,17.57-27.01,8.01-37.15c2.94-11.28-3.74-24.65-13.6-30.36
				c-7.47-13.29-28.06-8.27-38.22,2.16c-5.15,5.29-7.46,14.69-7.38,22.41c-11.95,5.05-18.2,18.5-15.48,32.07
				C246.98,242.78,251.79,272.04,276.53,282.43z"/>
			<g>
				<path class="st5" d="M365.1,354.98l4.14-1.07c-0.08-0.32-7.94-32.21-16.32-63.95c-4.92-18.65-9.06-33.61-12.3-44.45
					c-6.38-21.38-7.8-21.97-9.05-22.49l-1.62,4.04c-0.31-0.13-0.45-0.3-0.45-0.3c1.02,1.18,4.99,9.99,19.81,66.27
					C357.48,324.08,365.03,354.68,365.1,354.98z"/>
			</g>
			<g>
				<path class="st1" d="M225.22,354.06c0,0,1.86-1.49,2.44-2.03c0.68-0.64,2.57-2.7,2.57-2.7s6.26-7.49,5.67-7.91
					c-0.59-0.42-2.38,0.27-2.93,0.59c-0.55,0.33-1.22,0.65-1.77,0.98c-0.55,0.33-1.24,0.19-1.7-0.47c-0.45-0.65,1.45-2.43,2.23-2.91
					c2.43-1.51,9.73-4.22,10.49-4.54c0.9-0.38,9.37-15.38,12.68-20.29c0,0,0,0,0,0c5.18-8.2,10.09-16.88,10.64-17.75l11.14-40.03
					l16.21-1.61c0,0-11.75,44.6-12.59,46.76c-0.4,1.03-13.87,19.09-13.88,19.09c-7.19,8.47-13.55,15.92-14.73,17.39
					c0,0-2.36,5.34-3.66,8.82c-1.3,3.49-3.89,6.17-4.41,7.1c-0.08,0.14-1.68,3.41-4.98,6.43c-2.84,2.6-1.33-1.2-1.33-1.2
					s4.41-5.79,3.89-6.07c-0.4-0.21-2.62,3.09-5.73,6.01c-0.8,0.75-1.59,1.49-2.33,2.16c-1.93,1.76-3.55,1.05-1.83-1.12
					c0.61-0.77,1.65-2.01,2.52-2.8c0.94-0.84,1.53-1.93,2.21-2.76c1.35-1.65,2.36-2.84,2.26-2.86c-0.13-0.03-0.09-0.55-0.96,0.22
					c-1.05,0.92-2.86,3.39-4.51,4.63c-0.94,0.7-2.8,2.29-2.8,2.29s-3.31,2.23-3.48,2.08c-0.94-0.86,0.98-3.14,2.37-3.93
					c0.63-0.96,2.65-2.57,2.65-2.57s3.34-4.19,2.76-4.68c-0.48-0.41-10.4,8.05-11.28,7.12
					C222.35,356.74,225.22,354.06,225.22,354.06z"/>
				<path class="st1" d="M243.05,342.15c0,0-4.98,1.9-7.08-0.67c0,0,0.63,1.91,2.64,2.26C240.62,344.09,243.05,342.15,243.05,342.15
					z"/>
			</g>
			<path class="st1" d="M312.51,365.38l-9.18,84.93c0,0,4.49,17.96,3.95,23.06c-0.54,5.1-9.98,72.03-9.98,72.03l0.43,3.68
				l0.23,10.89l-35.3,0.27c0,0,7.44-3.45,17.85-10.26c0.77-0.5,2.54-2.11,2.97-5.31c2.78-20.63-2.72-89.44-2.72-89.44l-4.33-89.57
				L312.51,365.38z"/>
			<path class="st1" d="M332.59,381.47c1.98,0.52,5.03,73.41,6.67,76.64c10.39,20.48,12.86,82.75,12.86,82.75l4.29,8.72l-0.98,8.4
				c0,0-7.76,4.6-13.2,1.5l0.84-8.41l0.64-11.24l-26.22-77.58l-14.35-79.13L332.59,381.47z"/>
			<path class="st0" d="M265.41,420.98l-1.25-50.29c-0.22-14.21,4.36-27.85,9.98-40.79l11.9-20.71c3.83,1.26,5.94-10.47,9.97-10
				c3.04,0.35,5.12,1.08,7.94,1.25c5.32,0.33,8.54,11.07,14.24,10.4c0.03,0.34,3.56,1.7,3.65,1.94c2.72,7.6,9.67,15.73,13.38,38.3
				c4.21,25.62,4.19,69.65,3.67,72.65C298.63,425.56,289.03,427.01,265.41,420.98z"/>
			<path class="st3" d="M298.12,562.77h-36.44c-1.35-0.13-1.68-1.27-1.21-1.97c0.96-1.45,5.21-2.51,9.99-4.81
				c8.38,0.91,25.87-5.46,27.19-7.47C298.42,552.55,298.87,562.6,298.12,562.77z"/>
			<path class="st3" d="M356.39,549.55c0,0-3.24,9.51-6.74,9.24c-3.5-0.27-6.56-7.77-6.56-7.77s-1.31,6.31-0.7,9.79
				c0.61,3.48,5.6,7.04,9.01,5.49C354.81,564.73,359.45,556.69,356.39,549.55z"/>
			<path class="st4" d="M288.66,276.64c0,0-5.08-0.65-9.94-2.4c-2.92-1.05-7.77-3.36-7.77-3.36s2.73-23.69,9.59-38.04
				c2.84-5.93,5.71-8.79,9.71-9.48C290.28,223.36,288.66,276.64,288.66,276.64z"/>
			<path class="st4" d="M279.84,249.83c1.03-3.84,3.33-8.9,4.64-12.38c2.23-5.92,2.89-11.45,4.85-13.82
				c1.06-1.27,14.65-1.08,16.32-1.25c0.69-0.07,3.41,0.11,6.04,0.27l-0.01-0.01c1.54,0.18,16.86,1.41,19.08,2.4
				c11.03,11.06,16.37,25.95,24.67,42.22c0,0-6.21,3.65-11.17,5.96c-2.15,1-6.28,2.6-6.28,2.6l-9.56-16.47
				c-0.11-0.08-0.6-0.63-0.75-0.27c-0.22,0.55-7.2,51.87-7.2,51.87s-28.31,2.38-34.95-0.89c0,0-1.23-34.27-3.67-44.32
				C280.95,262.04,278.18,256.02,279.84,249.83z"/>
			<path class="st1" d="M313.55,206.89c0,0-2.12,11.95-1.7,16.67c0.42,4.71-1.62,19.91-10.79,19.96c-9.17,0.05-2.94-15.78-2.07-20.4
				c0.86-4.62,2.26-22.46,2.26-22.46L313.55,206.89z"/>
			<path class="st6" d="M300.71,207.46c0.14-3.91,0.55-6.8,0.55-6.8l12.29,6.23c0,0-0.43,2.44-0.87,5.56
				C307.3,213.63,303.04,211.09,300.71,207.46z"/>
			<path class="st1" d="M313.81,172.17c0,0,5.17,1.88,7.98,7.64c2.81,5.75,3.74,21.86-7.59,28.04c-11.33,6.19-18.81-5.22-18.1-15.45
				C296.8,182.18,299.94,168.79,313.81,172.17z"/>
			<path class="st11" d="M324.23,354.79v16.31c0,8.48,5.97,15.35,13.34,15.35h13.72v-38.02h-21.53c-1.47,0-2.81,0.67-3.8,1.75
				C324.89,351.34,324.23,352.97,324.23,354.79z"/>
			<path class="st5" d="M325.95,350.18h0.09c2.83,0,5.12,2.64,5.12,5.9v12c0,10.15,7.15,18.37,15.96,18.37h8.35
				c8.81,0,15.96-8.23,15.96-18.37v-11.94c0-4.26-3-7.71-6.7-7.71h-34.99C328.28,348.43,326.94,349.1,325.95,350.18z"/>
			<g>
				<path class="st5" d="M324.19,354.46l4.27-0.02c0-0.3-0.14-30.57,0.27-61.43c0.24-18.11,0.61-32.88,1.11-43.89
					c0.86-18.82,1.9-22.19,2.2-22.74c0.05-1.01-0.47-3.36-0.47-3.36c-0.76-0.32-1.62-0.22-2.31,0.25c-1.1,0.76-1.78,2.21-2.46,8.05
					c-0.42,3.61-0.79,8.74-1.12,15.24c-0.54,10.89-0.94,25.83-1.2,44.4C324.05,322.54,324.19,354.14,324.19,354.46z"/>
			</g>
			<path class="st1" d="M302.77,325.48c-0.55,0.12-4.3,0.34-4.3,0.34s-5.51-3.34-6.3-1.76c-0.24,0.47,5.71,3.86,5.71,3.86
				s5.75,0.19,7.13,0.15c2.56-0.06,7.95-0.79,15.96-6.75c6.93-3.54,41.75-23.85,42.26-27.71c0.3-2.29-5-14.21-10.13-25
				c-2.27,1.26-5.78,3.19-8.83,4.61c-1.44,0.66-3.76,1.6-5.13,2.15c3.33,6.42,6.48,13.04,6.07,14.41
				c-0.36,1.2-30.09,23.89-30.09,23.89l-5.94-0.81c0,0-10.48,1.24-10.72,2.5c-0.25,1.24,4.42,0.92,5.04,1.11
				c0.35,0.11,1.04,0.35,1.63,0.74c-1.72,0.82-4.45,2.14-5.98,2.2c-3.52,0.13-7.59-0.39-8.03,0.12c-0.51,0.59,4.83,2.21,8.6,2.44
				c1.54,0.08,2.48-0.39,3.15-0.26c0.91,0.19-0.69,0.93-3.26,0.77c-1.47-0.1-4.03-0.91-5.65-1.14c-2.66-0.38-4.15-0.17-4.37,0.06
				c-0.37,0.38,7.54,2.92,7.54,2.92s5.14,0.67,6.32,0.61C303.42,324.91,304.14,325.2,302.77,325.48z"/>
			<polygon class="st2" points="295.27,191.12 295.99,195.82 296.84,194.74 296.16,191.77 			"/>
			<polygon class="st2" points="321.73,199.54 319.38,202.74 319.71,203.5 322.81,200 			"/>
			<path class="st1" d="M293.9,188.93c0.71,2.57,2.4,4.3,3.77,3.87c1.37-0.43,1.91-2.85,1.19-5.42c-0.71-2.57-2.4-4.3-3.77-3.87
				C293.73,183.94,293.19,186.37,293.9,188.93z"/>
			<path class="st1" d="M320.79,194.02c-1,2.57-0.5,5.26,1.11,6.02c1.61,0.76,3.72-0.71,4.71-3.28c1-2.57,0.5-5.26-1.11-6.02
				C323.9,189.99,321.79,191.45,320.79,194.02z"/>
			<path class="st2" d="M298.47,188.34c0,0-1.57,5.36-2.55,6.99c0,0-0.24,5.54,1.45,7.95c1.7,2.42,3.71,5.63,7.1,6.22
				c3.4,0.59,6.08,0.39,8.75-0.91c2.68-1.31,4.03-2.3,5.1-3.4c0.38-0.39,1.37-1.7,1.37-1.7s0-8.75,1.63-11.3c0,0-11.3,2.94-16.14,0
				C300.37,189.25,298.47,188.34,298.47,188.34z"/>
			<polygon class="st2" points="297.31,183.86 299.54,190.25 298.56,190.64 296.55,183.98 			"/>
			<polygon class="st2" points="323.63,189.22 320.62,192.62 320.49,193.73 323.85,190.66 			"/>
		</g>
	</g>
</g>
<g>
	<circle class="st2" cx="234.64" cy="110.36" r="1.14"/>
	<path class="st2" d="M236.53,125.6c0,0.63-0.51,1.14-1.14,1.14c-0.63,0-1.14-0.51-1.14-1.14c0-0.63,0.51-1.14,1.14-1.14
		C236.02,124.46,236.53,124.97,236.53,125.6z"/>
	<path class="st2" d="M246.95,122.57c0,0.63-0.51,1.14-1.14,1.14c-0.63,0-1.14-0.51-1.14-1.14c0-0.63,0.51-1.14,1.14-1.14
		C246.44,121.43,246.95,121.94,246.95,122.57z"/>
	<path class="st2" d="M243.27,110.59c0,0.76-0.61,1.37-1.37,1.37c-0.76,0-1.37-0.61-1.37-1.37c0-0.76,0.61-1.37,1.37-1.37
		C242.66,109.22,243.27,109.83,243.27,110.59z"/>
	<path class="st2" d="M239.01,111.06c-0.06,0.43-0.45,0.73-0.88,0.67c-0.43-0.06-0.73-0.45-0.67-0.88c0.06-0.43,0.45-0.73,0.88-0.67
		C238.77,110.24,239.07,110.63,239.01,111.06z"/>
	<path class="st2" d="M246.59,118.4c0,0.43-0.35,0.78-0.78,0.78c-0.43,0-0.78-0.35-0.78-0.78c0-0.43,0.35-0.78,0.78-0.78
		C246.24,117.62,246.59,117.97,246.59,118.4z"/>
	<path class="st2" d="M232.2,121.92c0,0.43-0.35,0.78-0.78,0.78c-0.43,0-0.78-0.35-0.78-0.78c0-0.43,0.35-0.78,0.78-0.78
		C231.85,121.14,232.2,121.49,232.2,121.92z"/>
	<path class="st2" d="M232.07,115.54c0,0.97-0.79,1.76-1.76,1.76c-0.97,0-1.76-0.79-1.76-1.76c0-0.97,0.79-1.76,1.76-1.76
		C231.28,113.78,232.07,114.57,232.07,115.54z"/>
	<path class="st2" d="M242.65,126.35c0,0.97-0.79,1.76-1.76,1.76c-0.97,0-1.76-0.79-1.76-1.76c0-0.97,0.79-1.76,1.76-1.76
		C241.87,124.59,242.65,125.38,242.65,126.35z"/>
	<path class="st2" d="M248.84,114.46c0,0.97-0.79,1.76-1.76,1.76c-0.97,0-1.76-0.79-1.76-1.76c0-0.97,0.79-1.76,1.76-1.76
		C248.05,112.7,248.84,113.49,248.84,114.46z"/>
	<path class="st2" d="M246.9,114.21c-0.22,0.25-0.54,0.48-0.83,0.66c-0.44,0.26-0.92,0.46-1.41,0.61c-0.11,0.03-0.42,0.12-0.93,0.26
		c-0.56-1.04-1.46-1.89-2.54-2.39c0.01-0.09,0.02-0.18,0.03-0.28c0.03-0.22,0.06-0.43,0.1-0.64c0.11-0.58,0.39-1.33,0.81-1.71
		l-0.71-0.28c0.01,0.12,0,0.23-0.01,0.33c-0.01,0.11-0.03,0.21-0.06,0.32c-0.05,0.21-0.12,0.4-0.21,0.6
		c-0.09,0.19-0.19,0.38-0.3,0.56c-0.12,0.18-0.24,0.36-0.37,0.53c-0.06,0.08-0.12,0.16-0.18,0.25c-0.6-0.16-1.22-0.22-1.83-0.17
		c-0.06-0.57-0.1-1.35,0.05-1.9h-0.56c0.16,0.57,0.11,1.37,0.05,1.96c-0.53,0.08-1.04,0.24-1.51,0.47
		c-0.53-0.84-1.32-2.04-1.47-3.05l-0.69,0.32c0.68,0.77,1.1,2.16,1.41,3.16c-0.88,0.6-1.57,1.46-1.98,2.45
		c-1-0.19-2.02-0.41-2.89-0.97c-0.12-0.08-0.25-0.17-0.36-0.27l-0.39,1.04c0.16,0,0.31,0.01,0.45,0.03c1.04,0.15,1.98,0.68,2.88,1.2
		c-0.2,1.03-0.11,2.14,0.31,3.17c-0.59,0.43-1.11,0.8-1.75,1.03c-0.21,0.08-0.48,0.15-0.7,0.17l0.23,0.52
		c0.08-0.08,0.19-0.16,0.29-0.22c0.68-0.45,1.49-0.62,2.3-0.78c0.45,0.76,1.08,1.4,1.83,1.87c-0.1,0.55-0.28,1.66-0.85,2.22
		l0.7,0.29c-0.01-0.39,0.16-0.87,0.34-1.22c0.12-0.24,0.42-0.69,0.55-0.9c1.02,0.43,2.11,0.54,3.14,0.36
		c0.21,0.48,0.38,0.97,0.47,1.49c0.08,0.48,0.09,1.12-0.05,1.54l1.09-0.21c-0.29-0.34-0.51-0.93-0.62-1.41
		c-0.12-0.53-0.15-1.07-0.12-1.6c1.06-0.35,1.98-1.02,2.64-1.89c0.52,0.18,1.61,0.55,2.29,1.01l0.35-0.67
		c-0.69-0.26-1.55-0.86-2.08-1.24c0.35-0.72,0.56-1.52,0.57-2.37c0.43,0.01,1.02,0.08,1.41,0.26l0.05-0.56
		c-0.42,0.11-1.03,0.09-1.46,0.03c-0.02-0.59-0.14-1.16-0.33-1.69c0.43-0.26,0.71-0.42,0.82-0.48c0.69-0.39,1.68-0.78,2.47-0.75
		L246.9,114.21z"/>
</g>
<g>
	<path class="st2" d="M17.58,175.14c0,0.63-0.51,1.14-1.14,1.14c-0.63,0-1.14-0.51-1.14-1.14c0-0.63,0.51-1.14,1.14-1.14
		C17.07,174,17.58,174.51,17.58,175.14z"/>
	<path class="st2" d="M18.33,190.38c0,0.63-0.51,1.14-1.14,1.14c-0.63,0-1.14-0.51-1.14-1.14c0-0.63,0.51-1.14,1.14-1.14
		C17.82,189.24,18.33,189.75,18.33,190.38z"/>
	<circle class="st2" cx="27.61" cy="187.35" r="1.14"/>
	<path class="st2" d="M25.07,175.37c0,0.76-0.61,1.37-1.37,1.37c-0.76,0-1.37-0.61-1.37-1.37c0-0.76,0.61-1.37,1.37-1.37
		C24.46,174,25.07,174.62,25.07,175.37z"/>
	<path class="st2" d="M20.81,175.84c-0.06,0.43-0.45,0.73-0.88,0.67c-0.43-0.06-0.73-0.45-0.67-0.88c0.06-0.43,0.45-0.73,0.88-0.67
		C20.57,175.02,20.87,175.42,20.81,175.84z"/>
	<path class="st2" d="M28.39,183.19c0,0.43-0.35,0.78-0.78,0.78c-0.43,0-0.78-0.35-0.78-0.78c0-0.43,0.35-0.78,0.78-0.78
		C28.04,182.4,28.39,182.75,28.39,183.19z"/>
	<path class="st2" d="M14,186.7c0,0.43-0.35,0.78-0.78,0.78c-0.43,0-0.78-0.35-0.78-0.78c0-0.43,0.35-0.78,0.78-0.78
		C13.65,185.92,14,186.27,14,186.7z"/>
	<path class="st2" d="M13.87,180.32c0,0.97-0.79,1.76-1.76,1.76c-0.97,0-1.76-0.79-1.76-1.76c0-0.97,0.79-1.76,1.76-1.76
		C13.08,178.56,13.87,179.35,13.87,180.32z"/>
	<path class="st2" d="M24.45,191.13c0,0.97-0.79,1.76-1.76,1.76c-0.97,0-1.76-0.79-1.76-1.76c0-0.97,0.79-1.76,1.76-1.76
		C23.67,189.37,24.45,190.16,24.45,191.13z"/>
	<path class="st2" d="M30.64,179.25c0,0.97-0.79,1.76-1.76,1.76c-0.97,0-1.76-0.79-1.76-1.76c0-0.97,0.79-1.76,1.76-1.76
		C29.85,177.49,30.64,178.28,30.64,179.25z"/>
	<path class="st2" d="M28.7,179c-0.22,0.25-0.54,0.48-0.83,0.66c-0.44,0.26-0.92,0.46-1.41,0.61c-0.11,0.03-0.42,0.12-0.93,0.26
		c-0.56-1.04-1.45-1.89-2.54-2.39c0.01-0.09,0.02-0.18,0.03-0.28c0.03-0.22,0.06-0.43,0.1-0.64c0.11-0.58,0.39-1.33,0.82-1.71
		l-0.71-0.28c0.01,0.12,0,0.23-0.01,0.33c-0.01,0.11-0.03,0.21-0.06,0.32c-0.05,0.21-0.12,0.4-0.21,0.6
		c-0.09,0.19-0.19,0.38-0.3,0.56c-0.12,0.18-0.24,0.36-0.37,0.53c-0.06,0.08-0.12,0.16-0.18,0.24c-0.6-0.16-1.22-0.22-1.83-0.17
		c-0.06-0.57-0.1-1.35,0.05-1.9h-0.56c0.16,0.57,0.11,1.37,0.05,1.96c-0.53,0.08-1.04,0.24-1.51,0.47
		c-0.53-0.84-1.32-2.04-1.47-3.05l-0.69,0.32c0.68,0.77,1.1,2.16,1.41,3.16c-0.88,0.6-1.57,1.46-1.98,2.45
		c-1-0.19-2.02-0.41-2.89-0.97c-0.12-0.08-0.25-0.17-0.36-0.27l-0.39,1.04c0.16,0,0.31,0.01,0.45,0.03c1.04,0.15,1.98,0.68,2.88,1.2
		c-0.2,1.03-0.11,2.14,0.31,3.17c-0.59,0.43-1.11,0.8-1.75,1.03c-0.21,0.07-0.48,0.15-0.7,0.16l0.23,0.52
		c0.08-0.08,0.19-0.16,0.29-0.22c0.68-0.45,1.49-0.62,2.3-0.78c0.45,0.76,1.08,1.4,1.83,1.87c-0.1,0.55-0.28,1.66-0.85,2.22
		l0.7,0.29c-0.01-0.39,0.16-0.87,0.34-1.22c0.12-0.24,0.42-0.69,0.55-0.9c1.02,0.43,2.11,0.54,3.14,0.35
		c0.21,0.48,0.38,0.97,0.47,1.49c0.08,0.48,0.09,1.12-0.05,1.54l1.09-0.21c-0.29-0.34-0.51-0.93-0.62-1.41
		c-0.12-0.53-0.15-1.07-0.12-1.6c1.06-0.35,1.98-1.02,2.64-1.89c0.52,0.18,1.61,0.55,2.29,1.01l0.35-0.67
		c-0.69-0.26-1.55-0.86-2.08-1.24c0.35-0.72,0.56-1.52,0.57-2.37c0.43,0.01,1.02,0.08,1.41,0.26l0.05-0.56
		c-0.42,0.11-1.03,0.09-1.46,0.03c-0.02-0.59-0.14-1.16-0.33-1.69c0.43-0.27,0.71-0.42,0.82-0.48c0.69-0.39,1.68-0.78,2.47-0.75
		L28.7,179z"/>
</g>
<g>
	<path class="st5" d="M26.28,240.96c0,1.02-0.82,1.84-1.84,1.84c-1.02,0-1.84-0.82-1.84-1.84c0-1.02,0.82-1.84,1.84-1.84
		C25.45,239.12,26.28,239.95,26.28,240.96z"/>
	<path class="st5" d="M27.48,265.56c0,1.02-0.82,1.84-1.84,1.84c-1.02,0-1.84-0.82-1.84-1.84c0-1.02,0.82-1.84,1.84-1.84
		C26.66,263.72,27.48,264.54,27.48,265.56z"/>
	<path class="st5" d="M44.3,260.67c0,1.02-0.82,1.84-1.84,1.84c-1.02,0-1.84-0.82-1.84-1.84c0-1.02,0.82-1.84,1.84-1.84
		C43.48,258.83,44.3,259.65,44.3,260.67z"/>
	<path class="st5" d="M38.36,241.33c0,1.22-0.99,2.21-2.21,2.21c-1.22,0-2.21-0.99-2.21-2.21c0-1.22,0.99-2.21,2.21-2.21
		C37.38,239.13,38.36,240.11,38.36,241.33z"/>
	<path class="st5" d="M31.49,242.09c-0.09,0.69-0.73,1.17-1.42,1.08c-0.69-0.09-1.17-0.73-1.08-1.42c0.09-0.69,0.73-1.17,1.42-1.08
		C31.1,240.77,31.58,241.4,31.49,242.09z"/>
	<path class="st5" d="M43.72,253.94c0,0.7-0.56,1.26-1.26,1.26c-0.7,0-1.26-0.56-1.26-1.26c0-0.7,0.56-1.26,1.26-1.26
		C43.16,252.68,43.72,253.25,43.72,253.94z"/>
	<path class="st5" d="M20.5,259.62c0,0.7-0.56,1.26-1.26,1.26c-0.7,0-1.26-0.56-1.26-1.26c0-0.7,0.56-1.26,1.26-1.26
		C19.93,258.36,20.5,258.92,20.5,259.62z"/>
	<path class="st5" d="M20.29,249.32c0,1.57-1.27,2.84-2.84,2.84c-1.57,0-2.84-1.27-2.84-2.84c0-1.57,1.27-2.84,2.84-2.84
		C19.02,246.48,20.29,247.75,20.29,249.32z"/>
	<path class="st5" d="M37.37,266.77c0,1.57-1.27,2.84-2.84,2.84c-1.57,0-2.84-1.27-2.84-2.84c0-1.57,1.27-2.84,2.84-2.84
		C36.1,263.93,37.37,265.2,37.37,266.77z"/>
	<path class="st5" d="M47.35,247.59c0,1.57-1.27,2.84-2.84,2.84c-1.57,0-2.84-1.27-2.84-2.84c0-1.57,1.27-2.84,2.84-2.84
		C46.08,244.75,47.35,246.02,47.35,247.59z"/>
	<path class="st5" d="M44.21,247.18c-0.36,0.41-0.88,0.78-1.35,1.06c-0.71,0.42-1.49,0.75-2.28,0.98c-0.17,0.05-0.68,0.2-1.5,0.42
		c-0.91-1.69-2.35-3.04-4.09-3.85c0.02-0.15,0.03-0.3,0.05-0.45c0.04-0.35,0.1-0.69,0.16-1.03c0.18-0.94,0.63-2.14,1.32-2.76
		l-1.14-0.45c0.02,0.19,0,0.37-0.02,0.54c-0.02,0.17-0.05,0.34-0.09,0.51c-0.08,0.33-0.2,0.65-0.33,0.96
		c-0.14,0.31-0.3,0.61-0.49,0.9c-0.19,0.29-0.38,0.58-0.59,0.86c-0.1,0.13-0.19,0.26-0.29,0.4c-0.96-0.26-1.96-0.35-2.95-0.28
		c-0.09-0.93-0.16-2.17,0.09-3.07h-0.91c0.26,0.93,0.17,2.21,0.08,3.16c-0.86,0.13-1.68,0.39-2.44,0.75
		c-0.86-1.35-2.13-3.3-2.38-4.92l-1.11,0.52c1.09,1.24,1.77,3.49,2.27,5.1c-1.42,0.97-2.54,2.35-3.2,3.96
		c-1.62-0.31-3.27-0.66-4.66-1.57c-0.2-0.13-0.4-0.27-0.58-0.44l-0.63,1.67c0.25-0.01,0.49,0.02,0.73,0.05
		c1.68,0.24,3.2,1.1,4.65,1.94c-0.33,1.67-0.18,3.46,0.51,5.12c-0.96,0.7-1.79,1.29-2.83,1.67c-0.34,0.12-0.78,0.25-1.14,0.27
		l0.37,0.83c0.13-0.13,0.31-0.26,0.47-0.36c1.1-0.72,2.41-1,3.71-1.25c0.73,1.23,1.75,2.26,2.96,3.01
		c-0.16,0.88-0.45,2.68-1.37,3.58l1.14,0.46c-0.02-0.63,0.25-1.4,0.54-1.97c0.2-0.39,0.67-1.12,0.89-1.45
		c1.64,0.7,3.41,0.87,5.06,0.57c0.35,0.77,0.61,1.56,0.75,2.4c0.13,0.78,0.15,1.8-0.08,2.48l1.75-0.34c-0.47-0.55-0.82-1.5-1-2.27
		c-0.19-0.85-0.24-1.72-0.19-2.58c1.71-0.57,3.19-1.65,4.27-3.05c0.84,0.29,2.6,0.89,3.7,1.63l0.56-1.09
		c-1.11-0.42-2.51-1.39-3.36-2c0.57-1.16,0.9-2.46,0.92-3.83c0.69,0.02,1.65,0.14,2.28,0.42l0.07-0.91
		c-0.68,0.18-1.66,0.14-2.36,0.05c-0.04-0.95-0.22-1.87-0.53-2.72c0.7-0.43,1.14-0.68,1.32-0.78c1.12-0.64,2.72-1.26,3.99-1.2
		L44.21,247.18z"/>
</g>
<g>
	<path class="st5" d="M815.12,200.07c0,1.02-0.82,1.84-1.84,1.84c-1.02,0-1.84-0.82-1.84-1.84c0-1.02,0.82-1.84,1.84-1.84
		C814.3,198.23,815.12,199.05,815.12,200.07z"/>
	<path class="st5" d="M816.33,224.66c0,1.02-0.82,1.84-1.84,1.84c-1.02,0-1.84-0.82-1.84-1.84c0-1.02,0.82-1.84,1.84-1.84
		C815.5,222.82,816.33,223.65,816.33,224.66z"/>
	<path class="st5" d="M833.14,219.78c0,1.02-0.82,1.84-1.84,1.84c-1.02,0-1.84-0.82-1.84-1.84c0-1.02,0.82-1.84,1.84-1.84
		C832.32,217.94,833.14,218.76,833.14,219.78z"/>
	<path class="st5" d="M827.21,200.44c0,1.22-0.99,2.21-2.21,2.21c-1.22,0-2.21-0.99-2.21-2.21c0-1.22,0.99-2.21,2.21-2.21
		C826.22,198.23,827.21,199.22,827.21,200.44z"/>
	<path class="st5" d="M820.33,201.2c-0.09,0.69-0.73,1.17-1.42,1.08c-0.69-0.09-1.17-0.73-1.08-1.42c0.09-0.69,0.73-1.17,1.42-1.08
		C819.94,199.88,820.43,200.51,820.33,201.2z"/>
	<path class="st5" d="M832.57,213.05c0,0.7-0.57,1.26-1.26,1.26c-0.7,0-1.26-0.56-1.26-1.26c0-0.7,0.56-1.26,1.26-1.26
		C832,211.79,832.57,212.36,832.57,213.05z"/>
	<path class="st5" d="M809.34,218.73c0,0.7-0.56,1.26-1.26,1.26c-0.7,0-1.26-0.56-1.26-1.26c0-0.7,0.56-1.26,1.26-1.26
		C808.78,217.47,809.34,218.03,809.34,218.73z"/>
	<path class="st5" d="M809.13,208.43c0,1.57-1.27,2.84-2.84,2.84c-1.57,0-2.84-1.27-2.84-2.84c0-1.57,1.27-2.84,2.84-2.84
		C807.86,205.59,809.13,206.86,809.13,208.43z"/>
	<path class="st5" d="M826.21,225.87c0,1.57-1.27,2.84-2.84,2.84c-1.57,0-2.84-1.27-2.84-2.84c0-1.57,1.27-2.84,2.84-2.84
		C824.94,223.04,826.21,224.31,826.21,225.87z"/>
	<circle class="st5" cx="833.36" cy="206.69" r="2.84"/>
	<path class="st5" d="M833.06,206.29c-0.36,0.41-0.88,0.78-1.35,1.06c-0.71,0.42-1.49,0.75-2.28,0.98c-0.17,0.05-0.68,0.2-1.5,0.42
		c-0.91-1.69-2.35-3.04-4.09-3.85c0.02-0.15,0.03-0.3,0.05-0.45c0.04-0.35,0.1-0.69,0.16-1.03c0.18-0.94,0.63-2.14,1.32-2.76
		l-1.14-0.45c0.02,0.19,0,0.37-0.02,0.54c-0.02,0.17-0.05,0.34-0.09,0.51c-0.08,0.33-0.2,0.65-0.33,0.96
		c-0.14,0.31-0.3,0.61-0.49,0.9c-0.19,0.29-0.38,0.58-0.59,0.86c-0.1,0.13-0.19,0.26-0.29,0.4c-0.96-0.26-1.96-0.35-2.95-0.28
		c-0.09-0.93-0.16-2.17,0.09-3.07h-0.91c0.26,0.93,0.17,2.21,0.08,3.16c-0.86,0.13-1.68,0.39-2.44,0.75
		c-0.86-1.35-2.13-3.3-2.38-4.92l-1.11,0.52c1.09,1.24,1.77,3.49,2.27,5.1c-1.42,0.97-2.54,2.35-3.2,3.96
		c-1.62-0.31-3.27-0.66-4.66-1.57c-0.2-0.13-0.4-0.27-0.58-0.44l-0.63,1.67c0.25-0.01,0.49,0.02,0.73,0.05
		c1.68,0.24,3.2,1.1,4.65,1.94c-0.33,1.67-0.18,3.46,0.51,5.12c-0.96,0.7-1.79,1.29-2.83,1.67c-0.34,0.12-0.78,0.25-1.14,0.27
		l0.37,0.83c0.13-0.13,0.31-0.26,0.47-0.36c1.1-0.72,2.4-1,3.71-1.25c0.73,1.23,1.75,2.26,2.96,3.01c-0.16,0.88-0.45,2.68-1.37,3.58
		l1.14,0.46c-0.02-0.63,0.25-1.4,0.54-1.97c0.19-0.39,0.67-1.12,0.89-1.45c1.64,0.7,3.41,0.87,5.06,0.57
		c0.35,0.77,0.61,1.56,0.75,2.4c0.13,0.78,0.15,1.8-0.08,2.48l1.75-0.34c-0.47-0.55-0.82-1.5-1-2.27c-0.19-0.85-0.23-1.72-0.19-2.58
		c1.71-0.57,3.19-1.65,4.27-3.05c0.84,0.29,2.6,0.89,3.7,1.63l0.56-1.09c-1.11-0.42-2.51-1.39-3.36-2c0.57-1.16,0.9-2.46,0.92-3.83
		c0.69,0.02,1.65,0.14,2.28,0.42l0.07-0.91c-0.68,0.18-1.66,0.14-2.36,0.05c-0.04-0.95-0.22-1.87-0.53-2.72
		c0.7-0.43,1.14-0.68,1.32-0.78c1.12-0.64,2.72-1.26,3.99-1.2L833.06,206.29z"/>
</g>
<g>
	
		<ellipse transform="matrix(0.7071 -0.7071 0.7071 0.7071 66.4876 307.2786)" class="st5" cx="404.16" cy="73.38" rx="3.64" ry="3.64"/>
	<path class="st5" d="M410.2,122.06c0,2.01-1.63,3.64-3.64,3.64s-3.64-1.63-3.64-3.64c0-2.01,1.63-3.64,3.64-3.64
		S410.2,120.04,410.2,122.06z"/>
	<path class="st5" d="M443.48,112.38c0,2.01-1.63,3.64-3.64,3.64c-2.01,0-3.64-1.63-3.64-3.64s1.63-3.64,3.64-3.64
		C441.85,108.74,443.48,110.37,443.48,112.38z"/>
	<path class="st5" d="M431.73,74.11c0,2.41-1.96,4.37-4.37,4.37c-2.41,0-4.37-1.96-4.37-4.37c0-2.41,1.96-4.37,4.37-4.37
		C429.77,69.75,431.73,71.7,431.73,74.11z"/>
	<path class="st5" d="M418.13,75.62c-0.18,1.37-1.44,2.32-2.81,2.14c-1.37-0.18-2.32-1.44-2.14-2.81c0.18-1.37,1.44-2.32,2.81-2.14
		C417.35,73,418.31,74.25,418.13,75.62z"/>
	<path class="st5" d="M442.34,99.07c0,1.38-1.12,2.5-2.5,2.5c-1.38,0-2.5-1.12-2.5-2.5c0-1.38,1.12-2.5,2.5-2.5
		C441.22,96.58,442.34,97.7,442.34,99.07z"/>
	<path class="st5" d="M396.37,110.31c0,1.38-1.12,2.5-2.5,2.5c-1.38,0-2.5-1.12-2.5-2.5c0-1.38,1.12-2.5,2.5-2.5
		C395.25,107.81,396.37,108.93,396.37,110.31z"/>
	<path class="st5" d="M395.95,89.92c0,3.1-2.51,5.62-5.62,5.62c-3.1,0-5.62-2.51-5.62-5.62c0-3.1,2.51-5.62,5.62-5.62
		C393.44,84.31,395.95,86.82,395.95,89.92z"/>
	<path class="st5" d="M429.75,124.45c0,3.1-2.51,5.62-5.62,5.62c-3.1,0-5.62-2.51-5.62-5.62c0-3.1,2.51-5.62,5.62-5.62
		C427.24,118.83,429.75,121.35,429.75,124.45z"/>
	<path class="st5" d="M449.51,86.49c0,3.1-2.51,5.62-5.62,5.62c-3.1,0-5.62-2.51-5.62-5.62c0-3.1,2.51-5.62,5.62-5.62
		C447,80.87,449.51,83.39,449.51,86.49z"/>
	<path class="st5" d="M443.31,85.7c-0.71,0.81-1.74,1.55-2.67,2.11c-1.4,0.83-2.95,1.48-4.52,1.95c-0.34,0.1-1.34,0.4-2.97,0.83
		c-1.8-3.34-4.65-6.03-8.1-7.63c0.03-0.29,0.06-0.59,0.1-0.88c0.09-0.69,0.19-1.37,0.32-2.04c0.35-1.86,1.24-4.24,2.6-5.47
		l-2.26-0.89c0.03,0.37,0.01,0.72-0.03,1.07c-0.04,0.34-0.1,0.68-0.18,1.01c-0.16,0.66-0.39,1.29-0.66,1.9
		c-0.27,0.61-0.6,1.21-0.97,1.78c-0.37,0.57-0.76,1.14-1.17,1.7c-0.19,0.26-0.38,0.52-0.58,0.78c-1.91-0.51-3.89-0.7-5.84-0.56
		c-0.18-1.83-0.32-4.3,0.17-6.08l-1.8,0c0.51,1.83,0.34,4.37,0.15,6.25c-1.7,0.27-3.32,0.78-4.83,1.49
		c-1.7-2.67-4.22-6.52-4.71-9.73l-2.2,1.03c2.16,2.45,3.5,6.9,4.5,10.1c-2.8,1.93-5.02,4.65-6.33,7.84c-3.2-0.62-6.47-1.3-9.23-3.11
		c-0.4-0.26-0.79-0.54-1.15-0.88l-1.24,3.31c0.5-0.01,0.98,0.03,1.45,0.1c3.33,0.47,6.33,2.17,9.2,3.85c-0.65,3.3-0.36,6.85,1,10.13
		c-1.9,1.39-3.54,2.55-5.6,3.3c-0.67,0.24-1.54,0.49-2.25,0.53l0.72,1.65c0.27-0.26,0.62-0.51,0.93-0.72
		c2.17-1.43,4.76-1.98,7.35-2.48c1.45,2.42,3.46,4.47,5.85,5.96c-0.31,1.75-0.88,5.3-2.71,7.08l2.25,0.91
		c-0.04-1.24,0.5-2.77,1.08-3.89c0.39-0.77,1.33-2.22,1.76-2.86c3.25,1.39,6.75,1.72,10.02,1.13c0.68,1.52,1.22,3.09,1.49,4.75
		c0.25,1.55,0.3,3.56-0.15,4.91l3.47-0.67c-0.92-1.09-1.63-2.98-1.97-4.5c-0.38-1.69-0.46-3.41-0.38-5.11
		c3.39-1.13,6.32-3.26,8.44-6.04c1.65,0.57,5.15,1.76,7.32,3.23l1.12-2.15c-2.19-0.83-4.96-2.75-6.65-3.96
		c1.13-2.29,1.78-4.86,1.81-7.58c1.37,0.04,3.26,0.27,4.51,0.83l0.14-1.8c-1.35,0.36-3.29,0.27-4.67,0.09
		c-0.07-1.89-0.44-3.7-1.06-5.39c1.38-0.85,2.26-1.34,2.61-1.55c2.22-1.26,5.38-2.49,7.9-2.38L443.31,85.7z"/>
</g>
<g>
	<path class="st4" d="M139.87,111.49c1.09,1.09,1.09,2.86,0,3.94c-1.09,1.09-2.86,1.09-3.95,0c-1.09-1.09-1.09-2.86,0-3.94
		C137.01,110.4,138.78,110.4,139.87,111.49z"/>
	<path class="st4" d="M167.51,136.54c1.09,1.09,1.09,2.86,0,3.94c-1.09,1.09-2.86,1.09-3.94,0c-1.09-1.09-1.09-2.86,0-3.94
		C164.65,135.45,166.42,135.45,167.51,136.54z"/>
	<path class="st4" d="M180.29,113.29c1.09,1.09,1.09,2.86,0,3.94c-1.09,1.09-2.86,1.09-3.94,0c-1.09-1.09-1.09-2.86,0-3.94
		C177.43,112.2,179.2,112.2,180.29,113.29z"/>
	<path class="st4" d="M153.21,98.93c1.31,1.31,1.31,3.42,0,4.73c-1.31,1.31-3.42,1.31-4.73,0c-1.31-1.31-1.31-3.42,0-4.73
		C149.79,97.63,151.91,97.63,153.21,98.93z"/>
	<path class="st4" d="M146.67,107.11c0.64,0.84,0.48,2.04-0.36,2.68c-0.84,0.64-2.04,0.48-2.68-0.36c-0.64-0.84-0.48-2.04,0.36-2.68
		C144.83,106.11,146.03,106.27,146.67,107.11z"/>
	<path class="st4" d="M172.47,106.7c0.75,0.75,0.75,1.96,0,2.7c-0.75,0.75-1.96,0.75-2.7,0c-0.75-0.75-0.75-1.96,0-2.7
		C170.51,105.95,171.72,105.95,172.47,106.7z"/>
	<path class="st4" d="M153.67,137.66c0.75,0.75,0.75,1.96,0,2.7c-0.75,0.75-1.96,0.75-2.7,0c-0.75-0.75-0.75-1.96,0-2.7
		C151.71,136.92,152.92,136.92,153.67,137.66z"/>
	<path class="st4" d="M142.41,126.86c1.68,1.68,1.68,4.4,0,6.08c-1.68,1.68-4.4,1.68-6.08,0c-1.68-1.68-1.68-4.4,0-6.08
		C138,125.18,140.73,125.18,142.41,126.86z"/>
	<path class="st4" d="M179.39,127.25c1.68,1.68,1.68,4.4,0,6.08c-1.68,1.68-4.4,1.68-6.08,0c-1.68-1.68-1.68-4.4,0-6.08
		C174.99,125.57,177.71,125.57,179.39,127.25z"/>
	<path class="st4" d="M169.54,96c1.68,1.68,1.68,4.4,0,6.08c-1.68,1.68-4.4,1.68-6.08,0c-1.68-1.68-1.68-4.4,0-6.08
		C165.14,94.32,167.86,94.32,169.54,96z"/>
	<path class="st4" d="M165.75,98.93c0.05,0.82-0.1,1.78-0.3,2.58c-0.3,1.21-0.8,2.4-1.39,3.5c-0.13,0.24-0.51,0.94-1.16,2.06
		c-2.78-0.83-5.78-0.75-8.51,0.25c-0.14-0.18-0.28-0.35-0.42-0.53c-0.32-0.42-0.64-0.85-0.93-1.28c-0.82-1.2-1.62-2.97-1.55-4.37
		l-1.7,0.74c0.22,0.19,0.4,0.39,0.56,0.6c0.16,0.21,0.31,0.43,0.45,0.65c0.27,0.44,0.49,0.91,0.67,1.39
		c0.18,0.48,0.33,0.98,0.44,1.49c0.11,0.51,0.21,1.03,0.29,1.55c0.04,0.24,0.08,0.49,0.11,0.74c-1.31,0.76-2.48,1.73-3.46,2.86
		c-1.09-0.9-2.5-2.15-3.2-3.38l-0.98,0.98c1.27,0.72,2.55,2.18,3.46,3.3c-0.78,1.07-1.38,2.22-1.8,3.42
		c-2.37-0.53-5.81-1.25-7.82-2.72l-0.64,1.75c2.5,0.16,5.63,1.84,7.9,3.03c-0.47,2.56-0.2,5.24,0.82,7.67
		c-2.07,1.4-4.21,2.79-6.68,3.32c-0.36,0.07-0.72,0.14-1.1,0.15l1.12,2.46c0.26-0.28,0.55-0.51,0.84-0.73
		c2.06-1.55,4.6-2.25,7.06-2.9c1.43,2.13,3.51,3.9,6.03,4.94c-0.27,1.78-0.53,3.29-1.25,4.82c-0.23,0.49-0.57,1.1-0.93,1.5l1.29,0.5
		c0-0.28,0.06-0.61,0.11-0.89c0.4-1.95,1.51-3.65,2.64-5.32c2.09,0.53,4.29,0.55,6.4,0.06c0.78,1.11,2.39,3.35,2.36,5.3l1.71-0.72
		c-0.69-0.65-1.22-1.77-1.52-2.69c-0.21-0.63-0.48-1.92-0.6-2.5c2.51-1.01,4.58-2.73,6.04-4.81c1.19,0.45,2.33,1.02,3.38,1.77
		c0.97,0.7,2.09,1.77,2.58,2.74l1.52-2.24c-1.09-0.09-2.49-0.73-3.5-1.37c-1.12-0.71-2.1-1.59-2.98-2.56
		c1.22-2.45,1.66-5.18,1.3-7.84c1.2-0.59,3.74-1.84,5.71-2.21l-0.56-1.77c-1.63,0.74-4.17,1.19-5.74,1.45
		c-0.63-1.85-1.67-3.6-3.12-5.09c0.77-0.72,1.91-1.62,2.89-1.99l-0.89-1.05c-0.53,0.92-1.63,1.93-2.48,2.58
		c-1.06-0.98-2.24-1.77-3.49-2.35c0.29-1.21,0.5-1.95,0.58-2.25c0.52-1.88,1.56-4.26,2.98-5.56L165.75,98.93z"/>
</g>
<g>
	<path class="st4" d="M546.32,88.69c0,1.3-1.05,2.35-2.35,2.35s-2.35-1.05-2.35-2.35c0-1.3,1.05-2.35,2.35-2.35
		S546.32,87.4,546.32,88.69z"/>
	<path class="st4" d="M547.86,120.05c0,1.3-1.05,2.35-2.35,2.35c-1.3,0-2.35-1.05-2.35-2.35c0-1.3,1.05-2.35,2.35-2.35
		C546.81,117.71,547.86,118.76,547.86,120.05z"/>
	<path class="st4" d="M569.3,113.82c0,1.3-1.05,2.35-2.35,2.35c-1.3,0-2.35-1.05-2.35-2.35c0-1.3,1.05-2.35,2.35-2.35
		C568.25,111.47,569.3,112.53,569.3,113.82z"/>
	<path class="st4" d="M561.73,89.17c0,1.55-1.26,2.81-2.81,2.81c-1.55,0-2.81-1.26-2.81-2.81c0-1.55,1.26-2.81,2.81-2.81
		C560.47,86.35,561.73,87.61,561.73,89.17z"/>
	<path class="st4" d="M552.97,90.14c-0.12,0.88-0.93,1.5-1.81,1.38c-0.88-0.12-1.5-0.93-1.38-1.81c0.12-0.88,0.93-1.5,1.81-1.38
		C552.47,88.45,553.09,89.25,552.97,90.14z"/>
	<path class="st4" d="M568.57,105.25c0,0.89-0.72,1.61-1.61,1.61s-1.61-0.72-1.61-1.61c0-0.89,0.72-1.61,1.61-1.61
		S568.57,104.36,568.57,105.25z"/>
	<path class="st4" d="M538.95,112.48c0,0.89-0.72,1.61-1.61,1.61c-0.89,0-1.61-0.72-1.61-1.61c0-0.89,0.72-1.61,1.61-1.61
		C538.23,110.88,538.95,111.6,538.95,112.48z"/>
	<path class="st4" d="M538.68,99.35c0,2-1.62,3.62-3.62,3.62c-2,0-3.62-1.62-3.62-3.62s1.62-3.62,3.62-3.62
		C537.06,95.73,538.68,97.35,538.68,99.35z"/>
	<path class="st4" d="M560.46,121.6c0,2-1.62,3.62-3.62,3.62c-2,0-3.62-1.62-3.62-3.62c0-2,1.62-3.62,3.62-3.62
		C558.84,117.98,560.46,119.6,560.46,121.6z"/>
	<path class="st4" d="M573.19,97.14c0,2-1.62,3.62-3.62,3.62s-3.62-1.62-3.62-3.62c0-2,1.62-3.62,3.62-3.62
		S573.19,95.14,573.19,97.14z"/>
	<path class="st4" d="M569.19,96.63c-0.46,0.52-1.12,1-1.72,1.36c-0.9,0.54-1.9,0.95-2.91,1.25c-0.22,0.06-0.87,0.26-1.91,0.53
		c-1.16-2.15-2.99-3.88-5.22-4.91c0.02-0.19,0.04-0.38,0.07-0.57c0.06-0.44,0.12-0.88,0.2-1.31c0.23-1.2,0.8-2.73,1.68-3.52
		l-1.45-0.58c0.02,0.24,0.01,0.47-0.02,0.69c-0.03,0.22-0.07,0.44-0.12,0.65c-0.1,0.42-0.25,0.83-0.43,1.23
		c-0.18,0.39-0.39,0.78-0.62,1.15c-0.24,0.37-0.49,0.74-0.75,1.1c-0.12,0.17-0.25,0.34-0.38,0.5c-1.23-0.33-2.5-0.45-3.76-0.36
		c-0.12-1.18-0.21-2.77,0.11-3.92h-1.16c0.33,1.18,0.22,2.82,0.1,4.02c-1.1,0.17-2.14,0.5-3.11,0.96c-1.1-1.72-2.72-4.2-3.03-6.27
		l-1.42,0.66c1.39,1.58,2.25,4.45,2.9,6.5c-1.81,1.24-3.24,3-4.08,5.05c-2.06-0.4-4.17-0.84-5.95-2c-0.26-0.17-0.51-0.35-0.74-0.57
		l-0.8,2.13c0.32-0.01,0.63,0.02,0.93,0.06c2.15,0.3,4.08,1.4,5.93,2.48c-0.42,2.12-0.23,4.41,0.64,6.53
		c-1.22,0.89-2.28,1.64-3.61,2.12c-0.43,0.15-0.99,0.31-1.45,0.34l0.46,1.06c0.17-0.17,0.4-0.33,0.6-0.46
		c1.4-0.92,3.07-1.28,4.73-1.6c0.93,1.56,2.23,2.88,3.77,3.84c-0.2,1.13-0.57,3.42-1.75,4.56l1.45,0.59
		c-0.02-0.8,0.32-1.78,0.69-2.51c0.25-0.5,0.86-1.43,1.14-1.85c2.09,0.89,4.35,1.11,6.45,0.73c0.44,0.98,0.78,1.99,0.96,3.06
		c0.16,1,0.19,2.3-0.1,3.16l2.24-0.43c-0.59-0.7-1.05-1.92-1.27-2.9c-0.24-1.09-0.3-2.19-0.25-3.29c2.18-0.73,4.07-2.1,5.44-3.89
		c1.07,0.37,3.32,1.14,4.72,2.08l0.72-1.39c-1.41-0.53-3.2-1.77-4.28-2.55c0.73-1.48,1.15-3.13,1.17-4.88
		c0.88,0.03,2.1,0.17,2.91,0.54l0.09-1.16c-0.87,0.23-2.12,0.18-3.01,0.06c-0.05-1.22-0.28-2.38-0.68-3.47
		c0.89-0.55,1.45-0.86,1.68-1c1.43-0.81,3.46-1.6,5.09-1.54L569.19,96.63z"/>
</g>
<g>
	<path class="st2" d="M637.08,121.72c0,0.63-0.51,1.14-1.14,1.14c-0.63,0-1.14-0.51-1.14-1.14c0-0.63,0.51-1.14,1.14-1.14
		C636.57,120.58,637.08,121.09,637.08,121.72z"/>
	<path class="st2" d="M637.83,136.96c0,0.63-0.51,1.14-1.14,1.14c-0.63,0-1.14-0.51-1.14-1.14c0-0.63,0.51-1.14,1.14-1.14
		C637.32,135.82,637.83,136.33,637.83,136.96z"/>
	<path class="st2" d="M648.25,133.93c0,0.63-0.51,1.14-1.14,1.14c-0.63,0-1.14-0.51-1.14-1.14c0-0.63,0.51-1.14,1.14-1.14
		C647.74,132.79,648.25,133.3,648.25,133.93z"/>
	<path class="st2" d="M644.57,121.95c0,0.76-0.61,1.37-1.37,1.37c-0.76,0-1.37-0.61-1.37-1.37c0-0.76,0.61-1.37,1.37-1.37
		C643.96,120.58,644.57,121.2,644.57,121.95z"/>
	<path class="st2" d="M640.31,122.42c-0.06,0.43-0.45,0.73-0.88,0.67c-0.43-0.06-0.73-0.45-0.67-0.88c0.06-0.43,0.45-0.73,0.88-0.67
		C640.07,121.6,640.37,122,640.31,122.42z"/>
	<path class="st2" d="M647.89,129.77c0,0.43-0.35,0.78-0.78,0.78c-0.43,0-0.78-0.35-0.78-0.78c0-0.43,0.35-0.78,0.78-0.78
		C647.54,128.99,647.89,129.34,647.89,129.77z"/>
	<path class="st2" d="M633.5,133.28c0,0.43-0.35,0.78-0.78,0.78c-0.43,0-0.78-0.35-0.78-0.78c0-0.43,0.35-0.78,0.78-0.78
		C633.15,132.5,633.5,132.85,633.5,133.28z"/>
	<path class="st2" d="M633.37,126.9c0,0.97-0.79,1.76-1.76,1.76c-0.97,0-1.76-0.79-1.76-1.76c0-0.97,0.79-1.76,1.76-1.76
		C632.58,125.14,633.37,125.93,633.37,126.9z"/>
	<path class="st2" d="M643.95,137.71c0,0.97-0.79,1.76-1.76,1.76c-0.97,0-1.76-0.79-1.76-1.76c0-0.97,0.79-1.76,1.76-1.76
		C643.16,135.95,643.95,136.74,643.95,137.71z"/>
	<path class="st2" d="M650.14,125.83c0,0.97-0.79,1.76-1.76,1.76c-0.97,0-1.76-0.79-1.76-1.76c0-0.97,0.79-1.76,1.76-1.76
		C649.35,124.07,650.14,124.86,650.14,125.83z"/>
	<path class="st2" d="M648.19,125.58c-0.22,0.25-0.54,0.48-0.83,0.66c-0.44,0.26-0.92,0.46-1.41,0.61
		c-0.11,0.03-0.42,0.12-0.93,0.26c-0.56-1.04-1.45-1.89-2.54-2.39c0.01-0.09,0.02-0.18,0.03-0.28c0.03-0.22,0.06-0.43,0.1-0.64
		c0.11-0.58,0.39-1.33,0.82-1.71l-0.71-0.28c0.01,0.12,0,0.23-0.01,0.33c-0.01,0.11-0.03,0.21-0.06,0.32
		c-0.05,0.21-0.12,0.4-0.21,0.6c-0.09,0.19-0.19,0.38-0.3,0.56c-0.12,0.18-0.24,0.36-0.37,0.53c-0.06,0.08-0.12,0.16-0.18,0.25
		c-0.6-0.16-1.22-0.22-1.83-0.17c-0.06-0.57-0.1-1.35,0.05-1.9h-0.56c0.16,0.57,0.11,1.37,0.05,1.96c-0.53,0.08-1.04,0.24-1.51,0.47
		c-0.53-0.84-1.32-2.04-1.47-3.05l-0.69,0.32c0.68,0.77,1.1,2.16,1.41,3.16c-0.88,0.6-1.57,1.46-1.98,2.45
		c-1-0.19-2.02-0.41-2.89-0.97c-0.12-0.08-0.25-0.17-0.36-0.27l-0.39,1.04c0.16,0,0.31,0.01,0.45,0.03c1.04,0.15,1.98,0.68,2.88,1.2
		c-0.2,1.03-0.11,2.14,0.31,3.17c-0.59,0.43-1.11,0.8-1.75,1.03c-0.21,0.07-0.48,0.15-0.7,0.16l0.23,0.52
		c0.08-0.08,0.19-0.16,0.29-0.22c0.68-0.45,1.49-0.62,2.3-0.78c0.45,0.76,1.08,1.4,1.83,1.87c-0.1,0.55-0.28,1.66-0.85,2.22
		l0.7,0.29c-0.01-0.39,0.16-0.87,0.34-1.22c0.12-0.24,0.42-0.69,0.55-0.9c1.02,0.43,2.11,0.54,3.14,0.36
		c0.21,0.48,0.38,0.97,0.47,1.49c0.08,0.48,0.09,1.12-0.05,1.54l1.09-0.21c-0.29-0.34-0.51-0.93-0.62-1.41
		c-0.12-0.53-0.15-1.07-0.12-1.6c1.06-0.35,1.98-1.02,2.64-1.89c0.52,0.18,1.61,0.55,2.29,1.01l0.35-0.67
		c-0.69-0.26-1.55-0.86-2.08-1.24c0.35-0.72,0.56-1.52,0.57-2.37c0.43,0.01,1.02,0.08,1.41,0.26l0.04-0.56
		c-0.42,0.11-1.03,0.09-1.46,0.03c-0.02-0.59-0.14-1.16-0.33-1.69c0.43-0.26,0.71-0.42,0.82-0.48c0.69-0.39,1.68-0.78,2.47-0.75
		L648.19,125.58z"/>
</g>
<g>
	<path class="st8" d="M61.61,111.4c0,2.07-1.68,3.75-3.75,3.75c-2.07,0-3.75-1.68-3.75-3.75c0-2.07,1.68-3.75,3.75-3.75
		C59.94,107.65,61.61,109.33,61.61,111.4z"/>
	<path class="st8" d="M64.08,161.51c0,2.07-1.68,3.75-3.75,3.75c-2.07,0-3.75-1.68-3.75-3.75c0-2.07,1.68-3.75,3.75-3.75
		C62.4,157.76,64.08,159.43,64.08,161.51z"/>
	<path class="st8" d="M98.34,151.55c0,2.07-1.68,3.75-3.75,3.75c-2.07,0-3.75-1.68-3.75-3.75c0-2.07,1.68-3.75,3.75-3.75
		C96.66,147.8,98.34,149.48,98.34,151.55z"/>
	<path class="st8" d="M86.24,112.15c0,2.48-2.01,4.5-4.5,4.5c-2.48,0-4.5-2.01-4.5-4.5c0-2.48,2.01-4.5,4.5-4.5
		C84.23,107.65,86.24,109.67,86.24,112.15z"/>
	<path class="st8" d="M72.24,113.7c-0.19,1.41-1.48,2.39-2.89,2.2c-1.41-0.19-2.39-1.48-2.2-2.89c0.19-1.41,1.48-2.39,2.89-2.2
		C71.44,111,72.43,112.29,72.24,113.7z"/>
	<path class="st8" d="M97.17,137.85c0,1.42-1.15,2.57-2.57,2.57c-1.42,0-2.57-1.15-2.57-2.57c0-1.42,1.15-2.57,2.57-2.57
		C96.01,135.28,97.17,136.43,97.17,137.85z"/>
	<path class="st8" d="M49.84,149.41c0,1.42-1.15,2.57-2.57,2.57c-1.42,0-2.57-1.15-2.57-2.57c0-1.42,1.15-2.57,2.57-2.57
		C48.69,146.84,49.84,147.99,49.84,149.41z"/>
	<path class="st8" d="M49.41,128.43c0,3.19-2.59,5.78-5.78,5.78c-3.19,0-5.78-2.59-5.78-5.78c0-3.19,2.59-5.78,5.78-5.78
		C46.82,122.64,49.41,125.23,49.41,128.43z"/>
	<path class="st8" d="M84.21,163.97c0,3.19-2.59,5.78-5.78,5.78c-3.19,0-5.78-2.59-5.78-5.78c0-3.19,2.59-5.78,5.78-5.78
		C81.62,158.19,84.21,160.78,84.21,163.97z"/>
	<path class="st8" d="M104.55,124.89c0,3.19-2.59,5.78-5.78,5.78c-3.19,0-5.78-2.59-5.78-5.78c0-3.19,2.59-5.78,5.78-5.78
		C101.96,119.11,104.55,121.7,104.55,124.89z"/>
	<path class="st8" d="M98.16,124.08c-0.73,0.83-1.79,1.59-2.75,2.17c-1.44,0.86-3.04,1.53-4.65,2c-0.35,0.1-1.38,0.41-3.06,0.85
		c-1.85-3.43-4.78-6.2-8.34-7.85c0.03-0.3,0.07-0.61,0.1-0.91c0.09-0.71,0.2-1.41,0.32-2.1c0.36-1.92,1.28-4.37,2.68-5.63
		l-2.32-0.92c0.03,0.38,0.01,0.75-0.03,1.1c-0.04,0.35-0.11,0.7-0.19,1.04c-0.17,0.68-0.4,1.33-0.68,1.96
		c-0.28,0.63-0.62,1.24-0.99,1.84c-0.38,0.59-0.78,1.18-1.2,1.75c-0.2,0.27-0.4,0.54-0.6,0.81c-1.97-0.53-4-0.72-6.02-0.57
		c-0.19-1.89-0.33-4.43,0.18-6.26h-1.86c0.52,1.89,0.35,4.5,0.16,6.43c-1.75,0.27-3.42,0.8-4.97,1.54
		c-1.75-2.75-4.34-6.71-4.84-10.02l-2.26,1.06c2.22,2.53,3.6,7.1,4.63,10.39c-2.89,1.99-5.17,4.79-6.52,8.07
		c-3.3-0.64-6.66-1.34-9.5-3.2c-0.41-0.27-0.81-0.55-1.19-0.9l-1.28,3.41c0.51-0.01,1.01,0.03,1.49,0.1
		c3.43,0.48,6.52,2.23,9.47,3.96c-0.66,3.39-0.37,7.05,1.03,10.43c-1.95,1.43-3.64,2.62-5.77,3.4c-0.69,0.25-1.59,0.5-2.31,0.54
		l0.74,1.7c0.27-0.27,0.63-0.53,0.95-0.74c2.24-1.48,4.9-2.04,7.56-2.55c1.49,2.5,3.56,4.6,6.02,6.14c-0.32,1.8-0.91,5.46-2.79,7.29
		l2.32,0.94c-0.04-1.28,0.52-2.85,1.11-4.01c0.4-0.79,1.37-2.28,1.82-2.95c3.34,1.43,6.95,1.77,10.31,1.17
		c0.7,1.56,1.25,3.18,1.53,4.89c0.26,1.59,0.31,3.67-0.16,5.06l3.57-0.69c-0.95-1.12-1.68-3.06-2.03-4.63
		c-0.39-1.74-0.48-3.51-0.4-5.26c3.49-1.16,6.51-3.35,8.69-6.21c1.7,0.59,5.3,1.81,7.54,3.33l1.15-2.22
		c-2.26-0.85-5.1-2.83-6.84-4.08c1.16-2.36,1.83-5.01,1.87-7.81c1.41,0.04,3.35,0.28,4.65,0.86l0.15-1.85
		c-1.39,0.37-3.39,0.28-4.81,0.09c-0.07-1.94-0.45-3.81-1.09-5.55c1.43-0.87,2.32-1.38,2.69-1.59c2.28-1.3,5.53-2.56,8.13-2.45
		L98.16,124.08z"/>
</g>
<g>
	<path class="st0" d="M289.36,77.92c-17.97,0-32.54,14.57-32.54,32.54c0,7.29,2.4,14.02,6.45,19.45l-4.76,9.29l13.28-1.34
		c5.07,3.26,11.1,5.15,17.57,5.15c17.97,0,32.54-14.57,32.54-32.54S307.34,77.92,289.36,77.92z"/>
	<g>
		<path class="st2" d="M271.2,118.63c0.78,0.5,2.6,1.29,4.52,1.29c3.54,0,4.64-2.26,4.61-3.95c-0.03-2.85-2.6-4.08-5.27-4.08h-1.54
			v-2.07h1.54c2.01,0,4.55-1.04,4.55-3.45c0-1.63-1.04-3.07-3.58-3.07c-1.63,0-3.2,0.72-4.08,1.35l-0.72-2.01
			c1.07-0.78,3.14-1.57,5.33-1.57c4.01,0,5.83,2.38,5.83,4.86c0,2.1-1.25,3.89-3.76,4.8v0.06c2.51,0.5,4.55,2.38,4.55,5.24
			c0,3.26-2.54,6.12-7.43,6.12c-2.29,0-4.3-0.72-5.3-1.38L271.2,118.63z"/>
		<path class="st2" d="M286.38,116.62c0-2.57,1.54-4.39,4.05-5.46l-0.03-0.09c-2.26-1.07-3.23-2.82-3.23-4.58
			c0-3.23,2.73-5.43,6.3-5.43c3.95,0,5.93,2.48,5.93,5.02c0,1.72-0.85,3.58-3.36,4.77v0.09c2.54,1,4.11,2.79,4.11,5.27
			c0,3.54-3.04,5.93-6.93,5.93C288.95,122.14,286.38,119.6,286.38,116.62z M297.36,116.49c0-2.48-1.73-3.67-4.49-4.45
			c-2.38,0.69-3.67,2.26-3.67,4.2c-0.09,2.07,1.47,3.89,4.08,3.89C295.76,120.13,297.36,118.59,297.36,116.49z M289.77,106.3
			c0,2.04,1.54,3.14,3.89,3.76c1.76-0.6,3.11-1.85,3.11-3.7c0-1.63-0.97-3.32-3.45-3.32C291.02,103.04,289.77,104.54,289.77,106.3z"
			/>
		<path class="st2" d="M315.7,104.35c-0.03,3.61-2.6,5.24-5.02,5.24c-2.79,0-4.99-2.01-4.99-5.08c0-3.26,2.35-5.27,5.05-5.27
			C313.79,99.24,315.7,101.41,315.7,104.35z M307.8,104.45c0,2.07,1.35,3.57,2.92,3.57c1.66,0,2.89-1.44,2.89-3.61
			c0-1.57-0.85-3.61-2.92-3.61C308.68,100.81,307.8,102.75,307.8,104.45z"/>
	</g>
</g>
<g>
	<path class="st0" d="M785.43,114.06c14.71,0,26.63,11.92,26.63,26.63c0,5.97-1.96,11.47-5.28,15.91l3.89,7.6l-10.87-1.1
		c-4.15,2.67-9.08,4.21-14.38,4.21c-14.71,0-26.63-11.92-26.63-26.63S770.72,114.06,785.43,114.06z"/>
	<g>
		<path class="st2" d="M767.04,146.98c0.64,0.41,2.13,1.05,3.7,1.05c2.9,0,3.8-1.85,3.77-3.23c-0.03-2.34-2.13-3.34-4.31-3.34h-1.26
			v-1.69h1.26c1.64,0,3.72-0.85,3.72-2.82c0-1.33-0.85-2.51-2.93-2.51c-1.33,0-2.62,0.59-3.34,1.1l-0.59-1.64
			c0.87-0.64,2.57-1.28,4.36-1.28c3.29,0,4.77,1.95,4.77,3.98c0,1.72-1.03,3.18-3.08,3.93v0.05c2.05,0.41,3.72,1.95,3.72,4.29
			c0,2.67-2.08,5-6.08,5c-1.87,0-3.52-0.59-4.34-1.13L767.04,146.98z"/>
		<path class="st2" d="M779.46,145.34c0-2.1,1.26-3.59,3.31-4.47l-0.02-0.08c-1.85-0.87-2.64-2.31-2.64-3.75
			c0-2.64,2.23-4.44,5.16-4.44c3.23,0,4.85,2.03,4.85,4.11c0,1.41-0.69,2.93-2.75,3.9v0.08c2.08,0.82,3.36,2.28,3.36,4.31
			c0,2.9-2.49,4.85-5.67,4.85C781.57,149.85,779.46,147.77,779.46,145.34z M788.44,145.23c0-2.03-1.41-3-3.67-3.64
			c-1.95,0.57-3,1.85-3,3.44c-0.08,1.69,1.21,3.18,3.34,3.18C787.13,148.21,788.44,146.95,788.44,145.23z M782.23,136.89
			c0,1.67,1.26,2.57,3.18,3.08c1.44-0.49,2.54-1.51,2.54-3.03c0-1.33-0.8-2.72-2.82-2.72C783.26,134.22,782.23,135.45,782.23,136.89
			z"/>
		<path class="st2" d="M803.46,135.3c-0.03,2.95-2.13,4.29-4.11,4.29c-2.28,0-4.08-1.64-4.08-4.16c0-2.67,1.93-4.31,4.13-4.31
			C801.89,131.12,803.46,132.89,803.46,135.3z M796.99,135.38c0,1.69,1.1,2.93,2.39,2.93c1.36,0,2.36-1.18,2.36-2.95
			c0-1.28-0.69-2.95-2.39-2.95C797.71,132.4,796.99,133.99,796.99,135.38z"/>
	</g>
</g>
</svg>
