<?xml version="1.0" encoding="utf-8"?>
<!-- Generator: Adobe Illustrator 24.0.2, SVG Export Plug-In . SVG Version: 6.00 Build 0)  -->
<svg version="1.1" id="Capa_1" xmlns="http://www.w3.org/2000/svg" xmlns:xlink="http://www.w3.org/1999/xlink" x="0px" y="0px"
	 viewBox="0 0 841.89 595.28" style="enable-background:new 0 0 841.89 595.28;" xml:space="preserve">
<style type="text/css">
	.st0{fill:#E35B75;}
	.st1{fill:#472A6A;}
	.st2{fill:#F5B1C4;}
	.st3{fill:#F2F2F2;}
	.st4{fill:#222650;}
	.st5{fill:#EB95AE;}
	.st6{fill:#343434;}
	.st7{fill:#FFFFFF;}
	.st8{fill:#5D417C;}
	.st9{fill:#5EC2D6;}
	.st10{fill:#ED6C81;}
	.st11{fill:#F7BEBC;}
	.st12{fill:#DAEEF7;}
	.st13{opacity:0.2;fill:#F39794;}
	.st14{fill:#F39794;}
	.st15{fill:#9E85BD;}
	.st16{fill:#3EBBD0;}
	.st17{fill:#775EA5;}
	.st18{fill:#E1DDE8;}
</style>
<g>
	<path class="st0" d="M722.21,32.97c26.62-3.53,45.44,37.85,38.96,96.11c-6.49,58.26,20.13,74.33,20.13,74.33
		c-49.99,19.08-86.09-28.78-74.47-82.89c11.63-54.1,1.74-73.6,1.74-73.6C712.38,36.21,722.21,32.97,722.21,32.97z"/>
	<g>
		<path class="st1" d="M335.3,17.7c-25.77-2.17-38.75,15.61-37.74,35.23c1.01,19.62-20.54,20.15-6.53,56
			c14.01,35.85-33.16,35.74-14.77,67.56c18.39,31.82-21.65,49.79,21.09,71.95c42.74,22.16,106.92-0.66,101.31-37.98
			c-5.61-37.32,40.1-20.31,28.14-52.11s-27.94-30.82-16.95-56.6C433.91,45.26,387.01-8.81,335.3,17.7z"/>
		<g>
			<path class="st2" d="M126.6,507.44l-33.7-7.69l-15.94,76.58c0,0-0.01-0.01-0.01-0.01l-9.91,2.56l-3.98,1.03l-2.32,2.84
				c0,0,2.56,0.78,2.47,1.26c-0.09,0.48,4.11,2.28,8.11,3.29c4,1.01,3.69,1.06,10.16,3.11c6.47,2.06,5.7,0.3,6.89,0.16
				c0.78-0.09,1.93-2.18,2.63-3.62c0.06-0.01,0.12-0.02,0.18-0.03l1.92-5.65C93.07,581.27,126.6,507.44,126.6,507.44z"/>
			<path class="st3" d="M85.71,534.24l-8.76,42.08c0,0-0.01-0.01-0.01-0.01l-9.91,2.56l-3.98,1.03l-2.32,2.84
				c0,0,2.56,0.78,2.47,1.26c-0.09,0.48,4.11,2.28,8.11,3.29c4,1.01,3.69,1.06,10.16,3.11c6.47,2.06,5.7,0.3,6.89,0.16
				c0.78-0.09,1.93-2.18,2.63-3.62c0.06-0.01,0.12-0.02,0.18-0.03l1.92-5.65c-0.01,0,8.88-19.59,17.5-38.59
				C99.95,540.58,90.95,536.78,85.71,534.24z"/>
			<path class="st4" d="M73.25,585.94c-6.83-1.4-9.49-3.72-10.19-6.03l-5.43,1.4c-2.14,0.53-2.23,3.39-0.12,4.04l29.11,8.93
				c1.03,0.32,2.13-0.22,2.46-1.2l2.54-7.47C89.13,586.87,83.84,588.11,73.25,585.94z"/>
			<path class="st2" d="M143.59,500.97l34.56,2.52l-9.59,77.53c0,0,0.01-0.01,0.01-0.01l8.6,5.33l3.45,2.14l1.29,3.38
				c0,0-2.69,0-2.76,0.48c-0.07,0.48-4.65,0.97-8.79,0.76c-4.14-0.21-3.85-0.07-10.67,0c-6.83,0.07-5.52-1.38-6.61-1.86
				c-0.71-0.32-1.13-2.64-1.34-4.21c-0.05-0.03-0.11-0.06-0.16-0.08v-5.94C151.62,581.02,143.59,500.97,143.59,500.97z"/>
			<path class="st1" d="M83.97,333.15c3.37-8.33,6.65-5.03,12.73-15.1c0.97-1.6,1.66-3.67,2.15-5.58
				c1.46-5.71,7.41-13.01,12.09-16.85c14.26-11.7,28.74-6.37,28.74-6.37s-5.32,24.57-6.12,29.15c3.57,4.61,7.16,9.31,7.16,9.31
				s7.51,37.19-4.27,40.32c-11.78,3.14-13.92-1.9-19.68-4.52c-5.75-2.62-11.37,4.53-19.96-0.44c-6.57-3.8-3.23-13.29-6.7-15.07
				C86.63,346.23,80.33,342.14,83.97,333.15z"/>
			<path class="st1" d="M139.69,289.25c0,0,18.78-2.36,33.77,22.65c6.05,10.09,12.72,6.05,17.66,13.64
				c5.33,8.19-0.06,13.32-3.13,15.68c-3.06,2.36,2.06,11.09-3.65,15.99c-7.47,6.41-14.39,0.37-19.53,3.95
				c-5.14,3.59-6.27,8.91-18.46,7.91c-12.19-1.01-12.07-38.87-12.07-38.87s9.98-20.07,10.37-20.24
				C145.06,309.79,139.69,289.25,139.69,289.25z"/>
			<path class="st2" d="M16.78,332.61c0.1-0.67-7.28-6.82-6.43-7.04c0.84-0.22,8.38,4.66,8.61,4.17c0.23-0.49-6.98-6.33-6.1-7.2
				c0.87-0.88,8.55,5.77,8.95,4.8c0.4-0.96-7.65-7.58-6.72-8.26c0.78-0.57,9.97,6.62,12.88,8.93c0.37,0.3,0.95,0.07,1-0.39
				c0.86-7.1,1.36-7.6,2.16-7.33c0.53,0.18,2.85,8.23,4.47,14.09c27.84,28.06,75.54,47.59,75.54,47.59s17.17,39.78-7,31.33
				c-21.19-7.41-64.73-54.53-75.15-66.05l0,0l-4.18-3.8l-0.01,0c0-0.01-0.01-0.01-0.01-0.02c-1.35-0.86-2.57-1.52-2.57-1.52
				C9.2,331.96,9.49,331.67,9.79,331.16C10.09,330.65,16.67,333.28,16.78,332.61z"/>
			<path class="st2" d="M258.73,332.61c-0.1-0.67,7.28-6.82,6.43-7.04c-0.84-0.22-8.38,4.66-8.61,4.17c-0.23-0.49,6.98-6.33,6.1-7.2
				c-0.87-0.88-8.55,5.77-8.95,4.8c-0.4-0.96,7.65-7.58,6.72-8.26c-0.78-0.57-9.97,6.62-12.88,8.93c-0.37,0.3-0.95,0.07-1-0.39
				c-0.86-7.1-1.36-7.6-2.16-7.33c-0.53,0.18-2.85,8.23-4.47,14.09c-27.84,28.06-75.54,47.59-75.54,47.59s-17.17,39.78,7,31.33
				c21.19-7.41,64.73-54.53,75.15-66.05l0,0l4.18-3.8l0.01,0c0-0.01,0.01-0.01,0.01-0.02c1.35-0.86,2.57-1.52,2.57-1.52
				c13.02-9.96,12.73-10.25,12.43-10.76C265.42,330.65,258.84,333.28,258.73,332.61z"/>
			<g>
				<g>
					<path class="st3" d="M75.9,361.33l34.01,12.52l7.92,20.04c0,0,1.05,22.63-12.6,22.42c-13.65-0.2-39.79-28.22-39.79-28.22
						C66.32,376.23,75.9,361.33,75.9,361.33z"/>
					<path class="st3" d="M163.31,373.85l31.22-10.93c0,0,12.38,15.93,13.25,27.8c0,0-26.14,25.39-39.79,25.6
						c-13.65,0.2-12.6-22.42-12.6-22.42L163.31,373.85z"/>
				</g>
			</g>
			
				<rect x="125.94" y="361.33" transform="matrix(-1 -1.224647e-16 1.224647e-16 -1 271.6113 741.3956)" class="st2" width="19.72" height="18.74"/>
			<path class="st5" d="M125.94,372.56v-11.23h19.72v9.56C141.42,373.05,135.13,374.3,125.94,372.56z"/>
			<path class="st2" d="M97.82,327.88c1.92-0.9,4.14-0.74,6.16,0.23c-0.69-17.22,14.09-31.71,32.71-31.1
				c18.62-0.61,33.4,13.87,32.71,31.1c2.01-0.97,4.24-1.13,6.16-0.23c3.68,1.72,4.82,6.66,2.55,11.03
				c-2.27,4.37-7.09,6.51-10.76,4.79c-0.51-0.24-0.97-0.55-1.38-0.9c-2.11,14.24-14.61,24.91-29.28,24.71
				c-14.67,0.2-27.17-10.48-29.28-24.71c-0.41,0.35-0.87,0.66-1.38,0.9c-3.68,1.72-8.5-0.42-10.76-4.79
				C92.99,334.54,94.14,329.6,97.82,327.88z"/>
			<path class="st2" d="M163.23,373.85c0,0-32.08,20.08-53.31,0H163.23z"/>
			<path class="st6" d="M131.94,334.32c0.08,1.44-1.08,2.68-2.6,2.76c-1.52,0.08-2.82-1.03-2.9-2.47c-0.08-1.44,1.08-2.68,2.6-2.76
				C130.56,331.77,131.86,332.87,131.94,334.32z"/>
			<path class="st6" d="M155.64,334.56c0.08,1.44-1.08,2.68-2.6,2.76c-1.52,0.08-2.82-1.03-2.9-2.47c-0.08-1.44,1.08-2.68,2.6-2.76
				C154.26,332.01,155.56,333.12,155.64,334.56z"/>
			<path class="st1" d="M134.97,328.96c-1.38-0.45-2.69-0.81-3.99-1.03c-1.3-0.22-2.59-0.28-3.85-0.15
				c-1.25,0.14-2.51,0.39-3.71,0.9c-0.65,0.23-0.16,0.03-1.84,0.8c-0.62,0.29-1.19,0.67-1.88,0.96c0.37-0.59,0.79-1.17,1.27-1.7
				c0.54-0.47,1.03-1.02,1.69-1.38c1.22-0.85,2.74-1.32,4.27-1.48c1.54-0.15,3.1,0.07,4.49,0.61
				C132.79,327.05,134.06,327.85,134.97,328.96z"/>
			<path class="st1" d="M146.06,328.92c0.89-1.12,2.16-1.93,3.53-2.49c1.39-0.55,2.95-0.79,4.49-0.65c1.53,0.15,3.05,0.61,4.28,1.45
				c0.66,0.35,1.16,0.9,1.7,1.37c0.49,0.53,0.91,1.1,1.29,1.69c-0.69-0.29-1.26-0.66-1.89-0.95c-1.62-0.73-1.3-0.6-1.84-0.79
				c-1.21-0.51-2.47-0.74-3.72-0.87c-1.26-0.12-2.55-0.05-3.85,0.18C148.74,328.09,147.44,328.46,146.06,328.92z"/>
			<path class="st7" d="M152.23,348.31c-0.81,3.45-4.96,6.17-10.05,6.31c-5.09,0.15-9.41-2.32-10.44-5.72L152.23,348.31z"/>
			<path class="st5" d="M141.57,333.21c-0.14,1.37-0.04,2.75,0.24,4.11c0.14,0.68,0.33,1.36,0.61,2.03
				c0.29,0.67,0.65,1.34,1.29,1.92c0.65,0.5,1.03,0.65,1.26,1.18c0.22,0.43,0.12,0.97-0.11,1.49c-0.52,1.06-1.69,1.85-2.99,2.43
				c1.42-0.06,2.99-0.6,3.92-1.93c0.46-0.64,0.7-1.55,0.41-2.4c-0.29-0.86-0.8-1.16-1.56-1.74c-0.4-0.35-0.73-0.89-1.02-1.45
				c-0.31-0.56-0.52-1.18-0.76-1.8C142.39,335.81,142,334.52,141.57,333.21z"/>
			<path class="st3" d="M109.92,373.85c10.32,7.28,42.99,7.28,53.31,0c0,0,23.73,106.96,38.25,128.48c0,0-19.14,17.21-41.36,6.33
				c0,0-25.36,13.89-49.2-0.15c0,0-19.25,10.93-39.26-6.18C86.18,480.81,109.92,373.85,109.92,373.85z"/>
			<path class="st8" d="M173.13,415.32c-0.27-1.67-0.61-3.33-0.97-4.98c-0.34-1.65-0.74-3.3-1.13-4.94
				c-0.41-1.64-0.82-3.28-1.28-4.91l-0.69-2.44c-0.25-0.81-0.49-1.62-0.76-2.43c0.13,0.84,0.3,1.66,0.45,2.5l0.52,2.48
				c0.35,1.65,0.74,3.3,1.14,4.94c0.41,1.64,0.82,3.28,1.28,4.91C172.13,412.08,172.59,413.71,173.13,415.32z"/>
			<path class="st8" d="M100.14,415.32c0.27-1.67,0.61-3.33,0.97-4.98c0.34-1.65,0.74-3.3,1.14-4.94c0.41-1.64,0.82-3.28,1.28-4.91
				l0.69-2.44c0.25-0.81,0.49-1.62,0.76-2.43c-0.13,0.84-0.3,1.66-0.45,2.5l-0.52,2.48c-0.35,1.65-0.74,3.3-1.14,4.94
				c-0.41,1.64-0.82,3.28-1.28,4.91C101.14,412.08,100.67,413.71,100.14,415.32z"/>
			<path class="st1" d="M104.12,328.11c0,0,47.07-6.02,61.26-25.2c0,0-18.88-21.71-44-10.87
				C96.24,302.88,99.74,317.74,104.12,328.11z"/>
			<path class="st9" d="M170.17,484.44c-8.1,1.27-17.92,2.21-29.28,2.21c-16.6,0-36.47-2.01-58.99-7.92
				c1.16-3.37,2.33-6.95,3.5-10.67c35.4,9.24,63.67,8.3,82.19,5.46c8.04-1.23,14.88-2.89,20.42-4.56c1.18,3.73,2.36,7.31,3.53,10.67
				C185.68,481.39,178.53,483.13,170.17,484.44z"/>
			<path class="st3" d="M173.83,538.41l-5.27,42.6c0,0,0.01-0.01,0.01-0.01l8.6,5.33l3.45,2.14l1.29,3.38c0,0-2.69,0-2.76,0.48
				c-0.07,0.48-4.65,0.97-8.79,0.76c-4.14-0.21-3.85-0.07-10.67,0c-6.83,0.07-5.52-1.38-6.61-1.86c-0.71-0.32-1.13-2.64-1.34-4.21
				c-0.05-0.03-0.11-0.06-0.16-0.08v-5.94c0.01,0.01-2.11-21.24-4.18-41.84C158.23,540.28,168.02,539.3,173.83,538.41z"/>
			<path class="st4" d="M168.97,591.24c6.95,0.66,10.23-0.77,11.64-2.76l4.71,2.92c1.87,1.13,1.02,3.88-1.19,3.88h-30.59
				c-1.08,0-1.95-0.83-1.95-1.86v-7.85C153.56,587.49,158.19,590.21,168.97,591.24z"/>
		</g>
		<g>
			<path class="st2" d="M350.35,345.85c0,0,46.1-45.35,54.47-10.14c7.92,33.33-15.36,217.44-17.87,237.03l25.87,15.98
				c2.82,1.71,1.55,5.86-1.8,5.86h-46.21c-1.63,0-2.95-1.26-2.95-2.8v-18.75c0.03-0.01,0.05-0.02,0.08-0.03L350.35,345.85z"/>
			<path class="st0" d="M406.74,584.96l6.08,3.76c2.82,1.71,1.55,5.86-1.8,5.86h-46.21c-1.63,0-2.95-1.26-2.95-2.8v-9.19
				C392.64,591.89,403.27,589.06,406.74,584.96z"/>
			<path class="st2" d="M355.06,345.85c0,0-46.1-45.35-54.47-10.14c-7.92,33.33,15.36,217.44,17.87,237.03l-25.87,15.98
				c-2.82,1.71-1.55,5.86,1.8,5.86h46.21c1.63,0,2.95-1.26,2.95-2.8v-18.75c-0.03-0.01-0.05-0.02-0.08-0.03L355.06,345.85z"/>
			<path class="st0" d="M298.67,584.96l-6.08,3.76c-2.82,1.71-1.55,5.86,1.8,5.86h46.21c1.63,0,2.95-1.26,2.95-2.8v-9.19
				C312.77,591.89,302.14,589.06,298.67,584.96z"/>
			<path class="st10" d="M326.63,239.96l28.9,6.44l0.23-0.05v-0.58l1.31,0.29l1.31-0.29v0.58l0.23,0.05l28.9-6.44
				c0,0,61.39,91.31,46.94,209.68c0,0-11.85,2.29-30.18,4.2l-4.68-78.18l-16.74,79.94c-33.15,1.98-76.53,1.07-112.29-11.6
				C270.58,296.75,326.63,239.96,326.63,239.96z"/>
			<path class="st1" d="M354.68,23.34c0,0-41.64-2.22-43.84,46.22c0,0,3.03-0.21,5.28,0.94c0,0,32.97-7.84,41.16-38.2L354.68,23.34z
				"/>
			
				<rect x="342.99" y="115.91" transform="matrix(-1 -1.224647e-16 1.224647e-16 -1 710.59 272.8611)" class="st2" width="24.61" height="41.04"/>
			<path class="st5" d="M343.03,122.92v-14h24.57v11.91C362.31,123.53,354.48,125.09,343.03,122.92z"/>
			<path class="st2" d="M375.3,130.87h-40l1.67,6.06l25.36,16.31c0,0,5.74-10.64,6.83-11.78
				C370.25,140.33,375.3,130.87,375.3,130.87z"/>
			<path class="st11" d="M259.1,306.21c-1.71,1.06-3.26,1.89-3.26,1.89c-16.52,12.38-16.15,12.75-15.78,13.4
				c0.37,0.65,8.69-2.59,8.81-1.74c0.12,0.85-9.25,8.5-8.19,8.79c1.05,0.29,10.61-5.77,10.89-5.15c0.29,0.62-8.87,7.88-7.78,8.99
				c1.09,1.11,10.84-7.16,11.32-5.94c0.49,1.22-9.73,9.45-8.56,10.31c0.98,0.73,12.64-8.22,16.32-11.08
				c0.48-0.37,1.19-0.08,1.26,0.5c0.99,8.94,1.62,9.58,2.62,9.25c0.72-0.23,4.13-11.79,6.24-19.18l-13.9-10.05
				C259.11,306.19,259.11,306.2,259.1,306.21z"/>
			<path class="st10" d="M250.31,300.66c6.11-26.32,18.68-79.59,23.12-98.39c0.86-3.64,1.63-7.29,2.33-10.96
				c1.98-10.31,8.14-36.88,20.99-48.72c16.12-14.87,38.41-11.71,38.41-11.71c2.49,2.37,4.99,4.15,7.46,5.49
				c3.46,1.67,7.79,3.11,12.62,3.29c4.82-0.17,9.15-1.62,12.62-3.29c2.47-1.34,4.96-3.13,7.46-5.49c0,0,22.29-3.15,38.41,11.71
				c9.35,8.62,23.39,53.77,29.19,77.99c9.02,37.74-12.55,42.14-19.06,34.76c-2.81-3.18-11.38-15.05-13.51-26.15l0,0l-4.26-18.79
				c-0.75,3.29-9.51,41.33-11.33,43.92c0,0-9.78,4.37-24.01,6.65c-5.18,0.93-10.27,1.32-15.15,1.34c-0.02,0-0.04,0-0.06,0v0
				c-0.1,0-0.19,0-0.29,0c-0.1,0-0.19,0-0.29,0v0c-0.02,0-0.04,0-0.06,0c-4.88-0.02-9.97-0.41-15.15-1.34
				c-14.23-2.28-24.01-6.65-24.01-6.65c-1.81-2.59-10.57-40.63-11.33-43.92l-21.95,96.95c-1.81,8.01-10.2,13.06-18.6,11.19
				l-1.98-0.44C253.64,316.26,248.49,308.5,250.31,300.66z"/>
			<path class="st12" d="M394.24,180.63c1.85,2.14,3.54,4.37,5.09,6.67c1.54,2.31,2.92,4.69,4.05,7.19
				c1.13,2.49,1.99,5.08,2.48,7.74c0.49,2.67,0.54,5.4,0.21,8.16c0.9-2.64,1.16-5.5,0.85-8.29c-0.29-2.81-1.13-5.54-2.28-8.12
				c-1.19-2.57-2.67-5.01-4.43-7.24C398.46,184.49,396.5,182.39,394.24,180.63z"/>
			<path class="st3" d="M355.3,140.49c-21.42,8.7-20.18-7.91-20.01-9.49c2.45,2.31,4.9,4.06,7.32,5.37
				c3.46,1.67,7.79,3.11,12.62,3.29c4.82-0.17,9.15-1.62,12.62-3.29c2.47-1.34,4.96-3.13,7.46-5.49
				C375.3,130.87,377.79,149.61,355.3,140.49z"/>
			<path class="st8" d="M315.53,180.63c-1.85,2.14-3.54,4.37-5.09,6.67c-1.54,2.31-2.92,4.69-4.05,7.19
				c-1.13,2.49-1.99,5.08-2.48,7.74c-0.49,2.67-0.54,5.4-0.21,8.16c-0.9-2.64-1.16-5.5-0.85-8.29c0.29-2.81,1.13-5.54,2.28-8.12
				c1.19-2.57,2.67-5.01,4.43-7.24C311.31,184.49,313.27,182.39,315.53,180.63z"/>
			<path class="st2" d="M308.56,70.22c2.35-1.1,5.08-0.91,7.56,0.28c-0.85-21.14,17.3-38.93,40.16-38.18
				c22.86-0.75,41.01,17.03,40.16,38.18c2.47-1.19,5.2-1.39,7.56-0.28c4.51,2.12,5.92,8.18,3.13,13.54
				c-2.78,5.36-8.7,7.99-13.22,5.88c-0.63-0.29-1.19-0.67-1.69-1.1c-2.59,17.48-17.94,30.59-35.94,30.34
				c-18.01,0.24-33.36-12.86-35.94-30.34c-0.5,0.43-1.06,0.81-1.69,1.1c-4.52,2.12-10.43-0.52-13.22-5.88
				C302.64,78.4,304.04,72.34,308.56,70.22z"/>
			<path class="st6" d="M347.47,78.74c0.1,1.77-1.33,3.29-3.19,3.38c-1.86,0.1-3.46-1.26-3.56-3.03c-0.1-1.77,1.33-3.29,3.19-3.38
				C345.77,75.61,347.37,76.97,347.47,78.74z"/>
			<path class="st6" d="M376.57,79.04c0.1,1.77-1.33,3.29-3.19,3.38c-1.86,0.1-3.46-1.26-3.56-3.03c-0.1-1.77,1.33-3.29,3.19-3.38
				C374.87,75.91,376.46,77.26,376.57,79.04z"/>
			<path class="st1" d="M351.18,72.16c-1.69-0.56-3.3-0.99-4.9-1.26c-1.6-0.27-3.18-0.34-4.73-0.18c-1.54,0.17-3.08,0.47-4.56,1.11
				l-0.57,0.2c-0.19,0.07-0.36,0.18-0.55,0.26l-1.13,0.52c-0.76,0.36-1.46,0.82-2.31,1.18c0.45-0.72,0.97-1.44,1.56-2.09
				c0.66-0.57,1.27-1.26,2.08-1.69c1.5-1.04,3.37-1.62,5.24-1.82c1.89-0.19,3.81,0.09,5.51,0.75
				C348.51,69.82,350.07,70.8,351.18,72.16z"/>
			<path class="st1" d="M364.8,72.12c1.1-1.37,2.65-2.36,4.34-3.06c1.7-0.67,3.62-0.97,5.51-0.79c1.88,0.18,3.74,0.75,5.25,1.78
				c0.81,0.43,1.43,1.11,2.09,1.68c0.6,0.64,1.12,1.35,1.58,2.07c-0.84-0.35-1.55-0.81-2.31-1.16l-1.13-0.51
				c-0.19-0.08-0.36-0.18-0.55-0.25l-0.58-0.2c-1.48-0.62-3.03-0.91-4.57-1.07c-1.55-0.15-3.13-0.07-4.72,0.22
				C368.09,71.1,366.49,71.55,364.8,72.12z"/>
			<path class="st5" d="M358.57,78.91c-0.19,1.88-0.05,3.76,0.32,5.62c0.19,0.94,0.45,1.86,0.83,2.78c0.4,0.91,0.88,1.83,1.76,2.62
				c0.95,0.71,1.42,0.92,1.72,1.62c0.29,0.59,0.16,1.33-0.15,2.03c-0.7,1.44-2.32,2.53-4.09,3.32c1.94-0.09,4.09-0.83,5.36-2.63
				c0.62-0.88,0.96-2.11,0.56-3.28c-0.43-1.25-1.2-1.67-2.14-2.39c-0.55-0.48-1-1.22-1.4-1.98c-0.42-0.76-0.71-1.62-1.05-2.46
				C359.69,82.47,359.16,80.71,358.57,78.91z"/>
			<path class="st1" d="M403.51,70c0,0,2.49-43.76-48.83-46.65c0,0,1.6,42.99,41.75,47.16L403.51,70z"/>
			<path class="st1" d="M396.43,70.51c0,0-57.43-7.1-63.51-34.09l13.8-10.22l18.97,1.73c0,0,10.25,15.42,11.67,16.96
				C378.77,46.44,396.43,70.51,396.43,70.51z"/>
			<path class="st1" d="M343.03,35.84c0,0-4.77,27.3-26.92,34.67c0,0-2.07-5.75-2.47-7.1c-0.41-1.35,6.29-21.21,6.29-21.21
				s3.04-3.47,5.88-5.21c2.84-1.73,15.18-4.69,15.18-4.69L343.03,35.84z"/>
			<g>
				<path class="st9" d="M356.05,263.9c6.52,0,12.31-0.52,17.16-1.22c11.25-1.62,19.27-4.41,22.87-5.84
					c1.17-0.46,1.67-1.76,1.11-2.84l-0.01-0.01c-0.51-0.97-1.72-1.41-2.78-1c-7.83,3.06-39.58,13.54-78.4-0.13
					c-1.11-0.39-2.35,0.15-2.78,1.2l0,0c-0.45,1.09,0.14,2.3,1.29,2.71C329.94,262.19,344.2,263.9,356.05,263.9z"/>
			</g>
			<path class="st13" d="M351.62,101.49c0,0,4.25-1.76,8.53,0.52c0,0,4.24-2.92,7.91-0.63c0,0-1.17,6.37-8.47,6.42
				C352.28,107.85,351.62,101.49,351.62,101.49z"/>
			<path class="st14" d="M347.65,99.5c0.87,0.58,1.77,1.11,2.71,1.56c0.93,0.47,1.88,0.88,2.87,1.22c1.96,0.67,4.01,1.1,6.08,1.13
				c2.07,0.04,4.12-0.34,6.06-1.04c1.93-0.73,3.73-1.79,5.41-3.02c-0.74,0.73-1.54,1.4-2.4,2.01c-0.86,0.61-1.81,1.1-2.78,1.55
				c-0.98,0.42-2.02,0.75-3.08,0.97c-1.07,0.2-2.15,0.3-3.24,0.29c-2.17-0.05-4.32-0.52-6.29-1.35
				C351.03,101.99,349.18,100.9,347.65,99.5z"/>
		</g>
		<g>
			<path class="st2" d="M401.56,166.69l-0.8,8.92c0,0-9.58,4.05-15.47-0.91l0.62-9.99L401.56,166.69z"/>
			<path class="st5" d="M385.54,170.59l0.36-5.86l15.65,1.97l-0.45,5.07C397.31,172.99,391.74,173.64,385.54,170.59z"/>
			<path class="st5" d="M377.42,140.75c0.72,3.12-0.83,6.09-3.46,6.63c-2.63,0.54-5.35-1.54-6.06-4.66
				c-0.72-3.12,0.83-6.09,3.46-6.63C373.98,135.54,376.7,137.63,377.42,140.75z"/>
			<path class="st2" d="M373.98,153.63c-0.36-4.04-0.8-8.09-0.52-11.62c0.06-0.76,0.07-1.52,0.07-2.28c0-3.07,0.59-6.22,1.92-9.34
				c4.28-10.05,15.22-16.35,26.6-15.28c15.32,1.43,25.75,14.82,23.18,28.82c1.76-0.58,3.6-0.48,5.06,0.45
				c2.81,1.79,3.17,5.94,0.81,9.27c-2.36,3.33-6.55,4.58-9.36,2.78c-0.39-0.25-0.73-0.55-1.02-0.88
				c-3.46,11.7-18.43,17.38-30.73,15.15C383.96,169.63,375.09,166.18,373.98,153.63z"/>
			<path class="st5" d="M393.54,141.13c0.1,0.97,0.02,1.95-0.17,2.91c-0.1,0.48-0.23,0.96-0.43,1.44c-0.21,0.47-0.46,0.95-0.91,1.36
				c-0.51,0.38-0.74,0.49-0.89,0.84c-0.15,0.3-0.08,0.69,0.08,1.05c0.37,0.75,1.2,1.31,2.12,1.72c-1.01-0.05-2.12-0.43-2.78-1.36
				c-0.32-0.45-0.5-1.09-0.29-1.7c0.21-0.6,0.54-0.81,1.11-1.24c0.28-0.25,0.52-0.63,0.73-1.03c0.22-0.4,0.37-0.84,0.54-1.27
				C392.96,142.97,393.23,142.06,393.54,141.13z"/>
			<path class="st6" d="M402.37,145.8c-0.74,1.45,0.34,3.1,2.04,3.12c0.85,0.01,1.66-0.46,2.04-1.2c0.74-1.45-0.34-3.1-2.04-3.12
				C403.56,144.59,402.75,145.07,402.37,145.8z"/>
			<path class="st6" d="M383.08,142.72c-0.74,1.45,0.34,3.1,2.04,3.12c0.85,0.01,1.66-0.46,2.04-1.2c0.74-1.45-0.34-3.1-2.04-3.12
				C384.27,141.52,383.46,141.99,383.08,142.72z"/>
			<path class="st1" d="M400.87,140.84c1.21-0.02,2.33,0.01,3.41,0.14c1.08,0.13,2.1,0.38,3.05,0.76c0.94,0.39,1.87,0.86,2.7,1.53
				c0.66,0.41,2.13,1.88,2.53,2.19c-0.25-1.09-0.73-2.31-1.53-3.13c-0.75-0.95-1.84-1.68-3.01-2.16c-1.18-0.47-2.49-0.64-3.73-0.52
				C403.06,139.78,401.85,140.15,400.87,140.84z"/>
			<path class="st1" d="M390.93,139.25c-0.66-0.98-1.65-1.73-2.76-2.26c-1.11-0.53-2.4-0.81-3.68-0.76c-1.28,0.05-2.56,0.36-3.62,1
				c-1.06,0.5-1.96,1.48-2.61,2.41c0.5-0.16,2.42-1.04,3.19-1.2c1.02-0.35,2.06-0.47,3.09-0.52c1.03-0.04,2.08,0.07,3.14,0.32
				C388.75,138.48,389.81,138.82,390.93,139.25z"/>
			<path class="st15" d="M380.74,153.06c1.51-2.18,3.45-2.65,7.65-0.45c0.01,0.01,0.02,0.01,0.04,0.02c2,1.04,4.35,1.31,6.55,0.75
				c0.01,0,0.03-0.01,0.04-0.01c4.62-1.2,6.4-0.31,7.32,2.15c0.84,2.24-2.97,11.03-10.96,9.9c-0.81-0.11-1.63-0.21-2.45-0.28
				C380.88,164.44,379.37,155.05,380.74,153.06z"/>
			<path class="st7" d="M387.17,158c-0.71,2.33,1.17,4.6,3.73,4.5c1.54-0.07,2.91-1.09,3.34-2.5c0.71-2.33-1.17-4.6-3.73-4.49
				C388.97,155.57,387.6,156.59,387.17,158z"/>
			<g>
				<path class="st7" d="M389.49,169.39c-1.67-0.19-3.16-0.99-4.2-2.24c-1.04-1.26-1.5-2.82-1.3-4.4c0.2-1.58,1.04-3,2.36-3.99
					c1.32-0.99,2.97-1.43,4.64-1.23c1.67,0.19,3.16,0.99,4.2,2.24c1.04,1.26,1.5,2.82,1.3,4.4c-0.2,1.58-1.04,3-2.36,3.99
					C392.78,169.17,391.11,169.58,389.49,169.39z M386.94,159.47c-1.12,0.84-1.84,2.04-2.01,3.39c-0.17,1.35,0.22,2.67,1.11,3.74
					c0.88,1.07,2.15,1.74,3.57,1.9c1.42,0.16,2.82-0.21,3.94-1.05c1.12-0.84,1.84-2.04,2.01-3.39c0.17-1.35-0.22-2.67-1.11-3.74
					c-0.88-1.07-2.15-1.74-3.57-1.9C389.43,158.25,388.03,158.65,386.94,159.47z"/>
			</g>
			<path class="st16" d="M376.31,214.87c0,0-16.36,2.45-21.52,10.19c0,0-5.44-7.06-9.6-5.09c-1.43,0.68-2.03,2.31-2.2,4.16
				c-0.6,6.54,4.34,12.37,11.16,13.53c3.97,0.67,9.43,0.78,16.9-0.34C394.88,233.72,376.31,214.87,376.31,214.87z"/>
			<path class="st2" d="M380.36,173.42c0,0-10.77-3.17-27.76-15.3c-0.64-4.26-1.7-10.93-2.09-11.11c-0.54-0.25-0.94,0.07-2.14,4.99
				c-0.08,0.32-0.5,0.43-0.74,0.19c-1.85-1.84-7.71-7.59-8.31-7.25c-0.71,0.4,4.39,5.67,4.03,6.31c-0.36,0.65-5.2-4.6-5.89-4.06
				c-0.69,0.55,3.89,5.2,3.69,5.52c-0.21,0.33-5.1-3.68-5.71-3.59c-0.61,0.09,4.06,4.97,3.93,5.44c-0.13,0.46-4.54-1.89-4.79-1.55
				c-0.26,0.34-0.49,0.52,7.83,8.51c0,0,0.81,0.56,1.68,1.27c0.71,1.94,8.81,23.26,26.68,30.35
				C387.24,195.34,380.36,173.42,380.36,173.42z"/>
			<path class="st9" d="M379.94,173.2l-0.01-0.08c1.43-0.23,3.19-0.35,5.13-0.4c0.02,0.02,0.04,0.04,0.06,0.06
				c7.09,6.86,15.85,0.52,15.85,0.52c3.33,0.26,6.02,0.52,7.22,0.65l0.73,0.02c0,0,10.77,9.59,13.6,19.97
				c0,0,16.47,44.02-15.32,51.76c-31.79,7.74-33.94-5.16-33.94-5.16s-12.6-7.61-15.61-17.8
				C354.65,212.57,367.64,182.89,379.94,173.2z"/>
			<path class="st7" d="M372.2,231.59c0.19-1.01,0.55-2.07,1.4-2.86c0.87-0.79,2.13-1.07,3.26-0.88c1.14,0.17,2.15,0.66,3.06,1.23
				c0.91,0.58,1.72,1.26,2.49,1.97c0.61,0.58,1.18,1.18,1.72,1.82c1.12-1.47,2.55-2.7,4.1-3.69c1.73-1.12,3.59-2.02,5.51-2.77
				c1.91-0.75,3.89-1.35,5.88-1.85c2-0.47,4.02-0.89,6.06-1.12c-2,0.43-3.99,0.93-5.93,1.54c-1.95,0.59-3.86,1.28-5.72,2.07
				c-1.85,0.81-3.65,1.71-5.29,2.82c-1.64,1.1-3.12,2.42-4.19,4l-0.36,0.54l-0.42-0.51c-1.24-1.53-2.69-3-4.36-4.1
				c-0.83-0.55-1.74-1-2.68-1.16c-0.93-0.16-1.93,0.04-2.62,0.62c-0.7,0.6-1.07,1.52-1.29,2.46c-0.21,0.95-0.27,1.93-0.26,2.92
				c0.01,1.98,0.31,3.96,0.71,5.92c-0.31-0.96-0.56-1.93-0.76-2.92c-0.2-0.99-0.35-1.98-0.43-2.99
				C372.02,233.63,372.03,232.61,372.2,231.59z"/>
			<path class="st2" d="M409.21,174.02c0,0,10.11-4.74,24.89-19.24c-0.07-4.3-0.13-11.05,0.22-11.28c0.49-0.33,0.93-0.07,2.94,4.61
				c0.13,0.3,0.56,0.35,0.76,0.08c1.52-2.09,6.36-8.65,7-8.4c0.77,0.29-3.4,6.25-2.93,6.83c0.46,0.59,4.37-5.32,5.15-4.88
				c0.77,0.44-2.98,5.71-2.73,6.01c0.26,0.29,4.43-4.39,5.04-4.39c0.62,0-3.19,5.52-2.98,5.96c0.21,0.44,4.17-2.54,4.48-2.25
				c0.31,0.29,0.57,0.44-6.33,9.57c0,0-0.7,0.67-1.45,1.5c-0.38,2.02-4.85,24.28-21.33,33.95
				C406.04,196.7,409.21,174.02,409.21,174.02z"/>
			<path class="st17" d="M398.57,125.88c-17.09-0.32-16.99-10.16-16.99-10.16l0.46,0.43c1.27,0.8,3.96,1,3.96,1
				c-2.94-6.98,5.89-8.38,5.89-8.38s-5.89,5.59,7.36,5.59c8.21,0,12.46,1.61,14.51,2.83c4.44,2.65,0.4,6.6-1.81,7.93
				c-1.73,1.08-3.7,1.79-5.7,2.19c-1.66,0.43-5.54,0.75-9.07,0.34c-1-0.14-1.99-0.28-2.97-0.48c1.01-0.1,2-0.14,2.99-0.18
				c1.1,0,7.07-0.54,8.75-1c0.35-0.08,2.14-0.42,3.83-1.08C407.24,125.56,403.65,125.97,398.57,125.88z"/>
			<path class="st2" d="M377.72,236.68c-1.75-0.43-3.29-0.71-3.29-0.71c-17.51-5.95-17.32-6.36-17.19-7c0.12-0.64,8.05-0.16,7.9-0.9
				c-0.15-0.74-10.27-4.64-9.47-5.17c0.8-0.52,10.6,1.99,10.65,1.4c0.06-0.6-9.77-4.22-9.18-5.45c0.58-1.22,11.2,3.09,11.25,1.94
				c0.05-1.15-10.95-5.31-10.23-6.35c0.61-0.87,13.03,3.5,16.96,4.91c0.51,0.18,1.02-0.25,0.9-0.75c-1.83-7.76-1.49-8.46-0.55-8.45
				c0.67,0,6.96,8.77,10.92,14.4l-8.66,12.15C377.73,236.69,377.73,236.69,377.72,236.68z"/>
			<path class="st10" d="M436.57,235.73c-15.53-5.81-43.71-15.55-46.56-15.55c-6.73,0-15.79,15.15-10.98,22.29
				s48.41,18.24,53.24,15.39C437.1,255.01,443.19,238.21,436.57,235.73z"/>
		</g>
		<path class="st3" d="M169.38,328.11c-6.25,9.32-11.81,12.53-23.72,10.57c-9.8-1.61-11.38,2.34-25.98,0.7
			c-10.05-1.13-15.57-11.27-15.57-11.27c3.08,8.6,12.16,20.83,4.57,19.92c1.23,7.81,11.15,19.91,28.16,19.91
			s27.58-13.31,28.25-21.26C160.06,346.68,167.59,332.56,169.38,328.11z"/>
	</g>
	<g>
		<polygon class="st11" points="632,560.66 631.52,573.95 653.44,572.93 658.61,556.68 		"/>
		<polygon class="st11" points="770.08,540.59 785.98,563.19 803.15,550.19 797.35,534.14 		"/>
		<g>
			<path class="st8" d="M777.61,594.77l40.59-27.94c1.25-0.86,1.53-2.53,0.63-3.72l0,0c-0.91-1.19-2.66-1.46-3.92-0.59l-40.59,27.94
				c-1.25,0.86-1.53,2.53-0.63,3.72l0,0C774.6,595.37,776.36,595.63,777.61,594.77z"/>
			<path class="st10" d="M805.12,549.26l10.65,10.97c1.31,1.35,1.47,3.3,0.32,4.08l-39.77,27.37c-1.03,0.71-2.52,0.8-3.94,0.02
				c-1.46-0.8-2.92-2.5-2.97-6.12c-0.09-7.16,10.5-16.26,13.25-24.23c0.06-0.16,0.16-0.3,0.31-0.4l18.3-12.6
				C802.3,547.66,803.93,548.04,805.12,549.26z"/>
			<g>
				<path class="st7" d="M790.87,566.16L790.87,566.16c0.16-0.37-0.09-0.9-0.52-1.13c-2.03-1.11-7.53-3.43-11.87,0.81
					c-0.25,0.24-0.17,0.74,0.16,1.08l0.01,0.01c0.32,0.33,0.76,0.39,1.01,0.15c3.9-3.78,8.67-1.68,10.35-0.74
					C790.37,566.54,790.74,566.47,790.87,566.16z"/>
			</g>
			<g>
				<path class="st7" d="M787.92,570.55L787.92,570.55c0.16-0.37-0.09-0.9-0.52-1.13c-2.03-1.11-7.53-3.43-11.87,0.81
					c-0.25,0.24-0.17,0.74,0.16,1.08l0.01,0.01c0.32,0.33,0.76,0.39,1.01,0.15c3.9-3.79,8.67-1.68,10.35-0.74
					C787.42,570.93,787.78,570.85,787.92,570.55z"/>
			</g>
			<g>
				<path class="st7" d="M785.17,574.63L785.17,574.63c0.16-0.37-0.09-0.9-0.52-1.13c-2.03-1.11-7.53-3.43-11.87,0.81
					c-0.25,0.24-0.17,0.74,0.16,1.08l0.01,0.01c0.32,0.33,0.76,0.39,1.01,0.15c3.9-3.78,8.67-1.68,10.35-0.74
					C784.67,575.01,785.04,574.94,785.17,574.63z"/>
			</g>
		</g>
		<path class="st2" d="M646.55,216.42l5.81-23.75l-23.73-16.95c0,0-4.11,28.31-6.17,39.68l-47.94,0.8l-9.2,1.65
			c0,0,63.94,25.44,68.01,17.63c1.15-2.2,4.58-5.38,7.85-9.1c1.7,0.4,2.78,0.64,2.78,0.64l1.55-6.32c0.86-1.39,1.58-2.83,2.05-4.28
			L646.55,216.42z"/>
		<path class="st18" d="M665.88,107.5c0,0-30.65,11.49-42.51,71.72c0,0,7.67,9.86,24.78,10.95c17.11,1.09,11.9-38.68,11.9-38.68
			L665.88,107.5z"/>
		<polygon class="st2" points="702.01,87.73 700.84,105.18 675.81,110.13 671.38,110.13 672.31,89.22 698.86,80.31 		"/>
		<path class="st2" d="M662.74,115.67c-1.13,11.73,3.97,13.91,3.97,13.91l37.81-26.66c-23.47,2.18-38.64,4.58-38.64,4.58
			S663.93,115.99,662.74,115.67z"/>
		<path class="st10" d="M725.47,49.77c0,0,7.72-30.09-10.67-41.36C696.41-2.86,676.92-1.6,663.65,5.15
			c-13.27,6.75-21.22,30.3-15.27,43.75l44.06-12.85L725.47,49.77z"/>
		<path class="st11" d="M570.42,200.7c-4.39-1.81-7.6-3.67-8.85-5.52l-1.41-3.49c-1.75-4.36-4.41-6.27-6.08-5.42l-0.28,0.22
			c0,0,1.12,7.05,2.02,12.82l-3.81-0.55l-2.02,21.96l18.17-2.32L570.42,200.7z"/>
		<path class="st1" d="M709.58,253.59L691.4,404.68c0,0-17.24,129.3-31.16,158.05h-30.87l6.72-288.96l54.41-32.49L709.58,253.59z"/>
		<path class="st5" d="M702.55,83.17c0,0-0.53,5.07-0.99,11.38c-9.52,9.91-27.37,6.51-29.73,5.55c0.14-3.18,0-9.6,0-9.6
			L702.55,83.17z"/>
		<path class="st8" d="M724.1,238.97c0,0,34.5,42.27,26.33,109.55c-8.17,67.28-6.35,91.43-6.35,91.43s44.48,38.82,58.1,94.88
			c0,0-19.52,12.94-32.68,15.1c0,0-65.37-94.88-70.36-106.1c-4.99-11.21-36.05-187.52-36.05-187.52L724.1,238.97z"/>
		<path class="st5" d="M654.11,54.21c1.57,4.05,0.08,8.3-3.33,9.49c-3.41,1.19-7.44-1.12-9.01-5.17c-1.57-4.05-0.08-8.3,3.33-9.49
			C648.5,47.85,652.54,50.16,654.11,54.21z"/>
		<path class="st2" d="M654.47,77.61c-0.98-1.76-1.8-3.61-2.44-5.55c-1.83-5.2-2.64-10.69-2.96-15.46c-0.07-1.02-0.2-2.04-0.35-3.06
			c-0.6-4.1-0.43-8.43,0.74-12.84c3.76-14.2,17.15-24.56,32.56-25.14c20.75-0.78,37.3,15.3,36.6,34.49
			c2.24-1.09,4.71-1.28,6.85-0.28c4.1,1.9,5.4,7.4,2.89,12.27c-2.51,4.87-7.86,7.28-11.96,5.37c-0.57-0.26-1.08-0.6-1.54-1
			c-2.34,16.27-16.88,28.42-33.76,27.6c-8.26-0.4-15.62-3.83-21.06-9.15c-0.37-0.31-0.75-0.68-1.15-1.1
			C657.12,81.92,655.67,79.83,654.47,77.61z"/>
		<path class="st6" d="M686.06,54.64c-0.09,1.73,1.31,3.2,3.13,3.29c1.82,0.09,3.37-1.24,3.46-2.97c0.09-1.73-1.31-3.2-3.13-3.29
			C687.7,51.58,686.15,52.91,686.06,54.64z"/>
		<path class="st6" d="M656.76,54.64c-0.09,1.73,1.31,3.2,3.13,3.29c1.82,0.09,3.37-1.24,3.46-2.97c0.09-1.73-1.31-3.2-3.13-3.29
			C658.4,51.58,656.85,52.91,656.76,54.64z"/>
		<path class="st10" d="M683.28,49.41c1.5-0.76,3.06-1.32,4.65-1.69c1.59-0.36,3.21-0.49,4.81-0.35c0.8,0.06,1.59,0.22,2.36,0.42
			c0.39,0.09,0.77,0.23,1.15,0.36c0.19,0.06,0.37,0.15,0.56,0.22c0.19,0.07,0.38,0.14,0.56,0.23c1.47,0.67,2.86,1.54,4.22,2.52
			c-1.01-1.3-2.3-2.43-3.78-3.29c-0.74-0.43-1.54-0.79-2.38-1.05c-0.83-0.27-1.7-0.45-2.58-0.52c-1.76-0.16-3.55,0.07-5.18,0.63
			c-0.82,0.27-1.61,0.63-2.35,1.05C684.59,48.36,683.88,48.83,683.28,49.41z"/>
		<path class="st10" d="M669.98,49.41c-0.6-0.58-1.3-1.06-2.04-1.48c-0.74-0.41-1.52-0.77-2.35-1.05c-1.64-0.56-3.42-0.79-5.18-0.63
			c-0.88,0.07-1.75,0.26-2.58,0.52c-0.84,0.26-1.63,0.62-2.38,1.05c-1.49,0.86-2.78,1.99-3.79,3.29c1.36-0.97,2.75-1.85,4.22-2.52
			c0.18-0.09,0.37-0.16,0.56-0.23c0.19-0.07,0.37-0.16,0.56-0.22c0.38-0.13,0.76-0.26,1.15-0.36c0.77-0.21,1.56-0.36,2.36-0.42
			c1.6-0.14,3.22-0.01,4.81,0.35C666.92,48.09,668.48,48.66,669.98,49.41z"/>
		<path class="st7" d="M745.38,154.8c-0.8-0.79-1.55-1.68-2.24-2.58c-0.69-0.91-1.34-1.86-1.91-2.84c-0.59-0.98-1.11-1.99-1.56-3.04
			c-0.48-1.04-0.83-2.12-1.19-3.22c0.15,1.13,0.38,2.27,0.76,3.36c0.17,0.55,0.39,1.09,0.61,1.63c0.24,0.53,0.47,1.07,0.75,1.58
			c0.55,1.03,1.16,2.04,1.87,2.98c0.56,0.76,1.16,1.49,1.83,2.18c-0.61,0.11-1.24,0.19-1.87,0.22c-0.87,0.04-1.74,0.01-2.6-0.11
			c-0.43-0.05-0.86-0.15-1.29-0.23c-0.42-0.12-0.85-0.22-1.26-0.37c-0.84-0.27-1.62-0.67-2.4-1.09c0.69,0.54,1.43,1.05,2.26,1.41
			c0.81,0.39,1.69,0.67,2.58,0.85c0.89,0.18,1.81,0.28,2.73,0.26c0.92-0.01,1.83-0.1,2.76-0.33l0.66-0.17L745.38,154.8z"/>
		<path class="st5" d="M673.85,53.19c-0.93,1.42-1.72,2.92-2.44,4.44c-0.72,1.52-1.35,3.09-1.84,4.72
			c-0.23,0.82-0.43,1.65-0.49,2.55c-0.01,0.23-0.01,0.46,0.02,0.7c0.01,0.12,0.05,0.25,0.08,0.38c0.06,0.14,0.09,0.27,0.19,0.41
			c0.05,0.07,0.11,0.14,0.16,0.2l0.14,0.11c0.09,0.07,0.18,0.15,0.28,0.22c0.19,0.13,0.38,0.26,0.58,0.37
			c0.78,0.46,1.61,0.78,2.45,1.06c0.84,0.27,1.69,0.5,2.56,0.64c-1.58-0.72-3.18-1.43-4.54-2.36c-0.17-0.11-0.32-0.24-0.48-0.37
			l-0.22-0.2l-0.1-0.1c-0.01-0.02-0.02-0.04-0.03-0.05c-0.11-0.16-0.12-0.58-0.08-0.94c0.08-0.76,0.28-1.56,0.51-2.34
			c0.45-1.57,1.03-3.13,1.58-4.7C672.76,56.36,673.33,54.79,673.85,53.19z"/>
		<path class="st3" d="M739.41,204.57C739.41,204.57,739.4,204.57,739.41,204.57c4.5-23.78,6.43-49.3,6.43-49.3
			c0.26-5.88,0.18-11.09-0.15-15.69c-6.27-4.85-15.01-11.72-15.01-11.72l-14.95-24.2c0,0,0.01-0.01,0.01-0.02
			c-5.68-0.5-11.71-0.73-11.71-0.73l-37.32,26.68l-0.83-22.08c-0.19,0.13-0.37,0.27-0.56,0.41c-16.12,12.51-26.59,30.6-28.85,50.49
			c-1.59,14.03-1.4,28.99-0.51,42.35l0,0c0,0-6.38,77.38-9.44,89.75c0,0,84.58,8,129.75,0C756.27,290.5,738.99,238.29,739.41,204.57
			z"/>
		<g>
			<path class="st8" d="M630.92,265.73l-64.7,3.71c-4.09,0.23-8.62-2.26-10.12-5.56l-34.04-74.83c-1.5-3.3,0.59-6.17,4.68-6.41
				l64.7-3.71c4.09-0.23,8.62,2.25,10.12,5.56l34.04,74.83C637.1,262.63,635.01,265.5,630.92,265.73z"/>
			<path class="st9" d="M572.28,183.79l-22.03,1.26c-1.77,0.1-3.72-0.97-4.37-2.4l-0.61-1.34c-0.65-1.43,0.26-2.67,2.02-2.77
				l22.03-1.26c1.77-0.1,3.72,0.97,4.37,2.4l0.61,1.34C574.95,182.45,574.05,183.69,572.28,183.79z"/>
		</g>
		<path class="st9" d="M548.2,246.61l-0.27,0.12c-1.63,0.68-3.54,0.09-4.43-1.38l-10.14-16.73c-0.51-0.81-0.49-1.82,0.07-2.6
			c1.72-2.43,5.41-7.44,6.68-7.26c1.67,0.24-3.42,8.56-2.72,8.73c0.69,0.17,7.89-5.37,8.5-4.47c0.55,0.81-5.79,7.25-5.49,7.76
			c0.29,0.5,7.6-3.53,8.39-2.81c0.71,0.65-6.18,5.86-6.08,6.23L548.2,246.61z"/>
		<path class="st2" d="M606.37,265.93c0.07-1.17,10.35-8.52,9.76-9.04c-0.58-0.52-12.04,6-12.87,4.5
			c-0.83-1.5,11.97-8.25,10.79-9.18c-1.18-0.94-14.11,6.28-14.64,4.8c-0.44-1.25,13.82-9.66,18.37-12.31
			c0.59-0.34,0.53-1.17-0.09-1.45c-9.58-4.29-10.05-5.15-9.32-6.04c0.52-0.63,10.07,0.52,19.07,1.12l10.92,1
			c3.07-0.69,94.78-21.27,99.78-26.99c5.09-5.81-8.56-37.24-8.56-37.24l29.79-12.15c0,0,13.64,51.55,0.5,67.43
			c-7.08,8.56-120.97,23.84-120.97,23.84c-1.8,1.31-6.7,4.45-6.7,4.45c-19.88,12.02-17.65,11.1-18.23,10.49
			c-0.58-0.61,6.1-7.77,5.2-8.21C618.28,260.5,606.31,267.09,606.37,265.93z"/>
		<path class="st3" d="M715.73,103.65c0,0,33.36,12,54.48,58.67c0,0-10.37,21.78-44.7,22.53L715.73,103.65z"/>
		<path class="st8" d="M770.21,162.32c-2.26,3.6-5.24,6.73-8.58,9.38c-3.31,2.69-7.02,4.9-10.93,6.68
			c-3.98,1.62-8.06,3.07-12.32,3.9c-2.1,0.52-4.28,0.68-6.41,1.04c-2.16,0.21-4.34,0.3-6.5,0.46l1.13,0.82
			c-1.09-4.13-2.34-8.19-3.66-12.24c-1.35-4.04-2.73-8.07-4.41-12.01c-1.64-3.95-3.48-7.82-5.57-11.58
			c-2.17-3.69-4.56-7.41-7.99-10.16c3.06,3.09,5.18,6.82,7,10.63c1.87,3.8,3.51,7.7,4.93,11.68c1.4,3.98,2.84,7.96,4.08,12
			c1.25,4.03,2.41,8.1,3.43,12.17l0.23,0.9l0.91-0.08c2.23-0.19,4.46-0.32,6.68-0.57c2.2-0.4,4.44-0.6,6.6-1.17
			c2.18-0.52,4.35-1.03,6.44-1.81c2.15-0.62,4.15-1.63,6.18-2.52c3.95-2.02,7.67-4.45,10.9-7.37
			C765.53,169.5,768.39,166.17,770.21,162.32z"/>
		<path class="st9" d="M542.19,234.39c0,0,7.32-2.11,7.97-1.33c0.65,0.78-8,5.22-7.97,5.01
			C542.23,237.87,542.19,234.39,542.19,234.39z"/>
		<path class="st10" d="M723.07,45.62l-0.83-0.09L721.69,39l-3.07-6.04c0,0-12.04-16.24-12.46-16.64c-0.42-0.4-9.6-5.63-10.17-5.9
			c-0.56-0.27-13.42,1.74-13.42,1.74s-22.61-4.62-18.78,7.38c3.82,12,20.34,18.25,21.18,17.71c-2.68-2.68-2.97-10.33-2.97-10.33
			c12.71,13.95,36.61,23.13,36.61,23.13s2.51-1.82,6.85-0.28L723.07,45.62z"/>
		<path class="st7" d="M666.53,73.92c0.88,3.71,4.66,6.46,9.14,6.38c4.48-0.07,8.15-2.95,8.89-6.68L666.53,73.92z"/>
		<g>
			<path class="st8" d="M605.3,594.93l50.12-0.14c1.55,0,2.8-1.2,2.8-2.67l0,0c-0.01-1.47-1.26-2.66-2.81-2.66l-50.12,0.14
				c-1.55,0-2.8,1.2-2.8,2.67l0,0C602.49,593.74,603.75,594.93,605.3,594.93z"/>
			<path class="st10" d="M655.61,573.27l1.89,14.82c0.23,1.83-0.84,3.49-2.25,3.49l-49.11,0.14c-1.28,0-2.54-0.75-3.21-2.17
				c-0.69-1.46-0.84-3.65,1.35-6.61c4.33-5.86,18.53-7.37,25.65-12.3c0.15-0.1,0.32-0.16,0.5-0.16l22.6-0.06
				C654.31,570.41,655.4,571.62,655.61,573.27z"/>
			<g>
				<path class="st7" d="M633.65,579.07L633.65,579.07c0.35-0.21,0.48-0.78,0.27-1.21c-0.97-2.03-4-6.96-10.13-5.93
					c-0.35,0.06-0.59,0.51-0.53,0.97l0,0.01c0.06,0.45,0.38,0.74,0.72,0.68c5.49-0.91,8.07,3.44,8.85,5.14
					C633.01,579.1,633.36,579.24,633.65,579.07z"/>
			</g>
			<g>
				<path class="st7" d="M628.56,580.99L628.56,580.99c0.35-0.21,0.48-0.78,0.28-1.21c-0.97-2.03-4-6.96-10.13-5.93
					c-0.35,0.06-0.59,0.51-0.53,0.97l0,0.02c0.06,0.45,0.38,0.74,0.72,0.68c5.49-0.91,8.07,3.44,8.85,5.14
					C627.92,581.02,628.26,581.17,628.56,580.99z"/>
			</g>
			<g>
				<path class="st7" d="M623.82,582.79L623.82,582.79c0.35-0.21,0.48-0.78,0.28-1.21c-0.97-2.03-4-6.96-10.13-5.93
					c-0.35,0.06-0.59,0.51-0.53,0.97l0,0.01c0.06,0.45,0.38,0.74,0.72,0.68c5.49-0.91,8.07,3.44,8.85,5.14
					C623.18,582.82,623.53,582.96,623.82,582.79z"/>
			</g>
		</g>
		<path class="st7" d="M718.62,50.06c-20.71,13.96-53.91,13.96-69.22,8.77c-0.13,14.48,7.1,28.63,19.5,33.2
			c12.4,4.57,29.04,4.69,39.76-10.83C702.01,77.31,702.55,63.92,718.62,50.06z"/>
		<path class="st9" d="M606.37,265.93c0.07-1.17,10.35-8.52,9.76-9.04c-0.58-0.52-12.04,6-12.87,4.5
			c-0.83-1.5,11.97-8.25,10.79-9.18c-1.18-0.94-14.11,6.28-14.64,4.8c-0.44-1.25,13.82-9.66,18.37-12.31
			c0.59-0.34,0.53-1.17-0.09-1.45c-9.58-4.29-10.05-5.15-9.32-6.04c0.52-0.63,10.07,0.52,19.07,1.12l10.92,1
			c1.23-0.27,18.4-5.6,32.63-9.31c2.95,1.4,6.2,17.9,5.58,20.78c-10.08,2.95-37.68,3.43-37.68,3.43c-1.8,1.31-6.7,4.45-6.7,4.45
			c-19.88,12.02-17.65,11.1-18.23,10.49c-0.58-0.61,6.1-7.77,5.2-8.21C618.28,260.5,606.31,267.09,606.37,265.93z"/>
	</g>
	<path class="st7" d="M396.54,70.51c-17.65,21.01-27.13,15.66-37.86,16.49c-10.73,0.82-31.12,0.13-42.46-16.49
		c15.06,24.92,6.55,26.41,6.55,26.41c6.14,17.63,19.11,23.2,34.26,23.2c15.15,0,31.15-11.37,33.32-24.1
		C379.21,92.75,396.54,70.51,396.54,70.51z"/>
</g>
</svg>
