<?xml version="1.0" encoding="utf-8"?>
<!-- Generator: Adobe Illustrator 24.0.2, SVG Export Plug-In . SVG Version: 6.00 Build 0)  -->
<svg version="1.1" id="Capa_1" xmlns="http://www.w3.org/2000/svg" xmlns:xlink="http://www.w3.org/1999/xlink" x="0px" y="0px"
	 viewBox="0 0 841.89 595.28" style="enable-background:new 0 0 841.89 595.28;" xml:space="preserve">
<style type="text/css">
	.st0{fill:#E35B75;}
	.st1{fill:#ED6C81;}
	.st2{fill:#D8C3E0;}
	.st3{fill:#5EC2D6;}
	.st4{fill:#FFFFFF;}
	.st5{fill:#EB95AE;}
	.st6{fill:#472A6A;}
	.st7{fill:#F5B1C4;}
	.st8{fill:#5D417C;}
	.st9{fill:#F2F2F2;}
	.st10{fill:#E1DDE8;}
</style>
<g>
	<path class="st0" d="M526.77,229.91c0,0,6.14,2.22,11.87,11.15c5.73,8.93,8.25,35.2,8.25,35.2l-10.95,5.77L526.77,229.91z"/>
	<g>
		<path class="st1" d="M507.37,54.94c-3.9-1.07-6.19-5.1-5.11-9c1.07-3.9,5.1-6.19,9-5.11c3.9,1.07,6.19,5.1,5.11,9
			C515.3,53.72,511.27,56.01,507.37,54.94z"/>
		<path class="st1" d="M411.84,33.63c-3.9-1.07-6.19-5.1-5.11-9c1.07-3.9,5.1-6.19,9-5.11c3.9,1.07,6.19,5.1,5.11,9
			C419.77,32.41,415.74,34.7,411.84,33.63z"/>
		<path class="st1" d="M412.83,103.23c-3.9-1.07-6.19-5.1-5.11-9c1.07-3.9,5.1-6.19,9-5.11c3.9,1.07,6.19,5.1,5.11,9
			C420.76,102.01,416.73,104.3,412.83,103.23z"/>
		<path class="st1" d="M493.2,100.88c-4.67-1.29-7.42-6.12-6.13-10.79c1.29-4.67,6.12-7.42,10.79-6.13
			c4.67,1.29,7.42,6.12,6.13,10.79C502.7,99.42,497.87,102.17,493.2,100.88z"/>
		<path class="st1" d="M497.54,73.73c-2.55-1.09-3.73-4.03-2.65-6.58c1.09-2.55,4.03-3.73,6.58-2.65c2.55,1.09,3.73,4.03,2.65,6.58
			C503.03,73.63,500.09,74.82,497.54,73.73z"/>
		<path class="st1" d="M439.21,108.12c-2.67-0.73-4.24-3.49-3.5-6.16c0.73-2.67,3.49-4.24,6.16-3.5c2.67,0.73,4.24,3.49,3.5,6.16
			C444.64,107.28,441.88,108.85,439.21,108.12z"/>
		<path class="st1" d="M441.97,13.11c-2.67-0.73-4.24-3.49-3.5-6.16c0.73-2.67,3.49-4.24,6.16-3.5c2.67,0.73,4.24,3.49,3.5,6.16
			C447.39,12.28,444.63,13.85,441.97,13.11z"/>
		<path class="st1" d="M481.66,23.17c-6.01-1.65-9.53-7.86-7.88-13.87c1.65-6.01,7.86-9.54,13.87-7.88
			c6.01,1.65,9.53,7.86,7.88,13.87C493.88,21.3,487.67,24.83,481.66,23.17z"/>
		<path class="st1" d="M396.78,70.22c-6.01-1.65-9.54-7.86-7.88-13.87c1.65-6.01,7.86-9.54,13.87-7.88
			c6.01,1.65,9.54,7.86,7.88,13.87C409,68.35,402.79,71.88,396.78,70.22z"/>
		<path class="st1" d="M457.82,129.04c-6.01-1.65-9.54-7.86-7.88-13.87c1.65-6.01,7.86-9.54,13.87-7.88
			c6.01,1.65,9.53,7.86,7.88,13.87C470.04,127.17,463.83,130.7,457.82,129.04z"/>
		<path class="st1" d="M464.6,117.13c-1.18-1.81-2.07-4.19-2.65-6.29c-0.87-3.15-1.3-6.5-1.36-9.78c0-0.71-0.06-2.81-0.02-6.19
			c7.42-1.71,14.14-5.79,19.09-11.62c0.56,0.22,1.11,0.44,1.65,0.67c1.28,0.54,2.54,1.1,3.78,1.7c3.42,1.68,7.55,4.66,9.2,7.95
			l2.93-3.89c-0.74-0.14-1.41-0.37-2.05-0.63c-0.65-0.26-1.26-0.57-1.86-0.89c-1.19-0.66-2.29-1.44-3.33-2.29
			c-1.04-0.86-2.02-1.8-2.94-2.82c-0.91-1.03-1.81-2.08-2.68-3.17c-0.41-0.51-0.81-1.02-1.2-1.55c2.01-3.42,3.42-7.16,4.19-11.02
			c3.65,0.63,8.5,1.67,11.68,3.57l0.96-3.49c-3.82,0-8.65-1.67-12.18-3.03c0.39-3.44,0.27-6.85-0.32-10.14
			c6.09-1.87,14.88-4.69,21.35-3.92l-0.81-4.81c-5.9,2.87-15.22,3.1-21.95,3.33c-2.24-6.46-6.33-12.2-11.81-16.44
			c2.91-5.87,5.97-11.83,10.94-16.22c0.71-0.63,1.46-1.24,2.31-1.77l-5.75-4.17c-0.24,0.98-0.58,1.87-0.96,2.75
			c-2.68,6.2-7.57,11.1-12.35,15.77c-6.04-3.01-13.07-4.34-20.16-3.46c-1.68-4.41-3.05-8.21-3.4-12.61
			c-0.11-1.42-0.12-3.25,0.18-4.63l-3.58,0.52c0.36,0.65,0.67,1.47,0.9,2.17c1.62,4.97,1.3,10.27,0.88,15.55
			c-5.47,1.51-10.5,4.31-14.66,8.16c-3.22-1.54-9.8-4.53-12.26-9.03l-2.96,3.87c2.42,0.59,5.09,2.45,6.96,4.16
			c1.29,1.16,3.59,3.76,4.6,4.94c-4.41,5.55-6.92,12.16-7.54,18.8c-3.31,0.52-6.64,0.7-9.99,0.35c-3.13-0.34-7.06-1.32-9.43-2.91
			l-0.55,7.08c2.6-1.21,6.63-1.57,9.77-1.42c3.47,0.17,6.84,0.91,10.11,1.98c0.38,7.16,2.94,13.98,7.19,19.57
			c-1.99,2.9-6.16,9.04-10.16,12.45l3.58,3.31c2.77-3.8,7.97-8.14,11.22-10.75c3.83,3.41,8.47,6.04,13.72,7.55
			c-0.81,2.63-2.26,6.17-4.02,8.3l3.4,1.24c0.02-2.8,1.22-6.52,2.32-9.09c3.69,0.87,7.39,1.13,11,0.83c0.9,3.13,1.39,5.08,1.6,5.88
			c1.26,4.96,1.95,11.74,0.4,16.56L464.6,117.13z"/>
		<path class="st2" d="M470.07,42.68c-0.71,1.97-4.27,2.5-7.95,1.17c-3.68-1.33-6.08-4.01-5.37-5.98c0.71-1.97,4.27-2.5,7.95-1.17
			C468.38,38.03,470.78,40.71,470.07,42.68z"/>
		<path class="st2" d="M433.7,48.82c-1.01,2.78-3.27,4.51-5.07,3.86c-1.79-0.65-2.43-3.43-1.43-6.21c1-2.78,3.27-4.51,5.07-3.86
			C434.06,43.26,434.7,46.04,433.7,48.82z"/>
		<path class="st2" d="M449.94,77.54c-1.36,2.02-4.89,2.03-7.88,0.02c-2.99-2.01-4.32-5.28-2.96-7.3c1.36-2.02,4.89-2.03,7.88-0.02
			C449.98,72.25,451.3,75.52,449.94,77.54z"/>
		<path class="st2" d="M481.66,66.52c-1.2,3.32-3.77,5.43-5.74,4.72c-1.97-0.71-2.6-3.98-1.4-7.3c1.2-3.32,3.77-5.43,5.75-4.72
			C482.23,59.93,482.86,63.2,481.66,66.52z"/>
		<path class="st2" d="M470.82,76.81c-0.37-1.48-2.77-2.15-5.36-1.5c-2.59,0.65-4.39,2.38-4.02,3.86c0.37,1.48,2.77,2.15,5.36,1.5
			C469.39,80.02,471.19,78.29,470.82,76.81z"/>
		<path class="st2" d="M440.79,29.75c-1.6,0.61-2.65,1.76-2.35,2.56c0.31,0.8,1.86,0.95,3.46,0.34c1.6-0.61,2.65-1.76,2.35-2.56
			C443.94,29.29,442.4,29.14,440.79,29.75z"/>
		<path class="st2" d="M422.34,66.11c0.3,1.69,1.06,2.97,1.68,2.86c0.63-0.11,0.89-1.57,0.59-3.26c-0.3-1.69-1.06-2.97-1.68-2.86
			C422.31,62.96,422.04,64.42,422.34,66.11z"/>
		<path class="st2" d="M447.36,88.29c1.67,0.38,3.15,0.19,3.29-0.43c0.14-0.62-1.1-1.44-2.77-1.82c-1.67-0.38-3.15-0.19-3.29,0.43
			C444.44,87.09,445.68,87.91,447.36,88.29z"/>
		<path class="st2" d="M467.18,31.36c-0.32,0.9-2.55,0.91-4.97,0.04c-2.42-0.88-4.12-2.31-3.8-3.21c0.32-0.9,2.55-0.91,4.97-0.04
			C465.81,29.03,467.51,30.46,467.18,31.36z"/>
		<path class="st2" d="M445.54,55.67c-0.88,2.42-2.75,3.97-4.18,3.45c-1.44-0.52-1.89-2.9-1.01-5.32c0.88-2.42,2.75-3.96,4.18-3.45
			C445.97,50.87,446.42,53.25,445.54,55.67z"/>
		<path class="st2" d="M482.7,49.03c0.32,2.55-0.64,4.78-2.16,4.97c-1.51,0.19-3-1.72-3.33-4.28c-0.32-2.56,0.64-4.78,2.16-4.97
			C480.88,44.56,482.37,46.48,482.7,49.03z"/>
		<path class="st2" d="M463.87,63.58c0.21,2.95-2.16,5.52-5.3,5.75c-3.14,0.23-5.86-1.98-6.07-4.93c-0.21-2.95,2.16-5.52,5.3-5.75
			C460.94,58.43,463.65,60.64,463.87,63.58z"/>
	</g>
	<g>
		<path class="st1" d="M304.76,229.51c-4.83-1.33-7.67-6.33-6.34-11.16c1.33-4.83,6.33-7.67,11.16-6.34
			c4.83,1.33,7.67,6.33,6.34,11.16C314.59,228,309.6,230.84,304.76,229.51z"/>
		<path class="st1" d="M186.27,203.08c-4.83-1.33-7.67-6.33-6.34-11.16c1.33-4.83,6.33-7.67,11.16-6.34
			c4.83,1.33,7.67,6.33,6.34,11.16C196.11,201.57,191.11,204.41,186.27,203.08z"/>
		<path class="st1" d="M187.5,289.41c-4.83-1.33-7.67-6.33-6.34-11.16c1.33-4.83,6.33-7.67,11.16-6.34
			c4.83,1.33,7.67,6.33,6.34,11.16C197.33,287.9,192.34,290.74,187.5,289.41z"/>
		<path class="st1" d="M287.19,286.49c-5.79-1.59-9.2-7.59-7.6-13.38c1.59-5.79,7.59-9.2,13.38-7.6c5.79,1.59,9.2,7.59,7.6,13.38
			C298.97,284.68,292.98,288.09,287.19,286.49z"/>
		<path class="st1" d="M292.57,252.82c-3.16-1.35-4.63-5-3.28-8.16c1.35-3.16,5-4.63,8.16-3.28c3.16,1.35,4.63,5,3.28,8.16
			C299.38,252.7,295.73,254.17,292.57,252.82z"/>
		<path class="st1" d="M220.22,295.47c-3.31-0.91-5.26-4.33-4.34-7.65c0.91-3.31,4.33-5.26,7.65-4.34c3.31,0.91,5.26,4.33,4.34,7.65
			C226.96,294.44,223.53,296.38,220.22,295.47z"/>
		<path class="st1" d="M223.64,177.63c-3.31-0.91-5.26-4.33-4.34-7.65c0.91-3.31,4.33-5.26,7.65-4.34c3.31,0.91,5.26,4.33,4.35,7.65
			C230.37,176.6,226.95,178.54,223.64,177.63z"/>
		
			<ellipse transform="matrix(0.762 -0.6476 0.6476 0.762 -48.5441 221.1683)" class="st1" cx="276.59" cy="176.62" rx="13.99" ry="13.99"/>
		<path class="st1" d="M167.59,248.47c-7.45-2.05-11.83-9.75-9.78-17.2c2.05-7.45,9.75-11.83,17.2-9.78
			c7.45,2.05,11.83,9.75,9.78,17.2S175.04,250.52,167.59,248.47z"/>
		<path class="st1" d="M243.31,321.42c-7.45-2.05-11.83-9.75-9.78-17.2s9.75-11.83,17.2-9.78c7.45,2.05,11.83,9.75,9.78,17.2
			C258.46,319.1,250.76,323.48,243.31,321.42z"/>
		<path class="st1" d="M251.72,306.64c-1.46-2.24-2.57-5.2-3.29-7.8c-1.08-3.91-1.61-8.07-1.69-12.14c0-0.89-0.07-3.49-0.02-7.68
			c9.2-2.12,17.54-7.18,23.68-14.41c0.69,0.27,1.37,0.54,2.05,0.83c1.59,0.66,3.15,1.37,4.69,2.11c4.24,2.08,9.36,5.79,11.41,9.87
			l3.64-4.83c-0.92-0.17-1.75-0.46-2.55-0.79c-0.8-0.33-1.56-0.7-2.3-1.11c-1.47-0.82-2.84-1.78-4.14-2.85
			c-1.29-1.07-2.5-2.24-3.64-3.5c-1.13-1.27-2.24-2.58-3.32-3.93c-0.5-0.63-1-1.27-1.49-1.92c2.49-4.25,4.24-8.88,5.2-13.67
			c4.53,0.78,10.54,2.07,14.49,4.43l1.19-4.33c-4.74,0-10.72-2.07-15.1-3.76c0.49-4.26,0.33-8.49-0.39-12.58
			c7.55-2.32,18.45-5.81,26.49-4.87l-1.01-5.96c-7.32,3.56-18.88,3.84-27.22,4.13c-2.78-8.01-7.85-15.14-14.65-20.39
			c3.61-7.28,7.41-14.67,13.57-20.12c0.89-0.78,1.81-1.54,2.87-2.19l-7.13-5.17c-0.3,1.21-0.72,2.32-1.19,3.41
			c-3.33,7.69-9.39,13.77-15.32,19.55c-7.49-3.73-16.21-5.39-25-4.3c-2.08-5.47-3.78-10.18-4.22-15.64
			c-0.13-1.76-0.15-4.03,0.22-5.75l-4.44,0.64c0.44,0.81,0.83,1.82,1.11,2.7c2.01,6.16,1.61,12.74,1.1,19.29
			c-6.78,1.87-13.03,5.35-18.19,10.12c-3.99-1.9-12.15-5.62-15.21-11.2l-3.68,4.8c3,0.73,6.31,3.04,8.64,5.16
			c1.6,1.44,4.45,4.67,5.71,6.13c-5.48,6.88-8.58,15.08-9.35,23.31c-4.1,0.64-8.23,0.87-12.39,0.43c-3.88-0.42-8.75-1.64-11.7-3.61
			l-0.68,8.78c3.22-1.5,8.22-1.95,12.11-1.76c4.3,0.21,8.49,1.13,12.53,2.46c0.47,8.89,3.64,17.34,8.92,24.27
			c-2.47,3.6-7.64,11.21-12.6,15.45l4.44,4.11c3.44-4.72,9.89-10.09,13.91-13.34c4.75,4.23,10.5,7.49,17.01,9.36
			c-1.01,3.26-2.8,7.65-4.99,10.29l4.22,1.54c0.03-3.47,1.52-8.09,2.87-11.28c4.58,1.08,9.17,1.4,13.64,1.03
			c1.12,3.89,1.72,6.3,1.99,7.29c1.56,6.16,2.42,14.56,0.5,20.54L251.72,306.64z"/>
		<path class="st2" d="M258.5,214.31c-0.88,2.45-5.3,3.1-9.86,1.45c-4.56-1.65-7.54-4.97-6.66-7.42c0.88-2.45,5.3-3.1,9.86-1.45
			C256.4,208.54,259.38,211.86,258.5,214.31z"/>
		<path class="st2" d="M213.38,221.92c-1.25,3.45-4.06,5.59-6.29,4.79c-2.23-0.8-3.02-4.25-1.77-7.7c1.25-3.45,4.06-5.59,6.29-4.79
			C213.83,215.03,214.63,218.47,213.38,221.92z"/>
		<path class="st2" d="M233.53,257.55c-1.68,2.51-6.06,2.52-9.78,0.02c-3.71-2.5-5.36-6.55-3.67-9.06c1.68-2.51,6.06-2.52,9.78-0.02
			C233.57,250.99,235.22,255.04,233.53,257.55z"/>
		<path class="st2" d="M272.87,243.87c-1.49,4.12-4.68,6.74-7.13,5.85c-2.45-0.88-3.23-4.94-1.74-9.06s4.68-6.74,7.13-5.85
			C273.58,235.7,274.36,239.76,272.87,243.87z"/>
		<path class="st2" d="M259.42,256.63c-0.46-1.84-3.44-2.67-6.65-1.86c-3.21,0.81-5.44,2.95-4.98,4.79
			c0.46,1.84,3.44,2.67,6.65,1.86C257.66,260.61,259.89,258.47,259.42,256.63z"/>
		<path class="st2" d="M222.18,198.27c-1.99,0.76-3.29,2.19-2.91,3.18c0.38,0.99,2.3,1.18,4.29,0.42c1.99-0.76,3.29-2.19,2.91-3.18
			C226.09,197.7,224.17,197.51,222.18,198.27z"/>
		<path class="st2" d="M199.3,243.37c0.37,2.1,1.31,3.68,2.09,3.54c0.78-0.14,1.11-1.95,0.73-4.05c-0.37-2.1-1.31-3.68-2.09-3.54
			C199.25,239.46,198.93,241.27,199.3,243.37z"/>
		<path class="st2" d="M230.32,270.88c2.08,0.48,3.9,0.24,4.08-0.54s-1.36-1.78-3.44-2.26c-2.08-0.48-3.9-0.24-4.08,0.54
			C226.71,269.39,228.25,270.4,230.32,270.88z"/>
		<path class="st2" d="M254.92,200.26c-0.4,1.11-3.16,1.13-6.17,0.05c-3-1.09-5.11-2.87-4.71-3.98c0.4-1.11,3.16-1.13,6.17-0.05
			C253.21,197.37,255.32,199.15,254.92,200.26z"/>
		<path class="st2" d="M228.08,230.42c-1.09,3-3.41,4.92-5.19,4.27c-1.78-0.64-2.34-3.6-1.26-6.6c1.09-3,3.41-4.92,5.19-4.27
			C228.6,224.46,229.16,227.42,228.08,230.42z"/>
		<path class="st2" d="M274.16,222.18c0.4,3.17-0.8,5.93-2.67,6.17c-1.88,0.24-3.73-2.14-4.13-5.31c-0.4-3.17,0.8-5.93,2.67-6.17
			C271.91,216.64,273.76,219.01,274.16,222.18z"/>
		<path class="st2" d="M250.8,240.23c0.27,3.66-2.68,6.85-6.57,7.13c-3.89,0.28-7.27-2.45-7.53-6.11c-0.27-3.66,2.68-6.85,6.57-7.13
			C247.17,233.84,250.54,236.57,250.8,240.23z"/>
	</g>
	<g>
		<path class="st1" d="M707.92,427.9c-4.72-1.3-7.5-6.18-6.2-10.91c1.3-4.72,6.18-7.5,10.91-6.2c4.72,1.3,7.5,6.18,6.2,10.91
			C717.53,426.42,712.64,429.2,707.92,427.9z"/>
		<path class="st1" d="M592.12,402.06c-4.72-1.3-7.5-6.18-6.2-10.91c1.3-4.72,6.18-7.5,10.91-6.2c4.72,1.3,7.5,6.18,6.2,10.91
			C601.73,400.59,596.84,403.36,592.12,402.06z"/>
		<path class="st1" d="M593.32,486.44c-4.72-1.3-7.5-6.18-6.2-10.91c1.3-4.72,6.18-7.5,10.91-6.2c4.72,1.3,7.5,6.18,6.2,10.91
			C602.93,484.96,598.04,487.74,593.32,486.44z"/>
		<path class="st1" d="M690.74,483.58c-5.66-1.56-8.99-7.41-7.43-13.08c1.56-5.66,7.41-8.99,13.08-7.43
			c5.66,1.56,8.99,7.41,7.43,13.08C702.26,481.82,696.41,485.14,690.74,483.58z"/>
		<path class="st1" d="M696,450.68c-3.09-1.32-4.52-4.89-3.21-7.97c1.32-3.09,4.89-4.52,7.97-3.21c3.09,1.32,4.52,4.89,3.21,7.97
			C702.66,450.56,699.09,451.99,696,450.68z"/>
		<path class="st1" d="M625.3,492.36c-3.24-0.89-5.14-4.24-4.25-7.47c0.89-3.24,4.24-5.14,7.47-4.25c3.24,0.89,5.14,4.24,4.25,7.47
			C631.88,491.35,628.53,493.25,625.3,492.36z"/>
		<path class="st1" d="M628.63,377.19c-3.24-0.89-5.14-4.24-4.25-7.47c0.89-3.24,4.24-5.14,7.47-4.25c3.24,0.89,5.14,4.24,4.25,7.47
			C635.21,376.18,631.87,378.08,628.63,377.19z"/>
		<path class="st1" d="M676.75,389.39c-7.28-2-11.56-9.53-9.55-16.81c2-7.28,9.53-11.56,16.81-9.55c7.28,2,11.56,9.53,9.55,16.81
			C691.56,387.11,684.03,391.39,676.75,389.39z"/>
		<path class="st1" d="M573.86,446.42c-7.28-2-11.56-9.53-9.55-16.81c2-7.28,9.53-11.56,16.81-9.55c7.28,2,11.56,9.53,9.55,16.81
			C588.67,444.15,581.14,448.43,573.86,446.42z"/>
		<path class="st1" d="M647.86,517.73c-7.28-2-11.56-9.53-9.55-16.81c2-7.28,9.53-11.56,16.81-9.55c7.28,2,11.56,9.53,9.55,16.81
			C662.66,515.45,655.14,519.73,647.86,517.73z"/>
		<path class="st1" d="M656.08,503.28c-1.43-2.19-2.51-5.08-3.22-7.62c-1.05-3.82-1.57-7.88-1.65-11.86c0-0.87-0.07-3.41-0.02-7.51
			c9-2.07,17.15-7.02,23.14-14.08c0.67,0.26,1.34,0.53,2,0.81c1.56,0.65,3.08,1.34,4.59,2.06c4.14,2.03,9.15,5.66,11.15,9.64
			l3.55-4.72c-0.9-0.17-1.71-0.45-2.49-0.77c-0.78-0.32-1.53-0.69-2.25-1.08c-1.44-0.8-2.78-1.74-4.04-2.78
			c-1.26-1.04-2.44-2.19-3.56-3.42c-1.11-1.25-2.19-2.52-3.24-3.84c-0.49-0.62-0.98-1.24-1.46-1.87c2.44-4.15,4.14-8.67,5.08-13.36
			c4.42,0.76,10.3,2.03,14.16,4.33l1.17-4.23c-4.63,0-10.48-2.02-14.76-3.67c0.48-4.17,0.33-8.3-0.38-12.29
			c7.38-2.27,18.03-5.68,25.89-4.76l-0.98-5.83c-7.16,3.48-18.46,3.75-26.61,4.04c-2.72-7.83-7.67-14.79-14.31-19.92
			c3.53-7.12,7.24-14.34,13.26-19.66c0.87-0.76,1.77-1.5,2.8-2.14l-6.97-5.05c-0.29,1.18-0.71,2.27-1.17,3.33
			c-3.25,7.51-9.18,13.45-14.97,19.11c-7.32-3.65-15.84-5.27-24.43-4.2c-2.03-5.35-3.7-9.95-4.12-15.28
			c-0.13-1.72-0.15-3.94,0.22-5.62l-4.34,0.63c0.43,0.79,0.81,1.78,1.09,2.64c1.96,6.02,1.57,12.45,1.07,18.85
			c-6.63,1.83-12.73,5.23-17.78,9.89c-3.9-1.86-11.88-5.49-14.87-10.95l-3.59,4.69c2.93,0.71,6.17,2.97,8.44,5.04
			c1.56,1.41,4.35,4.56,5.58,5.99c-5.35,6.73-8.39,14.74-9.14,22.79c-4.01,0.62-8.05,0.85-12.11,0.42c-3.8-0.41-8.56-1.6-11.43-3.53
			l-0.67,8.58c3.15-1.46,8.04-1.9,11.84-1.72c4.21,0.21,8.29,1.11,12.25,2.4c0.46,8.69,3.56,16.94,8.71,23.72
			c-2.41,3.51-7.47,10.96-12.32,15.1l4.34,4.01c3.36-4.61,9.66-9.86,13.6-13.04c4.64,4.14,10.26,7.32,16.63,9.15
			c-0.99,3.19-2.74,7.47-4.87,10.06l4.12,1.5c0.03-3.39,1.48-7.91,2.81-11.02c4.47,1.06,8.96,1.36,13.33,1
			c1.09,3.8,1.68,6.16,1.94,7.13c1.53,6.02,2.36,14.23,0.49,20.08L656.08,503.28z"/>
		<path class="st2" d="M662.7,413.04c-0.86,2.39-5.18,3.03-9.64,1.41c-4.46-1.61-7.37-4.86-6.51-7.25c0.86-2.39,5.18-3.03,9.64-1.41
			C660.65,407.4,663.57,410.65,662.7,413.04z"/>
		<path class="st2" d="M618.61,420.48c-1.22,3.37-3.97,5.47-6.14,4.68c-2.17-0.79-2.95-4.16-1.73-7.53
			c1.22-3.37,3.97-5.47,6.14-4.68C619.05,413.74,619.83,417.11,618.61,420.48z"/>
		<path class="st2" d="M638.31,455.3c-1.65,2.45-5.92,2.46-9.55,0.02c-3.63-2.44-5.24-6.4-3.59-8.85c1.65-2.45,5.92-2.46,9.55-0.02
			C638.34,448.88,639.95,452.85,638.31,455.3z"/>
		<path class="st2" d="M676.75,441.93c-1.45,4.02-4.57,6.58-6.96,5.72c-2.39-0.86-3.15-4.83-1.7-8.85s4.57-6.58,6.96-5.72
			C677.44,433.95,678.2,437.91,676.75,441.93z"/>
		<path class="st2" d="M663.61,454.4c-0.45-1.79-3.36-2.61-6.5-1.82c-3.14,0.79-5.32,2.88-4.87,4.68c0.45,1.79,3.36,2.61,6.5,1.82
			C661.88,458.29,664.06,456.2,663.61,454.4z"/>
		<path class="st2" d="M627.21,397.36c-1.94,0.74-3.22,2.14-2.84,3.11c0.37,0.97,2.25,1.15,4.19,0.41c1.94-0.75,3.22-2.14,2.84-3.11
			C631.03,396.8,629.16,396.62,627.21,397.36z"/>
		<path class="st2" d="M604.85,441.44c0.37,2.05,1.28,3.6,2.04,3.46c0.76-0.14,1.08-1.91,0.72-3.96c-0.37-2.05-1.28-3.6-2.04-3.46
			C604.8,437.62,604.48,439.39,604.85,441.44z"/>
		<path class="st2" d="M635.17,468.32c2.03,0.47,3.81,0.23,3.99-0.52c0.17-0.75-1.33-1.74-3.36-2.21c-2.03-0.46-3.81-0.23-3.99,0.52
			C631.64,466.87,633.14,467.86,635.17,468.32z"/>
		<path class="st2" d="M659.21,399.31c-0.39,1.09-3.09,1.11-6.03,0.05c-2.94-1.06-5-2.8-4.6-3.89c0.39-1.09,3.09-1.11,6.03-0.05
			C657.54,396.48,659.6,398.22,659.21,399.31z"/>
		<path class="st2" d="M632.97,428.79c-1.06,2.94-3.33,4.81-5.07,4.18c-1.74-0.63-2.29-3.52-1.23-6.45
			c1.06-2.94,3.33-4.81,5.07-4.18C633.48,422.96,634.03,425.85,632.97,428.79z"/>
		<path class="st2" d="M678.01,420.73c0.39,3.1-0.78,5.8-2.61,6.03c-1.84,0.23-3.64-2.09-4.03-5.19c-0.39-3.1,0.78-5.8,2.61-6.03
			C675.81,415.31,677.62,417.64,678.01,420.73z"/>
		<path class="st2" d="M655.18,438.37c0.26,3.57-2.62,6.7-6.42,6.97c-3.81,0.28-7.1-2.4-7.36-5.97c-0.26-3.57,2.62-6.7,6.42-6.97
			S654.92,434.8,655.18,438.37z"/>
	</g>
	<g>
		<path class="st1" d="M700.72,179.16c-2.62-0.72-4.16-3.43-3.44-6.05c0.72-2.62,3.43-4.16,6.05-3.44c2.62,0.72,4.16,3.43,3.44,6.05
			C706.06,178.34,703.35,179.88,700.72,179.16z"/>
		<path class="st1" d="M636.44,164.82c-2.62-0.72-4.16-3.43-3.44-6.05c0.72-2.62,3.43-4.16,6.05-3.44c2.62,0.72,4.16,3.43,3.44,6.05
			C641.78,164,639.07,165.54,636.44,164.82z"/>
		
			<ellipse transform="matrix(0.1754 -0.9845 0.9845 0.1754 322.7654 799.1447)" class="st1" cx="638.42" cy="206.9" rx="4.92" ry="4.92"/>
		<path class="st1" d="M691.19,210.07c-3.14-0.87-4.99-4.12-4.13-7.26c0.87-3.14,4.11-4.99,7.26-4.13c3.14,0.87,4.99,4.11,4.12,7.26
			C697.58,209.09,694.33,210.93,691.19,210.07z"/>
		<path class="st1" d="M694.11,191.8c-1.71-0.73-2.51-2.71-1.78-4.43c0.73-1.71,2.71-2.51,4.43-1.78c1.71,0.73,2.51,2.71,1.78,4.43
			C697.8,191.74,695.82,192.53,694.11,191.8z"/>
		<path class="st1" d="M654.86,214.94c-1.8-0.49-2.85-2.35-2.36-4.15c0.49-1.8,2.35-2.85,4.15-2.36s2.85,2.35,2.36,4.15
			C658.51,214.38,656.66,215.43,654.86,214.94z"/>
		<path class="st1" d="M656.71,151.01c-1.8-0.49-2.85-2.35-2.36-4.15c0.49-1.8,2.35-2.85,4.15-2.36c1.8,0.49,2.85,2.35,2.36,4.15
			C660.37,150.45,658.51,151.51,656.71,151.01z"/>
		<path class="st1" d="M683.42,157.78c-4.04-1.11-6.42-5.29-5.3-9.33c1.11-4.04,5.29-6.42,9.33-5.3c4.04,1.11,6.42,5.29,5.3,9.33
			C691.64,156.52,687.46,158.89,683.42,157.78z"/>
		<path class="st1" d="M626.31,189.44c-4.04-1.11-6.42-5.29-5.3-9.33c1.11-4.04,5.29-6.42,9.33-5.3c4.04,1.11,6.42,5.29,5.3,9.33
			C634.53,188.18,630.35,190.55,626.31,189.44z"/>
		<path class="st1" d="M667.38,229.02c-4.04-1.11-6.42-5.29-5.3-9.33c1.11-4.04,5.29-6.42,9.33-5.3c4.04,1.11,6.42,5.29,5.3,9.33
			C675.6,227.76,671.42,230.13,667.38,229.02z"/>
		<path class="st1" d="M671.94,221c-0.79-1.22-1.39-2.82-1.79-4.23c-0.59-2.12-0.87-4.38-0.92-6.58c0-0.48-0.04-1.89-0.01-4.17
			c4.99-1.15,9.52-3.89,12.84-7.82c0.37,0.15,0.74,0.3,1.11,0.45c0.86,0.36,1.71,0.74,2.55,1.14c2.3,1.13,5.08,3.14,6.19,5.35
			l1.97-2.62c-0.5-0.09-0.95-0.25-1.38-0.43c-0.43-0.18-0.85-0.38-1.25-0.6c-0.8-0.45-1.54-0.97-2.24-1.54
			c-0.7-0.58-1.36-1.21-1.98-1.9c-0.61-0.69-1.22-1.4-1.8-2.13c-0.27-0.34-0.54-0.69-0.81-1.04c1.35-2.3,2.3-4.81,2.82-7.41
			c2.45,0.42,5.72,1.13,7.86,2.4l0.65-2.35c-2.57,0-5.82-1.12-8.19-2.04c0.26-2.31,0.18-4.61-0.21-6.82
			c4.09-1.26,10.01-3.15,14.37-2.64l-0.55-3.23c-3.97,1.93-10.24,2.08-14.77,2.24c-1.51-4.35-4.26-8.21-7.94-11.06
			c1.96-3.95,4.02-7.96,7.36-10.91c0.48-0.42,0.98-0.83,1.56-1.19l-3.87-2.81c-0.16,0.66-0.39,1.26-0.65,1.85
			c-1.8,4.17-5.1,7.47-8.31,10.61c-4.06-2.02-8.79-2.92-13.56-2.33c-1.13-2.97-2.05-5.52-2.29-8.48c-0.07-0.96-0.08-2.19,0.12-3.12
			l-2.41,0.35c0.24,0.44,0.45,0.99,0.6,1.46c1.09,3.34,0.87,6.91,0.59,10.46c-3.68,1.01-7.07,2.9-9.87,5.49
			c-2.16-1.03-6.59-3.05-8.25-6.08l-1.99,2.6c1.63,0.4,3.42,1.65,4.69,2.8c0.87,0.78,2.41,2.53,3.1,3.33
			c-2.97,3.73-4.66,8.18-5.07,12.65c-2.22,0.35-4.47,0.47-6.72,0.23c-2.11-0.23-4.75-0.89-6.35-1.96l-0.37,4.76
			c1.75-0.81,4.46-1.06,6.57-0.95c2.33,0.12,4.6,0.62,6.8,1.33c0.25,4.82,1.98,9.41,4.84,13.17c-1.34,1.95-4.15,6.08-6.84,8.38
			l2.41,2.23c1.86-2.56,5.36-5.47,7.55-7.24c2.58,2.3,5.7,4.06,9.23,5.08c-0.55,1.77-1.52,4.15-2.7,5.58l2.29,0.83
			c0.02-1.88,0.82-4.39,1.56-6.12c2.48,0.59,4.98,0.76,7.4,0.56c0.61,2.11,0.94,3.42,1.08,3.96c0.85,3.34,1.31,7.9,0.27,11.14
			L671.94,221z"/>
		<path class="st2" d="M675.62,170.91c-0.48,1.33-2.88,1.68-5.35,0.79c-2.47-0.89-4.09-2.7-3.61-4.02c0.48-1.33,2.88-1.68,5.35-0.79
			C674.49,167.78,676.1,169.58,675.62,170.91z"/>
		<path class="st2" d="M651.15,175.04c-0.68,1.87-2.2,3.03-3.41,2.6c-1.21-0.44-1.64-2.31-0.96-4.18c0.68-1.87,2.2-3.03,3.41-2.6
			C651.39,171.3,651.83,173.17,651.15,175.04z"/>
		<path class="st2" d="M662.08,194.37c-0.91,1.36-3.29,1.36-5.3,0.01c-2.01-1.35-2.91-3.55-1.99-4.91s3.29-1.36,5.3-0.01
			C662.1,190.81,663,193.01,662.08,194.37z"/>
		<path class="st2" d="M683.42,186.95c-0.81,2.23-2.54,3.65-3.87,3.17c-1.33-0.48-1.75-2.68-0.94-4.91
			c0.81-2.23,2.54-3.65,3.87-3.17C683.8,182.52,684.23,184.72,683.42,186.95z"/>
		<path class="st2" d="M676.13,193.87c-0.25-1-1.87-1.45-3.61-1.01c-1.74,0.44-2.95,1.6-2.7,2.6c0.25,1,1.87,1.45,3.61,1.01
			C675.17,196.03,676.38,194.87,676.13,193.87z"/>
		<path class="st2" d="M655.92,162.21c-1.08,0.41-1.79,1.19-1.58,1.73c0.21,0.54,1.25,0.64,2.33,0.23c1.08-0.41,1.78-1.19,1.58-1.73
			C658.04,161.9,657,161.8,655.92,162.21z"/>
		<path class="st2" d="M643.51,186.68c0.2,1.14,0.71,2,1.13,1.92c0.42-0.08,0.6-1.06,0.4-2.2c-0.2-1.14-0.71-2-1.13-1.92
			C643.48,184.56,643.31,185.54,643.51,186.68z"/>
		<path class="st2" d="M660.34,201.6c1.13,0.26,2.12,0.13,2.21-0.29c0.1-0.42-0.74-0.97-1.87-1.23c-1.13-0.26-2.12-0.13-2.21,0.29
			C658.38,200.79,659.21,201.34,660.34,201.6z"/>
		<path class="st2" d="M673.68,163.29c-0.22,0.6-1.72,0.62-3.35,0.03c-1.63-0.59-2.77-1.56-2.56-2.16c0.22-0.6,1.72-0.62,3.35-0.03
			C672.76,161.72,673.9,162.69,673.68,163.29z"/>
		<path class="st2" d="M659.12,179.65c-0.59,1.63-1.85,2.67-2.82,2.32c-0.97-0.35-1.27-1.95-0.68-3.58
			c0.59-1.63,1.85-2.67,2.82-2.32C659.4,176.42,659.71,178.02,659.12,179.65z"/>
		<path class="st2" d="M684.12,175.18c0.22,1.72-0.43,3.22-1.45,3.35c-1.02,0.13-2.02-1.16-2.24-2.88
			c-0.22-1.72,0.43-3.22,1.45-3.35C682.9,172.17,683.9,173.46,684.12,175.18z"/>
		<path class="st2" d="M671.45,184.97c0.14,1.98-1.45,3.72-3.56,3.87c-2.11,0.15-3.94-1.33-4.09-3.31
			c-0.14-1.98,1.45-3.72,3.56-3.87C669.48,181.51,671.31,182.99,671.45,184.97z"/>
	</g>
	<g>
		<path class="st3" d="M242.99,361.39c0,2.45-1.99,4.44-4.44,4.44c-2.45,0-4.44-1.99-4.44-4.44c0-2.45,1.99-4.44,4.44-4.44
			C241,356.95,242.99,358.94,242.99,361.39z"/>
		<path class="st3" d="M245.9,420.69c0,2.45-1.99,4.44-4.44,4.44c-2.45,0-4.44-1.99-4.44-4.44s1.99-4.44,4.44-4.44
			C243.92,416.25,245.9,418.24,245.9,420.69z"/>
		<circle class="st3" cx="282.01" cy="408.91" r="4.44"/>
		<path class="st3" d="M272.14,362.28c0,2.94-2.38,5.32-5.32,5.32c-2.94,0-5.32-2.38-5.32-5.32c0-2.94,2.38-5.32,5.32-5.32
			C269.76,356.96,272.14,359.34,272.14,362.28z"/>
		<path class="st3" d="M255.56,364.11c-0.22,1.66-1.76,2.83-3.42,2.61c-1.66-0.22-2.83-1.76-2.61-3.42
			c0.23-1.66,1.76-2.83,3.42-2.61C254.62,360.92,255.79,362.45,255.56,364.11z"/>
		<path class="st3" d="M285.06,392.69c0,1.68-1.36,3.04-3.04,3.04c-1.68,0-3.04-1.36-3.04-3.04c0-1.68,1.36-3.04,3.04-3.04
			C283.7,389.65,285.06,391.01,285.06,392.69z"/>
		<path class="st3" d="M229.05,406.38c0,1.68-1.36,3.04-3.04,3.04c-1.68,0-3.04-1.36-3.04-3.04c0-1.68,1.36-3.04,3.04-3.04
			C227.69,403.34,229.05,404.7,229.05,406.38z"/>
		<path class="st3" d="M228.55,381.54c0,3.78-3.06,6.84-6.84,6.84c-3.78,0-6.84-3.06-6.84-6.84c0-3.78,3.06-6.84,6.84-6.84
			C225.48,374.7,228.55,377.76,228.55,381.54z"/>
		<path class="st3" d="M269.73,423.61c0,3.78-3.06,6.84-6.84,6.84c-3.78,0-6.84-3.06-6.84-6.84c0-3.78,3.06-6.84,6.84-6.84
			C266.67,416.77,269.73,419.83,269.73,423.61z"/>
		<path class="st3" d="M293.81,377.36c0,3.78-3.06,6.84-6.84,6.84c-3.78,0-6.84-3.06-6.84-6.84c0-3.78,3.06-6.84,6.84-6.84
			C290.74,370.52,293.81,373.58,293.81,377.36z"/>
		<path class="st3" d="M286.25,376.39c-0.87,0.98-2.12,1.88-3.25,2.57c-1.7,1.02-3.6,1.8-5.5,2.37c-0.42,0.12-1.64,0.49-3.62,1.01
			c-2.19-4.06-5.66-7.34-9.87-9.29c0.04-0.36,0.08-0.72,0.12-1.07c0.11-0.84,0.24-1.67,0.38-2.49c0.43-2.27,1.51-5.17,3.17-6.66
			l-2.75-1.09c0.04,0.45,0.01,0.88-0.04,1.3c-0.05,0.42-0.13,0.83-0.22,1.23c-0.2,0.8-0.47,1.57-0.81,2.32
			c-0.33,0.75-0.73,1.47-1.18,2.17c-0.45,0.7-0.93,1.39-1.42,2.08c-0.23,0.32-0.47,0.64-0.71,0.95c-2.33-0.62-4.74-0.85-7.12-0.68
			c-0.22-2.24-0.39-5.24,0.21-7.41h-2.2c0.62,2.24,0.42,5.33,0.19,7.61c-2.07,0.32-4.05,0.94-5.88,1.82
			c-2.07-3.26-5.14-7.95-5.73-11.86l-2.68,1.25c2.63,2.99,4.26,8.41,5.48,12.3c-3.42,2.35-6.12,5.67-7.71,9.55
			c-3.9-0.76-7.88-1.59-11.25-3.79c-0.48-0.32-0.96-0.65-1.41-1.07l-1.51,4.03c0.61-0.02,1.19,0.04,1.76,0.12
			c4.06,0.57,7.71,2.64,11.21,4.69c-0.79,4.02-0.44,8.34,1.22,12.35c-2.31,1.69-4.31,3.11-6.83,4.02c-0.81,0.29-1.88,0.59-2.74,0.64
			l0.88,2.01c0.32-0.31,0.75-0.63,1.13-0.87c2.65-1.75,5.8-2.41,8.95-3.02c1.76,2.95,4.21,5.45,7.13,7.26
			c-0.38,2.13-1.07,6.46-3.31,8.63l2.74,1.11c-0.05-1.51,0.61-3.37,1.31-4.74c0.47-0.94,1.62-2.7,2.15-3.49
			c3.96,1.69,8.23,2.09,12.21,1.38c0.83,1.85,1.48,3.77,1.81,5.79c0.31,1.89,0.36,4.34-0.18,5.98l4.23-0.82
			c-1.12-1.33-1.99-3.63-2.4-5.48c-0.46-2.06-0.57-4.15-0.47-6.23c4.13-1.37,7.7-3.97,10.29-7.36c2.02,0.7,6.28,2.15,8.92,3.94
			l1.36-2.63c-2.67-1.01-6.04-3.35-8.1-4.83c1.38-2.79,2.17-5.92,2.21-9.24c1.67,0.05,3.97,0.33,5.5,1.01l0.18-2.19
			c-1.64,0.44-4.01,0.33-5.69,0.11c-0.09-2.3-0.53-4.51-1.29-6.57c1.69-1.03,2.75-1.63,3.18-1.88c2.7-1.54,6.55-3.03,9.62-2.9
			L286.25,376.39z"/>
	</g>
	<g>
		<path class="st3" d="M559.8,77.73c0,1.48-1.2,2.68-2.68,2.68s-2.68-1.2-2.68-2.68c0-1.48,1.2-2.68,2.68-2.68
			S559.8,76.25,559.8,77.73z"/>
		<path class="st3" d="M561.56,113.53c0,1.48-1.2,2.68-2.68,2.68c-1.48,0-2.68-1.2-2.68-2.68c0-1.48,1.2-2.68,2.68-2.68
			C560.36,110.85,561.56,112.05,561.56,113.53z"/>
		<circle class="st3" cx="583.36" cy="106.41" r="2.68"/>
		<path class="st3" d="M577.4,78.26c0,1.77-1.44,3.21-3.21,3.21c-1.77,0-3.21-1.44-3.21-3.21c0-1.77,1.44-3.21,3.21-3.21
			C575.96,75.05,577.4,76.49,577.4,78.26z"/>
		<path class="st3" d="M567.39,79.37c-0.14,1-1.06,1.71-2.06,1.57c-1.01-0.14-1.71-1.06-1.57-2.07c0.14-1.01,1.06-1.71,2.07-1.57
			S567.52,78.37,567.39,79.37z"/>
		<circle class="st3" cx="583.36" cy="96.62" r="1.84"/>
		<circle class="st3" cx="549.55" cy="104.88" r="1.84"/>
		<path class="st3" d="M551.08,89.89c0,2.28-1.85,4.13-4.13,4.13c-2.28,0-4.13-1.85-4.13-4.13c0-2.28,1.85-4.13,4.13-4.13
			C549.23,85.76,551.08,87.61,551.08,89.89z"/>
		<path class="st3" d="M575.94,115.29c0,2.28-1.85,4.13-4.13,4.13c-2.28,0-4.13-1.85-4.13-4.13c0-2.28,1.85-4.13,4.13-4.13
			C574.09,111.16,575.94,113.01,575.94,115.29z"/>
		<path class="st3" d="M590.48,87.37c0,2.28-1.85,4.13-4.13,4.13c-2.28,0-4.13-1.85-4.13-4.13s1.85-4.13,4.13-4.13
			C588.63,83.24,590.48,85.09,590.48,87.37z"/>
		<path class="st3" d="M585.91,86.78c-0.52,0.59-1.28,1.14-1.96,1.55c-1.03,0.61-2.17,1.09-3.32,1.43
			c-0.25,0.07-0.99,0.29-2.19,0.61c-1.32-2.45-3.42-4.43-5.96-5.61c0.02-0.22,0.05-0.43,0.07-0.65c0.06-0.51,0.14-1.01,0.23-1.5
			c0.26-1.37,0.91-3.12,1.91-4.02l-1.66-0.66c0.02,0.27,0.01,0.53-0.02,0.79c-0.03,0.25-0.08,0.5-0.14,0.74
			c-0.12,0.48-0.28,0.95-0.49,1.4c-0.2,0.45-0.44,0.89-0.71,1.31c-0.27,0.42-0.56,0.84-0.86,1.25c-0.14,0.19-0.28,0.38-0.43,0.58
			c-1.4-0.38-2.86-0.51-4.3-0.41c-0.13-1.35-0.24-3.16,0.13-4.47l-1.33,0c0.37,1.35,0.25,3.21,0.11,4.59
			c-1.25,0.2-2.44,0.57-3.55,1.1c-1.25-1.97-3.1-4.8-3.46-7.16l-1.62,0.75c1.59,1.81,2.57,5.07,3.31,7.43
			c-2.06,1.42-3.69,3.42-4.66,5.77c-2.36-0.46-4.76-0.96-6.79-2.29c-0.29-0.19-0.58-0.4-0.85-0.64l-0.91,2.44
			c0.37-0.01,0.72,0.02,1.06,0.07c2.45,0.34,4.66,1.6,6.77,2.83c-0.48,2.42-0.26,5.04,0.74,7.45c-1.39,1.02-2.6,1.87-4.12,2.43
			c-0.49,0.18-1.14,0.36-1.65,0.39l0.53,1.21c0.2-0.19,0.45-0.38,0.68-0.53c1.6-1.05,3.5-1.46,5.4-1.82
			c1.06,1.78,2.54,3.29,4.3,4.39c-0.23,1.28-0.65,3.9-2,5.21l1.65,0.67c-0.03-0.91,0.37-2.03,0.79-2.86
			c0.28-0.57,0.98-1.63,1.3-2.11c2.39,1.02,4.97,1.26,7.37,0.83c0.5,1.12,0.89,2.28,1.09,3.49c0.19,1.14,0.22,2.62-0.11,3.61
			l2.55-0.49c-0.68-0.8-1.2-2.19-1.45-3.31c-0.28-1.24-0.34-2.5-0.28-3.76c2.49-0.83,4.65-2.4,6.21-4.44
			c1.22,0.42,3.79,1.3,5.38,2.38l0.82-1.58c-1.61-0.61-3.65-2.02-4.89-2.92c0.83-1.68,1.31-3.58,1.33-5.58
			c1.01,0.03,2.4,0.2,3.32,0.61l0.11-1.32c-0.99,0.26-2.42,0.2-3.43,0.07c-0.05-1.39-0.32-2.72-0.78-3.96
			c1.02-0.62,1.66-0.98,1.92-1.14c1.63-0.93,3.95-1.83,5.81-1.75L585.91,86.78z"/>
	</g>
	<g>
		<path class="st3" d="M649.87,270.1c0,1.67-1.36,3.03-3.03,3.03s-3.03-1.35-3.03-3.03c0-1.67,1.35-3.03,3.03-3.03
			S649.87,268.43,649.87,270.1z"/>
		<path class="st3" d="M651.86,310.53c0,1.67-1.35,3.03-3.03,3.03c-1.67,0-3.03-1.35-3.03-3.03c0-1.67,1.35-3.03,3.03-3.03
			C650.5,307.5,651.86,308.86,651.86,310.53z"/>
		<path class="st3" d="M679.5,302.5c0,1.67-1.35,3.03-3.03,3.03c-1.67,0-3.03-1.36-3.03-3.03c0-1.67,1.35-3.03,3.03-3.03
			C678.15,299.47,679.5,300.83,679.5,302.5z"/>
		<path class="st3" d="M669.74,270.71c0,2-1.62,3.63-3.63,3.63c-2,0-3.63-1.62-3.63-3.63c0-2,1.62-3.63,3.63-3.63
			C668.12,267.08,669.74,268.71,669.74,270.71z"/>
		<path class="st3" d="M658.44,271.96c-0.15,1.13-1.2,1.93-2.33,1.78c-1.13-0.15-1.93-1.2-1.78-2.33c0.15-1.13,1.2-1.93,2.33-1.78
			C657.8,269.78,658.6,270.83,658.44,271.96z"/>
		<path class="st3" d="M678.55,291.44c0,1.14-0.93,2.07-2.07,2.07c-1.15,0-2.07-0.93-2.07-2.07c0-1.15,0.93-2.07,2.07-2.07
			C677.63,289.37,678.55,290.3,678.55,291.44z"/>
		<path class="st3" d="M640.37,300.77c0,1.14-0.93,2.07-2.07,2.07s-2.07-0.93-2.07-2.07c0-1.15,0.93-2.07,2.07-2.07
			S640.37,299.63,640.37,300.77z"/>
		
			<ellipse transform="matrix(0.2298 -0.9732 0.9732 0.2298 213.1384 836.9964)" class="st3" cx="635.36" cy="283.84" rx="4.66" ry="4.66"/>
		
			<ellipse transform="matrix(0.7071 -0.7071 0.7071 0.7071 -26.6685 560.6563)" class="st3" cx="663.44" cy="312.52" rx="4.66" ry="4.66"/>
		<path class="st3" d="M684.51,280.99c0,2.58-2.09,4.66-4.66,4.66c-2.58,0-4.66-2.09-4.66-4.66s2.09-4.66,4.66-4.66
			C682.43,276.33,684.51,278.42,684.51,280.99z"/>
		<path class="st3" d="M679.36,280.33c-0.59,0.67-1.44,1.28-2.22,1.75c-1.16,0.69-2.45,1.23-3.75,1.62
			c-0.28,0.08-1.12,0.33-2.47,0.69c-1.5-2.77-3.86-5-6.73-6.34c0.03-0.25,0.05-0.49,0.08-0.73c0.07-0.57,0.16-1.14,0.26-1.69
			c0.29-1.55,1.03-3.52,2.16-4.54l-1.87-0.74c0.03,0.31,0.01,0.6-0.03,0.89c-0.03,0.29-0.09,0.56-0.15,0.84
			c-0.13,0.55-0.32,1.07-0.55,1.58c-0.23,0.51-0.5,1-0.8,1.48c-0.31,0.48-0.63,0.95-0.97,1.41c-0.16,0.22-0.32,0.43-0.48,0.65
			c-1.59-0.43-3.23-0.58-4.85-0.46c-0.15-1.52-0.27-3.57,0.14-5.05h-1.5c0.42,1.52,0.28,3.63,0.13,5.19
			c-1.41,0.22-2.76,0.64-4.01,1.24c-1.41-2.22-3.5-5.42-3.91-8.08l-1.83,0.85c1.79,2.04,2.91,5.73,3.74,8.39
			c-2.33,1.6-4.17,3.86-5.26,6.51c-2.66-0.52-5.37-1.08-7.67-2.58c-0.33-0.22-0.65-0.45-0.96-0.73l-1.03,2.75
			c0.42-0.01,0.81,0.03,1.2,0.08c2.77,0.39,5.26,1.8,7.64,3.2c-0.54,2.74-0.3,5.69,0.83,8.42c-1.57,1.15-2.94,2.12-4.65,2.74
			c-0.56,0.2-1.28,0.4-1.87,0.44l0.6,1.37c0.22-0.21,0.51-0.43,0.77-0.6c1.8-1.19,3.95-1.64,6.1-2.06c1.2,2.01,2.87,3.71,4.86,4.95
			c-0.26,1.45-0.73,4.4-2.25,5.88l1.87,0.76c-0.03-1.03,0.42-2.3,0.89-3.23c0.32-0.64,1.11-1.84,1.46-2.38
			c2.7,1.15,5.61,1.43,8.32,0.94c0.57,1.26,1.01,2.57,1.24,3.95c0.21,1.29,0.25,2.96-0.13,4.08l2.88-0.56
			c-0.77-0.9-1.35-2.47-1.64-3.74c-0.31-1.4-0.39-2.83-0.32-4.25c2.82-0.94,5.25-2.71,7.01-5.01c1.37,0.47,4.28,1.46,6.08,2.68
			l0.93-1.79c-1.82-0.69-4.12-2.29-5.52-3.29c0.94-1.9,1.48-4.04,1.5-6.3c1.14,0.04,2.71,0.22,3.75,0.69l0.12-1.49
			c-1.12,0.3-2.73,0.23-3.88,0.07c-0.06-1.57-0.36-3.07-0.88-4.48c1.15-0.7,1.87-1.11,2.17-1.28c1.84-1.05,4.47-2.06,6.56-1.98
			L679.36,280.33z"/>
	</g>
	<g>
		<path class="st1" d="M307.17,54.59c18.96,0,34.33,15.37,34.33,34.33c0,7.69-2.53,14.79-6.8,20.51l17.48,22.26l-26.47-13.88
			c-5.35,3.44-11.71,5.43-18.54,5.43c-18.96,0-34.33-15.37-34.33-34.33C272.84,69.96,288.21,54.59,307.17,54.59z"/>
		<g>
			<path class="st4" d="M283.47,97.02c0.83,0.53,2.75,1.36,4.76,1.36c3.74,0,4.9-2.38,4.86-4.17c-0.03-3.01-2.75-4.3-5.56-4.3h-1.62
				v-2.18h1.62c2.12,0,4.8-1.09,4.8-3.64c0-1.72-1.09-3.24-3.77-3.24c-1.72,0-3.37,0.76-4.3,1.42l-0.76-2.12
				c1.12-0.83,3.31-1.65,5.62-1.65c4.23,0,6.15,2.51,6.15,5.13c0,2.22-1.32,4.1-3.97,5.06v0.07c2.65,0.53,4.8,2.51,4.8,5.53
				c0,3.44-2.68,6.45-7.84,6.45c-2.42,0-4.53-0.76-5.59-1.46L283.47,97.02z"/>
			<path class="st4" d="M299.48,94.9c0-2.71,1.62-4.63,4.27-5.76l-0.03-0.1c-2.38-1.12-3.41-2.98-3.41-4.83
				c0-3.41,2.88-5.72,6.65-5.72c4.17,0,6.25,2.61,6.25,5.29c0,1.82-0.89,3.77-3.54,5.03v0.1c2.68,1.06,4.33,2.94,4.33,5.56
				c0,3.74-3.21,6.25-7.31,6.25C302.19,100.72,299.48,98.04,299.48,94.9z M311.06,94.77c0-2.61-1.82-3.87-4.73-4.7
				c-2.51,0.73-3.87,2.38-3.87,4.43c-0.1,2.18,1.56,4.1,4.3,4.1C309.37,98.6,311.06,96.98,311.06,94.77z M303.05,84.01
				c0,2.15,1.62,3.31,4.1,3.97c1.85-0.63,3.28-1.95,3.28-3.9c0-1.72-1.03-3.51-3.64-3.51C304.38,80.57,303.05,82.16,303.05,84.01z"
				/>
			<path class="st4" d="M330.41,81.96c-0.03,3.8-2.75,5.52-5.29,5.52c-2.94,0-5.26-2.12-5.26-5.36c0-3.44,2.48-5.56,5.33-5.56
				C328.39,76.57,330.41,78.85,330.41,81.96z M322.07,82.06c0,2.18,1.42,3.77,3.08,3.77c1.75,0,3.04-1.52,3.04-3.8
				c0-1.65-0.89-3.8-3.08-3.8C323,78.22,322.07,80.27,322.07,82.06z"/>
		</g>
	</g>
	<g>
		<path class="st5" d="M536.83,277.02c0,0,2.82,20.32,7.53,21.37c4.72,1.05,12.55-29.03,11.2-45.77
			c-1.35-16.73-2.78-18.71-1.43-21.84c1.35-3.13,4.04-11.38,4.04-14.67c0-3.3-7.81-12.98-9.52-12.86c-1.71,0.12-2.53,7.09-2.53,7.09
			l-2.44,20.69L536.83,277.02z"/>
		<path class="st6" d="M538.49,169.73c-4.08-7.56-8.6-11.91-16.76-12.85c-23.11-2.68-21.86,18.43-54.15,23
			c-10.03,1.42-19.36,2.78-27.73,7.67c-15.13,8.82-20.84,22.97-10.81,46.02c24.57,56.44,84.87,8.53,92.31-2.59
			c4.36-6.51,7.89-13.62,11.28-20.65C538.38,198.46,544.75,181.34,538.49,169.73z"/>
		<path class="st7" d="M446.17,552.65c0,0-1.65,16.35-5.87,19.35c-4.23,3-9.87,14.11-7.05,20.11c0.88,1.88,2.64,2.96,4.65,3.57
			c5.94,1.79,12.26-1.23,14.79-6.78c1.41-3.11,2.65-7.25,2.9-12.47c0.63-13.28,4.86-20.04,4.86-20.04L446.17,552.65z"/>
		<path class="st7" d="M511.16,559.34c0,0,1.33,16.5,0.25,21.86c-0.58,2.87-3.81,8.78-2.33,11.48c1.48,2.7,3.17,3.38,3.17,3.38
			l38.37,0.6c2.09,0.03,0.71-1.28-0.98-2.49c-2.76-1.98-4.98-3.29-13.79-7.45c-0.57-0.27-2.67-1.57-3.42-2.02
			c-1.91-1.14-3.83-2.94-5.49-4.74c-2.75-3-3-17.53-3-17.53L511.16,559.34z"/>
		<path class="st6" d="M541.15,340.04c0,0,2.74,26.44,1.66,44.35c-1.07,17.8-18.4,180.35-18.4,180.35l-16.92,0.93
			c0,0-3.55-68-2.91-77.45c0.63-9.46,5.66-25.28,5.66-25.28l-1.68-54.9l21.35-72.13L541.15,340.04z"/>
		<path class="st8" d="M491.42,334.4c0,0-13.32,19.59-16.49,35.8c-3.17,16.21,2.33,66.03-3.77,87.27
			c-3.3,11.5-15.82,29.26-17.73,44.12c-1.9,14.86-9.37,53.78-9.37,53.78l16.91,3.27l39.3-97.21l28.45-81.08
			c1.58-4.52,2.79-9.15,3.62-13.86l6.66-38.18L491.42,334.4z"/>
		<path class="st1" d="M502.21,222.95c0,0-13.55,1.02-18.65,8.73c-5.6,8.47,11.28,67.15,12.55,76.61
			c1.27,9.46-10.4,31.52-10.4,31.52s43.59,7.89,55.44,0.23c0,0,1.27-68,0-74.75c-1.27-6.75-11.84-34.22-14.38-36.93
			C524.23,225.65,502.21,222.95,502.21,222.95z"/>
		<path class="st7" d="M490.47,228.72c0,0-7.02-0.65-7.56,5.06c-0.4,4.24,0,5.66,0,5.66s4.59,27.45,24.08,47.88
			c19.49,20.43,26.45,16.21,28.02,13.87c4.11-6.11,10.53-30.42,12.04-57.46l0.8-13.99c0,0,6.1-11.38,2.95-18.49
			c-2.44-5.52-2.68-6.32-3.85-7.87c-2.27-3.01-3.85-3.13-3.85-0.54c0,2.6,0.4,2.08,0,2.6c-1.24,1.63,1.14,3.71,1.14,8.04
			c0,4.33-3.22,2.1-3.22-0.43c0-2.53,1.2-3.89,0.13-3.89s-2.72,1.55-3.16,5.63c-0.27,2.45-0.98,5.52-0.86,9.38
			c0.08,2.56,1.18,5.64,0.65,8.43c-1.31,6.99-11.18,47.64-12.6,47.64C522.04,280.21,498.38,231.98,490.47,228.72z"/>
		<path class="st7" d="M508.08,199.93c0,0-0.09,0.51-0.26,1.37c-0.79,4.14-3.81,17.88-5.86,21.66c-2.47,4.57,8.46,19.13,18.99,17.35
			c3.13-0.53-2.65-13.38-2.37-14.74c0.53-2.61,1.25-6.16,1.99-9.81c0.42-2.06,0.84-4.14,1.23-6.1c1.13-5.57,2.04-10.12,2.04-10.12
			L508.08,199.93z"/>
		<path class="st5" d="M507.83,201.3c0.16-0.86,0.26-1.37,0.26-1.37l15.77-0.38c0,0-0.92,4.55-2.04,10.12
			c-0.39,1.95-0.81,4.02-1.23,6.07c-2.44-0.35-4.98-1.51-7.53-3.69c-2.78-2.38-4.61-5.24-5.71-8.29
			C507.54,202.78,507.7,201.94,507.83,201.3z"/>
		<path class="st7" d="M520.65,164.59c0,0-6.43,0.87-11.09,6.76c-4.66,5.89-9.68,24.1,1.89,34c11.58,9.9,23.02-1.31,24.71-13.19
			C537.86,180.28,537.51,164.16,520.65,164.59z"/>
		<path class="st6" d="M523.06,164.65c0,0-10.01,17.25-17.11,18.05c-7.11,0.8-11.49,8.38-11.49,8.38s2.54-21.2,9.58-25.29
			C511.06,161.7,523.06,164.65,523.06,164.65z"/>
		<path class="st3" d="M453.84,585.98c-9.22,1.64-15.35-3.63-18.54-7.57c-2.34,4.47-3.78,10.04-2.06,13.71
			c1.52,3.23,5.65,4.12,9.14,4.24c3.69,0.13,7.15-1.76,8.98-4.9C452.22,590,453.1,588.17,453.84,585.98z"/>
		<path class="st3" d="M532.43,584.7c-10.15,2.54-17.65,0.81-21.84-0.84c-1.08,3-2.52,6.75-1.76,8.92c0.93,2.65,2.26,3.25,3.43,3.28
			c9.27,0.24,33.95,0.56,41.02,0.65c0.99,0.01,1.53-1.11,0.9-1.85C552.42,592.82,533.19,585.15,532.43,584.7z"/>
		<path class="st0" d="M498.13,286.34c0,0,20.8-12.45,22.65-17.15c0,0-21.56-41.71-29.39-42.62c-7.83-0.91-10.54,8.3-9.1,18.79
			C483.73,255.86,495.56,283.82,498.13,286.34z"/>
		<path class="st3" d="M513.12,185.03c0,0-2.5,10.24-6.48,14.14c0,0,2.61,7.98,9.43,9.99c6.82,2.01,14.4-0.88,17.35-7.06
			c2.95-6.18,3.41-9.89,3.41-9.89s-0.11-1.36-3.33-1.13C530.28,191.31,517.69,190.41,513.12,185.03z"/>
		<path class="st3" d="M513.96,188.96l-0.84-3.93c0,0-6.17-3.85-8.43-3.16l0.39,1.18C505.08,183.05,512.49,186.45,513.96,188.96z"/>
		<path class="st3" d="M508.75,198.01c0,0-3.07-1.03-4.07-5.09l-0.81-1.34h-1.61l4.37,7.58L508.75,198.01z"/>
		<path class="st7" d="M507.89,186.56c0.58,3.07-0.58,5.89-2.6,6.3c-2.01,0.4-4.11-1.76-4.69-4.84c-0.58-3.07,0.58-5.89,2.6-6.3
			C505.21,181.32,507.31,183.48,507.89,186.56z"/>
	</g>
	<g>
		<path class="st7" d="M331.06,565.14c0,0,0.89,15.77,0.9,15.8c0.33,2,1.62,6.95,1.62,8.77c0,6.84-30.43-5.81-23.61-8.84
			c0.62-0.27,3.85-2.35,4.05-4.68c0.31-3.59,1.11-10.84,1.11-10.84L331.06,565.14z"/>
		<path class="st8" d="M310.05,580.81c0,0,7.14,2.09,10.8,2.61c3.66,0.52,8.48-3.88,11.07-2.69c2.85,1.31,2.56,14.2,2.56,14.2
			s-38.5,2.8-49.27-0.67C280.95,592.89,295.44,585.69,310.05,580.81z"/>
		<path class="st7" d="M398.1,566.65c0,0,0.89,15.77,0.9,15.8c0.33,2,1.62,6.95,1.62,8.77c0,6.84-30.43-5.8-23.61-8.84
			c0.62-0.27,4.81-3.9,5.01-6.22c0.31-3.59,0.15-9.29,0.15-9.29L398.1,566.65z"/>
		<path class="st8" d="M377.08,582.33c0,0,7.14,2.09,10.8,2.61c3.66,0.52,8.48-3.88,11.07-2.69c2.85,1.31,2.96,13.09,2.96,13.09
			s-40.77,2.96-50.35,0.18C347.26,594.28,362.48,587.2,377.08,582.33z"/>
		<path class="st6" d="M349.88,338.98l-12.86,5.55l-27.06,129.22l1.1,96.88l21.69,0.5c0,0,10.09-84.74,10.09-91.31
			c0-6.57,46.73-114.92,46.73-114.92L349.88,338.98z"/>
		<path class="st8" d="M355.39,347.42c0,0,13.9,98.23,13.9,115.01c0,16.78,7.68,110.71,7.68,110.71l21.74-0.13
			c0,0,1.57-28.63,3.9-70.75c0.37-6.6-0.47-19.91,0-26.74c3.38-49.12,10.07-95.36,6.88-113.69c-0.51-2.95-1.48-10.67-3.36-12.61
			C391.89,334.51,355.39,347.42,355.39,347.42z"/>
		<path class="st9" d="M395.62,197.2c0,0,15,2.09,18.95,4.99c4.45,3.27,9.38,10.57,9.38,10.57s-18.42,87.08-18.45,101.73
			c-0.03,11.34,3.99,39.17,3.99,39.17s-55.67,9.06-76.75,0.74c0,0,5.76-38.13,6.66-47.34c0.85-8.65,7.96-87.74,9.78-93.26
			c1.64-5.01,4.65-14.01,14.82-16.23C374.17,195.35,395.62,197.2,395.62,197.2z"/>
		<path class="st7" d="M391.53,173.75l3.71,24.32c0,0-13.56,28.95-21.66,26.44c-6.79-2.11-2.61-27.72-2.61-27.72
			s3.7-13.76,2.59-20.64C372.45,169.26,391.53,173.75,391.53,173.75z"/>
		<path class="st5" d="M373.56,176.14c-1.11-6.88,17.97-2.39,17.97-2.39s-0.42,2.63-0.84,3.76c-2.73,7.23-12.15,10.8-17.91,11.01
			C373.35,184.81,374.01,178.97,373.56,176.14z"/>
		<path class="st7" d="M391.46,139.69c0.51-0.26,7.51,27.01,1.27,35.46c-6.24,8.45-19.84,12.57-25.52,7.15
			c-6.29-6-9.49-35.8,0.68-44.93C378.05,128.23,391.46,139.69,391.46,139.69z"/>
		<path class="st6" d="M370.37,122.06c8.79-0.38,14.93,5.29,17.23,7.27c3.94,0,9.48,1.52,15.99,9.86c8,10.26,4.48,23.07-2.64,29.99
			c-7.11,6.92-8.55,10.31-8.55,10.31c-1.23-2.61-1.24-5.36-1.27-8.25c-0.02-1.73,0.14-3.62,0.67-5.23c1.41-4.23-4.82-6.2-6.87-9.34
			c-1.58-2.42-1.37-9.09-4.41-12.72c-0.66-0.78-2.29-2.08-3.21-2.54c-2.78-1.4-7.18-1.92-12.46-0.08
			C359.57,143.17,350.59,122.91,370.37,122.06z"/>
		<path class="st5" d="M369.69,263.15c-8.05,2.81-14,4.78-14,4.78l-6.18-20.32l1.28-36.28l-15.72,21.61c0,0-5.17,44.8,4.73,52
			c6.04,4.4,21.27,0.02,37.1-6.66L369.69,263.15z"/>
		<g>
			<path class="st10" d="M361.56,198.27c0,0-18.81,3.8-25.88,15.17c-6.57,10.55-4.86,54.4-4.58,60.64l23.34-11.95
				c0,0-2.84-14.85-3.35-19.86C347.89,210.62,361.56,198.27,361.56,198.27z"/>
		</g>
		<path class="st7" d="M338.83,256.55c0,0,42.85,45.03,59,41.35c10.54-2.4,22-47.03,22-47.03l-16.87-28.26l-12.81,46.87
			c-3.62-2.86-44.01-19.61-46.54-23.87c-2.76-4.63-10.52-13.07-11.04-13.64c-0.52-0.57-3.64-1.68-4.48-0.84
			c-1.5,1.49-1.35,7.88-1.7,9.56c-0.35,1.68,0.2,2.85-0.08,4.42C324.58,254.98,338.83,256.55,338.83,256.55z"/>
		<path class="st10" d="M413.15,202.18c-1.16,0.14-2.25,0.54-3.22,1.25c-4.48,3.33-7.96,8.02-9.93,13.25
			c-2.86,7.58-12.33,49.02-12.33,49.02l25.33,18.05c3.88-10.49,7.34-21.16,10.41-31.9c2.11-7.38,4.07-14.84,5.28-22.42
			c1.24-7.75,1.71-16.96-4.46-22.86C421.6,204.07,417.03,201.71,413.15,202.18z"/>
		<path class="st5" d="M430.74,235.73c-0.41-1.8,0.74-6.44-0.88-7.34c-1.75-0.98-5.81,1.95-8.05,3.79c0.7-0.94,2-2.53,3.55-3.79
			c1.9-1.53,0.08-4.76-2.69-1.65c0,0-7.45,5.01-8.97,8.46c-1.52,3.45-2.03,8.45-2.03,8.45c-3.08,2.54-29.87,11.52-41.88,15.95
			l18.27,8.63l2.1,1.24c18.13-8.69,32.1-15.49,32.1-15.49s9.26-2.74,9.26-10.48C431.52,241.79,431.14,237.53,430.74,235.73z"/>
		<path class="st7" d="M343.62,245.61c0,0-1.62-9.35-4.23-12.38c-2.61-3.03-2.61-3.03-2.61-3.03s-3.83-2.91-5.39-1.35
			c-1.56,1.56,2.59,5.12,2.59,5.12L343.62,245.61z"/>
		<path class="st3" d="M359.87,164.8c0,0,1.33-3.16,4.86-2.53c3.54,0.63,17.35-0.14,17.35-0.14s-0.21,6.08,1.08,8.66
			c1,2.01,7.51,6.71,7.51,6.71s-4.99,7.29-18.38,9.31C358.91,188.85,359.87,164.8,359.87,164.8z"/>
		<path class="st3" d="M387.95,155.35l-0.92,0.49c-1.28,0.67-2.35,1.68-3.11,2.9l-3.39,5.47l1.26,2.23L387.95,155.35z"/>
		<path class="st3" d="M388.36,177.01l2.32,0.5c0,0,2.28-12.49,1.94-12.82c-0.33-0.33-0.39-0.95-0.39-0.95l-1.72,0.47L388.36,177.01
			z"/>
		<path class="st7" d="M385.88,161.56c0.34,3.39,2.21,5.97,4.18,5.78c1.97-0.2,3.29-3.1,2.95-6.49c-0.34-3.39-2.21-5.97-4.18-5.78
			C386.86,155.26,385.54,158.17,385.88,161.56z"/>
	</g>
	<polygon class="st9" points="581.04,188.68 564.24,182.22 551.71,198.27 565.42,185.99 581.48,191.82 600.97,176.62 	"/>
	<polygon class="st9" points="555.82,207.04 570.64,208.74 575.19,217.01 596.41,212.02 574.01,219.84 569.29,210.29 	"/>
	<polygon class="st9" points="546.89,180.59 549.24,163.77 566.65,157.86 570.39,146.74 568.72,159.29 551.71,164.76 	"/>
	<circle class="st1" cx="486.76" cy="451.16" r="11.53"/>
	<circle class="st9" cx="486.76" cy="451.16" r="6.48"/>
	<path class="st1" d="M414.42,346.95c0,6.86-5.56,12.43-12.43,12.43c-6.86,0-12.43-5.56-12.43-12.43s5.56-12.43,12.43-12.43
		C408.86,334.53,414.42,340.09,414.42,346.95z"/>
	<path class="st9" d="M401.99,353.24c-3.46,0-6.28-2.82-6.28-6.28c0-3.46,2.82-6.28,6.28-6.28s6.28,2.82,6.28,6.28
		C408.28,350.42,405.46,353.24,401.99,353.24z"/>
	<path class="st1" d="M514.95,156.64c0,7.37-5.97,13.34-13.34,13.34c-7.37,0-13.34-5.97-13.34-13.34c0-7.37,5.97-13.34,13.34-13.34
		C508.98,143.3,514.95,149.27,514.95,156.64z"/>
	<path class="st9" d="M501.61,164.93c-4.57,0-8.29-3.72-8.29-8.29c0-4.57,3.72-8.29,8.29-8.29c4.57,0,8.29,3.72,8.29,8.29
		C509.9,161.21,506.18,164.93,501.61,164.93z"/>
	<polygon class="st1" points="427.79,315.28 412.26,321.33 417.03,326.37 409.45,334.53 423.1,327.5 417.66,322.45 	"/>
	<polygon class="st1" points="515.95,116.05 504.26,127.94 510.68,130.58 507.11,141.13 516.68,129.13 509.66,126.75 	"/>
	<polygon class="st1" points="539.41,140.34 522.75,139.66 525.1,146.19 514.89,150.63 530.2,149.66 527.25,142.85 	"/>
	<polygon class="st1" points="444.76,440.28 460.15,446.71 460.21,439.77 471.33,439.16 456.63,434.74 457.03,442.15 	"/>
	<polygon class="st1" points="460.79,414.2 460.99,430.87 467.39,428.17 472.36,438.14 470.58,422.9 463.94,426.21 	"/>
	<g>
		<path class="st1" d="M352.94,190.36c-1.67-0.82-4.17-0.39-5.95-0.11c-6.18,0.97-7.3,3.96-9.24,7.86c-2.34,4.7-6.8,4.96-8.12,8.6
			c-0.89,2.48,0.68,4.99-0.01,7.45c-0.59,2.14-2.5,3.63-3.26,5.7c-0.44,1.19-0.33,2.41-0.48,3.64c-0.41,3.25-4.27,4.39-5.77,9.84
			c-0.74,2.7-0.8,5.53-0.84,8.31c-0.01,0.96,1.47,0.96,1.49,0c0.12-5.87,0.43-9.45,3.98-13.28c4.2-4.52,1.84-5.9,3.48-8.91
			c0.5-0.92,1.17-1.74,1.74-2.62c3.35-5.19-1.61-8.26,2.83-11.84c1.46-1.17,3.19-2,4.47-3.39c1.48-1.6,2.14-3.69,3.19-5.56
			c3.24-5.77,10.33-4.15,12.5-5.2C353.13,190.78,353.13,190.46,352.94,190.36L352.94,190.36z"/>
	</g>
	<g>
		<path class="st1" d="M408.09,186.78c0.4,2.15,1.8,3.99,3.71,5.05c3.63,2,7.98-0.29,9.98,2.81c0.62,0.96,0.94,2.07,1.54,3.04
			c2.79,4.49,9.53,1.38,9.87,6.05c0.16,2.23-0.84,4.47,0.02,6.65c0.91,2.31,3.87,3.12,3.62,5.93c-0.24,2.64-1.79,4.94-1.54,7.67
			c0.15,1.65,0.76,3.18,1.25,4.75c2.43,7.79,1.32,13.25,1.26,15.56c-0.02,0.88,1.28,1.04,1.51,0.2c1.48-5.26,0.13-12.6-1.55-17.81
			c-1.43-4.44-0.37-5.13,0.52-8.66c0.6-2.38,0.24-4.42-1.59-6.13c-0.97-0.91-1.95-1.65-2.12-3.06c-0.28-2.29,1.61-6.76-1.85-8.82
			c-1.77-1.05-3.94-0.86-5.85-1.46c-2.5-0.78-2.71-3.25-4.12-5.1c-1.67-2.17-4.32-1.99-6.78-2.03c-3.24-0.06-5.85-1.77-6.81-4.95
			C408.95,185.79,407.96,186.08,408.09,186.78L408.09,186.78z"/>
	</g>
</g>
</svg>
