<?xml version="1.0" encoding="utf-8"?>
<!-- Generator: Adobe Illustrator 24.0.2, SVG Export Plug-In . SVG Version: 6.00 Build 0)  -->
<svg version="1.1" id="Capa_1" xmlns="http://www.w3.org/2000/svg" xmlns:xlink="http://www.w3.org/1999/xlink" x="0px" y="0px"
	 viewBox="0 0 841.89 595.28" style="enable-background:new 0 0 841.89 595.28;" xml:space="preserve">
<style type="text/css">
	.st0{fill:#5C407B;}
	.st1{fill:#F36B80;}
	.st2{fill:#31DAE7;}
	.st3{fill:#FFFFFF;}
	.st4{fill:#F2F2F2;}
	.st5{fill:#EA94AD;}
	.st6{fill:#E1DDE7;}
	.st7{fill:#8B5DD0;}
	.st8{fill:#E25A74;}
	.st9{fill:#FFB3C5;}
	.st10{fill:#486EB5;}
	.st11{fill:#34BED1;}
	.st12{fill:#F7CC7F;}
	.st13{fill:#EE755A;}
	.st14{fill:#472A6A;}
	.st15{fill:#F39C8E;}
</style>
<g>
	<path class="st0" d="M663.61,234.48c0.85-20.2-2.17-40.15-11.38-58.96c-7.92-16.18-27.5-25.36-45.36-25.39
		c-56.71-0.07-63.93,73.55-100.03,101.94c-11.03,8.68-23.36,15.74-33.8,25.1c-38.54,34.55-21.18,98.51,14.21,128.81
		c24.56,21.02,63.16,32.96,93.43,16.53c15.8-8.58,27.8-22.84,36.34-38.46c12.13-22.17,19.95-47.76,28.57-71.39
		C654.78,287.52,662.48,261.33,663.61,234.48z"/>
	<g>
		<g>
			<path class="st1" d="M195.13,83.85c-3.72,0.64-6.53-2.19-7.19-5.9c-1.23-6.9,5.59-9.67,9.48-6.54
				C201.6,74.78,200.96,82.85,195.13,83.85z M193.41,60.54c0.1,1.27-0.61,2.04-2.11,2.3c-1.67,0.29-2.49,0.34-3.06-1.16
				c-3.59-9.3-5.63-15.28-6.1-17.95c-4.36-25.43-5.36-27.74-4.4-27.91c1.44-0.25,3.72-0.14,5.21-0.4c1.5-0.26,3.65-1.12,5.09-1.37
				c0.78-0.13,0.89,1.65,1.91,6.99C193.67,40.47,193.09,50.4,193.41,60.54z"/>
		</g>
		<g>
			<path class="st0" d="M791.46,193.15c0.62,1.79-0.35,3.75-2.18,4.36c-1.83,0.61-3.81-0.34-4.44-2.14s0.35-3.75,2.18-4.36
				C788.85,190.4,790.84,191.36,791.46,193.15z"/>
			<path class="st0" d="M808.73,235.84c0.62,1.79-0.35,3.75-2.18,4.36s-3.81-0.34-4.44-2.14c-0.62-1.79,0.35-3.75,2.18-4.36
				C806.12,233.09,808.1,234.04,808.73,235.84z"/>
			<path class="st0" d="M835.94,217.07c0.62,1.79-0.35,3.75-2.18,4.36c-1.83,0.61-3.81-0.34-4.44-2.14
				c-0.62-1.79,0.35-3.75,2.18-4.36C833.33,214.32,835.32,215.28,835.94,217.07z"/>
			<path class="st0" d="M813.41,186.52c0.75,2.15-0.42,4.49-2.61,5.23c-2.19,0.73-4.57-0.41-5.32-2.57
				c-0.75-2.15,0.42-4.49,2.61-5.23C810.28,183.22,812.66,184.36,813.41,186.52z"/>
			<path class="st0" d="M801.52,192c0.26,1.27-0.59,2.51-1.89,2.76c-1.3,0.25-2.56-0.58-2.81-1.85c-0.26-1.27,0.59-2.51,1.89-2.76
				C800.01,189.9,801.27,190.73,801.52,192z"/>
			<path class="st0" d="M830.78,205.55c0.43,1.23-0.24,2.57-1.49,2.99c-1.25,0.42-2.61-0.24-3.04-1.47
				c-0.43-1.23,0.24-2.57,1.49-2.99C828.99,203.66,830.35,204.32,830.78,205.55z"/>
			<path class="st0" d="M792.53,229.57c0.43,1.23-0.24,2.57-1.49,2.99c-1.25,0.42-2.61-0.24-3.04-1.47
				c-0.43-1.23,0.24-2.57,1.49-2.99C790.74,227.69,792.1,228.34,792.53,229.57z"/>
			<path class="st0" d="M785.83,211.52c0.96,2.77-0.54,5.78-3.36,6.72c-2.82,0.95-5.88-0.53-6.84-3.3
				c-0.96-2.77,0.54-5.78,3.36-6.72C781.81,207.27,784.87,208.75,785.83,211.52z"/>
			<path class="st0" d="M827.23,232.02c0.96,2.77-0.54,5.78-3.36,6.72c-2.82,0.95-5.88-0.53-6.84-3.3
				c-0.96-2.77,0.54-5.78,3.36-6.72C823.2,227.77,826.26,229.25,827.23,232.02z"/>
			<path class="st0" d="M833.39,192.14c0.96,2.77-0.54,5.78-3.36,6.72c-2.82,0.95-5.88-0.53-6.84-3.3
				c-0.96-2.77,0.54-5.78,3.36-6.72C829.37,187.89,832.43,189.37,833.39,192.14z"/>
			<path class="st0" d="M827.51,193.32c-0.4,0.94-1.1,1.91-1.77,2.69c-1.01,1.17-2.22,2.22-3.5,3.11c-0.28,0.19-1.1,0.77-2.44,1.64
				c-2.67-2.43-6.09-3.96-9.72-4.34c-0.06-0.27-0.12-0.54-0.18-0.82c-0.13-0.64-0.25-1.28-0.35-1.92c-0.26-1.77-0.19-4.16,0.67-5.67
				l-2.33-0.11c0.14,0.32,0.23,0.64,0.3,0.96c0.07,0.32,0.12,0.64,0.15,0.96c0.06,0.64,0.05,1.27-0.01,1.9
				c-0.06,0.63-0.17,1.26-0.32,1.88c-0.16,0.63-0.34,1.25-0.53,1.87c-0.09,0.29-0.19,0.58-0.29,0.88c-1.89,0.12-3.74,0.56-5.48,1.28
				c-0.73-1.58-1.62-3.74-1.73-5.47l-1.64,0.55c1.03,1.48,1.67,3.79,2.08,5.52c-1.46,0.76-2.78,1.7-3.92,2.8
				c-2.38-1.87-5.85-4.53-7.29-7.25l-1.68,1.58c2.72,1.53,5.32,5.09,7.22,7.63c-1.95,2.58-3.12,5.68-3.32,8.92
				c-3.1,0.42-6.28,0.81-9.35,0.04c-0.44-0.11-0.88-0.24-1.32-0.43l-0.1,3.33c0.45-0.16,0.9-0.27,1.34-0.35
				c3.17-0.6,6.42,0.01,9.55,0.63c0.44,3.14,1.8,6.22,4.05,8.73c-1.29,1.82-2.42,3.35-4.06,4.65c-0.53,0.42-1.25,0.91-1.88,1.15
				l1.17,1.25c0.16-0.31,0.4-0.65,0.62-0.92c1.53-1.94,3.71-3.22,5.9-4.45c2.06,1.72,4.53,2.94,7.16,3.53
				c0.26,1.65,0.85,5-0.27,7.14l2.33,0.13c-0.42-1.09-0.4-2.62-0.23-3.8c0.11-0.81,0.52-2.38,0.71-3.09
				c3.38,0.25,6.66-0.53,9.45-2.04c1.09,1.15,2.06,2.39,2.82,3.78c0.71,1.3,1.37,3.09,1.39,4.43l2.94-1.66
				c-1.17-0.69-2.4-2.16-3.19-3.41c-0.86-1.39-1.48-2.9-1.93-4.44c2.73-2.04,4.73-4.83,5.79-7.96c1.68,0.01,5.23,0,7.65,0.65
				l0.35-2.26c-2.25-0.07-5.35-0.94-7.26-1.51c0.32-2.39,0.11-4.88-0.71-7.31c1.26-0.38,3.04-0.75,4.36-0.63l-0.43-1.65
				c-1.11,0.73-2.9,1.25-4.21,1.5c-0.65-1.66-1.54-3.17-2.63-4.48c0.99-1.18,1.63-1.88,1.89-2.17c1.62-1.8,4.11-3.86,6.43-4.53
				L827.51,193.32z"/>
		</g>
		<g>
			<path class="st2" d="M785.18,93.52c0,2.69-2.22,4.87-4.95,4.87s-4.95-2.18-4.95-4.87c0-2.69,2.22-4.87,4.95-4.87
				S785.18,90.83,785.18,93.52z"/>
			<path class="st2" d="M788.43,158.54c0,2.69-2.22,4.87-4.95,4.87c-2.74,0-4.95-2.18-4.95-4.87c0-2.69,2.22-4.87,4.95-4.87
				C786.21,153.67,788.43,155.85,788.43,158.54z"/>
			<ellipse class="st2" cx="828.73" cy="145.62" rx="4.95" ry="4.87"/>
			<path class="st2" d="M817.71,94.49c0,3.22-2.66,5.84-5.94,5.84c-3.28,0-5.94-2.61-5.94-5.84c0-3.22,2.66-5.84,5.94-5.84
				C815.05,88.66,817.71,91.27,817.71,94.49z"/>
			<path class="st2" d="M799.21,96.5c-0.25,1.82-1.96,3.1-3.82,2.86c-1.86-0.25-3.16-1.93-2.91-3.75c0.25-1.82,1.96-3.1,3.82-2.86
				C798.16,93,799.46,94.68,799.21,96.5z"/>
			<path class="st2" d="M832.13,127.84c0,1.84-1.52,3.33-3.39,3.33c-1.87,0-3.39-1.49-3.39-3.33s1.52-3.33,3.39-3.33
				C830.61,124.5,832.13,126,832.13,127.84z"/>
			<path class="st2" d="M769.62,142.84c0,1.84-1.52,3.33-3.39,3.33c-1.87,0-3.39-1.49-3.39-3.33c0-1.84,1.52-3.33,3.39-3.33
				C768.1,139.51,769.62,141,769.62,142.84z"/>
			<path class="st2" d="M769.06,115.61c0,4.14-3.42,7.5-7.64,7.5c-4.22,0-7.64-3.36-7.64-7.5c0-4.14,3.42-7.5,7.64-7.5
				C765.64,108.11,769.06,111.47,769.06,115.61z"/>
			<path class="st2" d="M815.02,161.74c0,4.14-3.42,7.5-7.64,7.5c-4.22,0-7.64-3.36-7.64-7.5c0-4.14,3.42-7.5,7.64-7.5
				C811.6,154.24,815.02,157.6,815.02,161.74z"/>
			<path class="st2" d="M841.89,111.03c0,4.14-3.42,7.5-7.64,7.5s-7.64-3.36-7.64-7.5c0-4.14,3.42-7.5,7.64-7.5
				S841.89,106.88,841.89,111.03z"/>
			<path class="st2" d="M833.45,109.97c-0.97,1.08-2.36,2.07-3.63,2.81c-1.9,1.11-4.01,1.98-6.14,2.6
				c-0.47,0.13-1.83,0.53-4.04,1.11c-2.45-4.46-6.32-8.05-11.01-10.19c0.04-0.39,0.09-0.79,0.14-1.18c0.12-0.92,0.26-1.83,0.43-2.73
				c0.48-2.49,1.69-5.66,3.54-7.3l-3.07-1.19c0.04,0.5,0.01,0.97-0.04,1.43c-0.06,0.46-0.14,0.91-0.25,1.35
				c-0.22,0.88-0.53,1.72-0.9,2.54c-0.37,0.82-0.82,1.61-1.31,2.38c-0.51,0.77-1.03,1.53-1.59,2.28c-0.26,0.35-0.52,0.7-0.79,1.05
				c-2.6-0.69-5.29-0.93-7.95-0.74c-0.25-2.45-0.44-5.74,0.23-8.12l-2.45,0c0.69,2.45,0.47,5.84,0.21,8.34
				c-2.31,0.36-4.52,1.04-6.56,1.99c-2.32-3.57-5.73-8.71-6.4-13l-2.99,1.37c2.93,3.28,4.76,9.22,6.12,13.49
				c-3.81,2.58-6.83,6.21-8.61,10.47c-4.35-0.83-8.79-1.74-12.55-4.15c-0.54-0.35-1.07-0.72-1.57-1.17l-1.69,4.42
				c0.68-0.02,1.33,0.04,1.97,0.13c4.53,0.63,8.61,2.9,12.51,5.14c-0.88,4.4-0.49,9.15,1.36,13.54c-2.58,1.85-4.81,3.4-7.62,4.41
				c-0.91,0.32-2.1,0.65-3.06,0.7l0.98,2.21c0.36-0.34,0.84-0.69,1.26-0.96c2.95-1.91,6.47-2.65,9.99-3.31
				c1.97,3.24,4.7,5.98,7.96,7.96c-0.42,2.33-1.2,7.08-3.69,9.46l3.06,1.22c-0.05-1.65,0.69-3.7,1.46-5.2
				c0.53-1.03,1.81-2.96,2.4-3.83c4.41,1.85,9.18,2.29,13.62,1.51c0.93,2.03,1.65,4.13,2.02,6.35c0.34,2.07,0.4,4.76-0.21,6.56
				l4.72-0.9c-1.25-1.45-2.22-3.97-2.68-6.01c-0.51-2.26-0.63-4.55-0.52-6.83c4.61-1.51,8.6-4.35,11.48-8.06
				c2.25,0.76,7.01,2.36,9.95,4.32l1.52-2.88c-2.98-1.11-6.74-3.67-9.04-5.29c1.54-3.06,2.42-6.5,2.46-10.13
				c1.86,0.06,4.43,0.36,6.14,1.11l0.2-2.4c-1.83,0.48-4.48,0.37-6.35,0.12c-0.1-2.52-0.59-4.94-1.44-7.2
				c1.88-1.13,3.07-1.79,3.55-2.07c3.01-1.69,7.31-3.32,10.74-3.18L833.45,109.97z"/>
		</g>
		<g>
			<path class="st0" d="M689.7,58.78c0,2.11-1.74,3.82-3.89,3.82s-3.89-1.71-3.89-3.82c0-2.11,1.74-3.82,3.89-3.82
				S689.7,56.67,689.7,58.78z"/>
			<path class="st0" d="M692.26,109.81c0,2.11-1.74,3.82-3.89,3.82s-3.89-1.71-3.89-3.82c0-2.11,1.74-3.82,3.89-3.82
				S692.26,107.7,692.26,109.81z"/>
			<path class="st0" d="M727.78,99.67c0,2.11-1.74,3.82-3.89,3.82s-3.89-1.71-3.89-3.82s1.74-3.82,3.89-3.82
				S727.78,97.56,727.78,99.67z"/>
			<ellipse class="st0" cx="710.58" cy="59.54" rx="4.66" ry="4.58"/>
			<path class="st0" d="M700.72,61.12c-0.2,1.43-1.54,2.44-3,2.24c-1.46-0.19-2.48-1.51-2.28-2.94c0.2-1.43,1.54-2.44,3-2.24
				S700.91,59.69,700.72,61.12z"/>
			<path class="st0" d="M726.56,85.72c0,1.45-1.19,2.62-2.66,2.62c-1.47,0-2.66-1.17-2.66-2.62c0-1.45,1.19-2.62,2.66-2.62
				C725.37,83.1,726.56,84.27,726.56,85.72z"/>
			<path class="st0" d="M677.5,97.49c0,1.45-1.19,2.62-2.66,2.62c-1.47,0-2.66-1.17-2.66-2.62c0-1.45,1.19-2.62,2.66-2.62
				C676.31,94.88,677.5,96.05,677.5,97.49z"/>
			<path class="st0" d="M677.05,76.12c0,3.25-2.68,5.89-5.99,5.89c-3.31,0-5.99-2.64-5.99-5.89c0-3.25,2.68-5.89,5.99-5.89
				C674.37,70.23,677.05,72.87,677.05,76.12z"/>
			<path class="st0" d="M713.13,112.32c0,3.25-2.68,5.89-5.99,5.89c-3.31,0-5.99-2.64-5.99-5.89c0-3.25,2.68-5.89,5.99-5.89
				C710.44,106.44,713.13,109.07,713.13,112.32z"/>
			<path class="st0" d="M734.22,72.52c0,3.25-2.68,5.89-5.99,5.89s-5.99-2.64-5.99-5.89s2.68-5.89,5.99-5.89
				S734.22,69.27,734.22,72.52z"/>
			<path class="st0" d="M727.59,71.69c-0.76,0.84-1.85,1.62-2.85,2.21c-1.49,0.87-3.15,1.55-4.82,2.04
				c-0.37,0.1-1.43,0.42-3.17,0.87c-1.92-3.5-4.96-6.32-8.64-8c0.03-0.31,0.07-0.62,0.11-0.92c0.09-0.72,0.21-1.43,0.34-2.14
				c0.38-1.95,1.33-4.45,2.78-5.73l-2.41-0.94c0.03,0.39,0.01,0.76-0.03,1.12c-0.04,0.36-0.11,0.71-0.2,1.06
				c-0.17,0.69-0.41,1.35-0.71,2c-0.29,0.64-0.64,1.26-1.03,1.87c-0.4,0.6-0.81,1.2-1.25,1.79c-0.2,0.28-0.41,0.55-0.62,0.82
				c-2.04-0.54-4.15-0.73-6.24-0.58c-0.19-1.92-0.34-4.51,0.18-6.37h-1.92c0.54,1.92,0.37,4.58,0.16,6.55
				c-1.82,0.28-3.55,0.81-5.15,1.56c-1.82-2.8-4.5-6.84-5.02-10.21l-2.35,1.08c2.3,2.57,3.73,7.23,4.8,10.59
				c-2.99,2.02-5.36,4.88-6.76,8.22c-3.42-0.65-6.9-1.37-9.85-3.26c-0.42-0.27-0.84-0.56-1.23-0.92l-1.33,3.47
				c0.53-0.01,1.04,0.03,1.54,0.1c3.55,0.49,6.75,2.27,9.82,4.03c-0.69,3.46-0.38,7.18,1.07,10.62c-2.02,1.46-3.77,2.67-5.98,3.46
				c-0.71,0.25-1.65,0.51-2.4,0.55l0.77,1.73c0.28-0.27,0.66-0.54,0.99-0.75c2.32-1.5,5.08-2.08,7.84-2.6
				c1.54,2.54,3.69,4.69,6.25,6.25c-0.33,1.83-0.94,5.56-2.9,7.42l2.4,0.96c-0.04-1.3,0.54-2.9,1.15-4.08
				c0.41-0.81,1.42-2.33,1.88-3c3.46,1.45,7.21,1.8,10.69,1.19c0.73,1.59,1.3,3.24,1.59,4.98c0.27,1.62,0.32,3.74-0.16,5.15
				l3.71-0.7c-0.98-1.14-1.74-3.12-2.1-4.72c-0.4-1.77-0.5-3.57-0.41-5.36c3.62-1.18,6.75-3.41,9.01-6.33
				c1.77,0.6,5.5,1.85,7.81,3.39l1.19-2.26c-2.34-0.87-5.29-2.88-7.09-4.16c1.21-2.4,1.9-5.1,1.93-7.95
				c1.46,0.05,3.48,0.28,4.82,0.87l0.15-1.88c-1.44,0.38-3.51,0.29-4.98,0.09c-0.07-1.98-0.47-3.88-1.13-5.65
				c1.48-0.89,2.41-1.4,2.79-1.62c2.37-1.32,5.74-2.61,8.43-2.5L727.59,71.69z"/>
		</g>
		<g>
			<path class="st2" d="M280.62,85.31h-30.07c-13.5,0-24.45-10.94-24.45-24.45V32.18c0-13.5,10.94-24.45,24.45-24.45h30.07
				c13.5,0,24.45,10.94,24.45,24.45v28.69C305.07,74.37,294.12,85.31,280.62,85.31z"/>
			<path class="st3" d="M258.99,37.68l3.84-3c1.18-0.92,1.54-2.54,0.85-3.87c-1.35-2.59-3.94-6.79-7.74-9.7
				c-1.15-0.88-2.76-0.87-3.9,0.01l-6.74,5.18c-0.85,0.65-1.3,1.69-1.2,2.74c0.42,4.46,2.45,16.59,12.37,25.12
				c11.3,9.71,21.6,13.67,28.56,15.17c1.13,0.24,2.31-0.13,3.07-0.99l5.83-6.51c1.02-1.14,1.06-2.84,0.08-4.02
				c-1.96-2.39-5.87-6.13-12.16-8c-1.29-0.38-2.68,0.07-3.47,1.14l-2.1,2.8c-0.86,1.15-2.39,1.57-3.74,1.05
				c-2.89-1.14-8.08-4.27-14.18-12.91C257.4,40.54,257.68,38.7,258.99,37.68z"/>
		</g>
		<path class="st1" d="M405.01,22.9c0,0,6.36-11.05,19.1-11.15c11.36-0.08,19.27,11.16,19.37,24.31
			c0.12,15.23-10.42,33.33-37.99,49.19c-27.82-15.46-38.62-33.4-38.74-48.62c-0.1-13.16,7.64-24.51,19-24.59
			C398.48,11.94,405.01,22.9,405.01,22.9z"/>
		<g>
			<path class="st4" d="M542.82,53.46c3.81,0.02,7.61,0.05,11.42,0.07c-0.04,4.34-0.13,8.68-0.29,13.01
				c2.95,0.08,5.89,0.16,8.84,0.24c0.16-4.4,0.26-8.8,0.29-13.2c3.81,0.02,7.61,0.05,11.42,0.07c0.02-2.69,0.02-5.38,0-8.06
				c-3.81,0.02-7.61,0.05-11.42,0.07c-0.04-4.4-0.13-8.8-0.29-13.2c-2.95,0.08-5.89,0.16-8.84,0.24c0.16,4.34,0.25,8.68,0.29,13.01
				c-3.81,0.02-7.61,0.05-11.42,0.07C542.84,48.35,542.84,50.9,542.82,53.46z"/>
			<g>
				<path class="st4" d="M596.96,54.39c-1.03,0-2.02-0.54-2.54-1.49L577.7,22.46c-1.89-3.45-2.29-7.4-1.13-11.15
					c1.17-3.74,3.75-6.81,7.28-8.62l3.19-1.64c1.41-0.73,3.16-0.19,3.9,1.2c0.74,1.39,0.19,3.1-1.22,3.83l-3.19,1.64
					c-2.15,1.11-3.73,2.97-4.44,5.26c-0.71,2.28-0.47,4.7,0.69,6.8L599.5,50.2c0.76,1.38,0.23,3.1-1.17,3.84
					C597.89,54.28,597.42,54.39,596.96,54.39z"/>
			</g>
			<g>
				<path class="st4" d="M597.28,55.03c1.03,0,2.02-0.54,2.54-1.49l16.72-30.43c1.89-3.45,2.29-7.4,1.13-11.15
					c-1.17-3.74-3.75-6.81-7.28-8.62L607.2,1.7c-1.41-0.73-3.16-0.19-3.9,1.2c-0.74,1.39-0.19,3.1,1.22,3.83l3.19,1.64
					c2.15,1.11,3.73,2.97,4.44,5.26c0.71,2.28,0.47,4.7-0.69,6.8l-16.72,30.43c-0.76,1.38-0.23,3.1,1.17,3.84
					C596.35,54.92,596.82,55.03,597.28,55.03z"/>
			</g>
			<path class="st4" d="M594.32,3.73c0,2.06-1.63,3.73-3.63,3.73s-3.63-1.67-3.63-3.73c0-2.06,1.62-3.73,3.63-3.73
				S594.32,1.67,594.32,3.73z"/>
			<path class="st4" d="M607.85,3.73c0,2.06-1.63,3.73-3.63,3.73c-2,0-3.63-1.67-3.63-3.73c0-2.06,1.63-3.73,3.63-3.73
				C606.22,0,607.85,1.67,607.85,3.73z"/>
			<path class="st4" d="M566.43,8.75c0,4.74-3.92,8.59-8.75,8.59c-4.83,0-8.74-3.85-8.74-8.59c0-4.74,3.92-8.59,8.74-8.59
				C562.52,0.16,566.43,4.01,566.43,8.75z"/>
			<g>
				<path class="st4" d="M554.89,93.4c-12.01,0-23.3-4.6-31.79-12.94c-8.49-8.34-13.17-19.44-13.17-31.24
					c0-11.8,4.68-22.89,13.17-31.24c8.49-8.34,19.78-12.94,31.79-12.94v5.67c-21.61,0-39.19,17.27-39.19,38.5
					c0,21.23,17.58,38.5,39.19,38.5c21.61,0,39.19-17.27,39.19-38.5h5.77c0,11.8-4.68,22.89-13.17,31.24S566.9,93.4,554.89,93.4z"/>
			</g>
		</g>
		<g>
			<path class="st4" d="M66,64.64L66,64.64c-5.28,0-9.56,4.21-9.56,9.39v66.24c0,3.48,1.92,6.51,4.78,8.13v12.1
				c0,2.59,2.14,4.7,4.78,4.7c2.64,0,4.78-2.1,4.78-4.7v-12.1c2.86-1.62,4.78-4.66,4.78-8.13V74.04
				C75.56,68.85,71.28,64.64,66,64.64z"/>
			<path class="st3" d="M66,161.59c-0.61,0-1.1-0.49-1.1-1.08v-14.18l-1.84-1.04c-1.82-1.03-2.95-2.95-2.95-5.01V74.04
				c0-3.19,2.64-5.78,5.88-5.78c3.24,0,5.88,2.59,5.88,5.78v66.24c0,2.06-1.13,3.97-2.95,5.01l-1.84,1.04v14.18
				C67.1,161.11,66.61,161.59,66,161.59z"/>
			<path class="st1" d="M65.96,83.03L65.96,83.03c-2.94,0-5.38,2.1-5.84,4.86v52.39c0,2.06,1.13,3.97,2.95,5.01l1.84,1.04v14.18
				c0,0.6,0.49,1.08,1.1,1.08c0.61,0,1.1-0.49,1.1-1.08v-14.18l1.84-1.04c1.82-1.03,2.95-2.95,2.95-5.01V88.85
				C71.88,85.64,69.23,83.03,65.96,83.03z"/>
			<g>
				<path class="st2" d="M121.67,33.37c-21.09,0-38.18,16.8-38.18,37.51c0,8.4,2.81,16.16,7.57,22.42l-5.58,10.71l15.58-1.55
					c5.95,3.76,13.02,5.94,20.62,5.94c21.09,0,38.18-16.8,38.18-37.51C159.86,50.17,142.76,33.37,121.67,33.37z"/>
				<g>
					<path class="st3" d="M100.36,80.29c0.92,0.58,3.05,1.48,5.3,1.48c4.16,0,5.45-2.6,5.41-4.56c-0.04-3.29-3.05-4.7-6.18-4.7h-1.8
						v-2.39h1.8c2.36,0,5.34-1.19,5.34-3.98c0-1.88-1.21-3.54-4.2-3.54c-1.91,0-3.75,0.83-4.78,1.55l-0.85-2.31
						c1.25-0.9,3.68-1.81,6.26-1.81c4.71,0,6.84,2.75,6.84,5.6c0,2.42-1.47,4.48-4.42,5.53v0.07c2.94,0.58,5.34,2.75,5.34,6.04
						c0,3.76-2.98,7.05-8.72,7.05c-2.69,0-5.04-0.83-6.22-1.59L100.36,80.29z"/>
					<path class="st3" d="M118.17,77.98c0-2.96,1.8-5.06,4.75-6.29l-0.04-0.11c-2.65-1.23-3.79-3.25-3.79-5.28
						c0-3.72,3.2-6.25,7.4-6.25c4.64,0,6.96,2.86,6.96,5.78c0,1.99-0.99,4.12-3.94,5.5v0.11c2.98,1.16,4.82,3.22,4.82,6.07
						c0,4.09-3.57,6.83-8.13,6.83C121.19,84.34,118.17,81.41,118.17,77.98z M131.05,77.83c0-2.86-2.02-4.23-5.26-5.13
						c-2.8,0.8-4.31,2.6-4.31,4.84c-0.11,2.39,1.73,4.48,4.78,4.48C129.17,82.02,131.05,80.25,131.05,77.83z M122.14,66.08
						c0,2.35,1.8,3.62,4.56,4.34c2.06-0.69,3.64-2.13,3.64-4.27c0-1.88-1.14-3.83-4.05-3.83C123.62,62.32,122.14,64.06,122.14,66.08
						z"/>
					<path class="st3" d="M152.58,63.84c-0.04,4.16-3.05,6.04-5.89,6.04c-3.28,0-5.85-2.31-5.85-5.86c0-3.76,2.76-6.07,5.93-6.07
						C150.33,57.95,152.58,60.44,152.58,63.84z M143.3,63.95c0,2.39,1.58,4.12,3.42,4.12c1.95,0,3.39-1.66,3.39-4.16
						c0-1.81-0.99-4.16-3.42-4.16C144.33,59.75,143.3,62,143.3,63.95z"/>
				</g>
			</g>
		</g>
	</g>
	<g>
		<g>
			<path class="st5" d="M593.64,319.28L621,290.92c0,0,29.29,15.83,63.44,30.95c9.39-16.05,24.71-68.85,25.53-71.37
				c0.83-2.53-17.94-34.24-13.74-35.04c4.2-0.79,9.65,16.94,14.09,15.14c4.44-1.8,15.85-42.94,18.52-40.69c5,4.2-6,25.59-3.37,27.15
				c2.63,1.56,9.32-23.71,14.4-22.63c5.09,1.08-8.59,23-7.09,25.11c1.5,2.11,15.8-18.46,18.75-13.7
				c1.6,2.59-13.19,17.91-10.15,19.62c3.04,1.71,16.37-7.94,17.96-4.81c1.59,3.13-12.44,6.38-16.33,14.3
				c-3.89,7.91-10.98,10.99-13.33,25.95c-2.35,14.94-8.78,94.91-25.36,101.32C689.84,367.82,593.64,319.28,593.64,319.28z"/>
			<path class="st6" d="M624.64,282.23c0,0,6.41,1.89,8.39,2.87c13.42,6.65,49.64,33.35,49.64,33.35s-8.03,27.97-16.79,38.73
				l-61.32-24.74L624.64,282.23z"/>
			<path class="st2" d="M743.71,222.55c-3.34-1.88,13.02-17.85,11.26-20.69c-3.24-5.23-18.93,17.34-20.58,15.03
				c-1.65-2.31,13.36-26.37,7.78-27.55c-5.58-1.18-12.92,26.54-15.81,24.83c-2.89-1.71,9.18-25.18,3.7-29.79
				c-2.93-2.46-14.87,39.7-19.74,41.67c-4.87,1.97-11.43-14.5-16.04-13.63c-4.61,0.87,15.99,35.68,15.08,38.45
				c-0.15,0.45-0.73,2.4-1.64,5.42c7.32,0.65,17.07,1.93,23.56,4.37c2.82-15.02,10.22-18.46,14.35-26.85
				c4.27-8.68,19.67-12.26,17.92-15.69C761.8,214.68,747.04,224.43,743.71,222.55z"/>
			<path class="st7" d="M710.53,251.89c0,0,11.75-3.75,18.07,3.25C728.6,255.15,723.69,251.4,710.53,251.89z"/>
			<g>
				<g>
					<path class="st8" d="M659.52,595.28c1.13-9.45,2.05-16.37,2.7-19.98c5.87-32.62-3.07-82.37-3.07-82.37l-20.81-7.68
						l-32.45,110.03H659.52z"/>
					<path class="st1" d="M626.56,595.28l14-40.06l14.61-84.05l-88.04,11.29c0,0-24.65,36.38-30.52,66.49
						c-1.95,9.98-2.13,26.83-1.91,46.32H626.56z"/>
					<path class="st4" d="M587.09,275.48c0,0-32.64-2.04-45.55,11.76c-12.91,13.8,28.64,122.96,30.99,140.52
						c2.35,17.56-11.97,64.26-11.97,64.26s76.67,15.13,98.59,0.91c0,0,2.35-126.29,0-138.84c-2.35-12.55-21.91-63.56-26.61-68.58
						C627.85,280.49,587.09,275.48,587.09,275.48z"/>
					<path class="st9" d="M597.96,232.71c0,0-0.17,0.94-0.47,2.55c-1.46,7.69-7.06,33.22-10.85,40.23
						c-4.58,8.48,15.66,35.52,35.14,32.22c5.8-0.98-4.9-24.85-4.39-27.38c0.98-4.84,2.32-11.44,3.68-18.21
						c0.77-3.82,1.55-7.69,2.28-11.33c2.08-10.34,3.78-18.8,3.78-18.8L597.96,232.71z"/>
					<path class="st5" d="M597.49,235.26c0.3-1.6,0.47-2.55,0.47-2.55l29.19-0.71c0,0-1.7,8.46-3.78,18.8
						c-0.73,3.62-1.5,7.47-2.27,11.27c-4.51-0.65-9.21-2.8-13.94-6.85c-5.15-4.42-8.52-9.73-10.56-15.39
						C596.96,238.01,597.26,236.45,597.49,235.26z"/>
					<path class="st9" d="M617.6,167.66c0,0-13.76-1.56-22.38,9.38c-8.62,10.94-17.92,44.75,3.5,63.14
						c21.42,18.39,42.59-2.43,45.73-24.49C647.59,193.62,648.81,166.87,617.6,167.66z"/>
					<path class="st9" d="M650.79,215.36c-2.56,4.87-6.85,7.57-9.59,6.03c-2.74-1.54-2.88-6.75-0.33-11.62
						c2.56-4.87,6.85-7.57,9.59-6.03C653.2,205.29,653.35,210.49,650.79,215.36z"/>
					<path class="st0" d="M619.14,164.05c0,0-18.38,32.16-31.53,33.65c-13.15,1.49-14.88,18.57-14.88,18.57s4.7-39.38,17.72-46.97
						C603.47,161.71,619.14,164.05,619.14,164.05z"/>
					<g>
						<path class="st4" d="M592.01,229.69c-1.04-1.41-10.14-13.86-10.54-17.74c-0.01-0.11-1.06-10.92,2.79-14.32
							c0.98-0.87,2.22-1.18,3.56-0.9c5.91,1.22,11.06,10.15,11.28,10.53l-1.86,1c-0.05-0.09-4.81-8.57-9.83-9.61
							c-0.73-0.15-1.31-0.01-1.82,0.44c-2.37,2.09-2.46,9.43-2.13,12.66c0.26,2.55,6.22,11.43,10.17,16.79L592.01,229.69z"/>
					</g>
					<path class="st9" d="M591.06,205.78c1.07,5.71-1.05,11.2-4.77,11.95c-3.72,0.75-7.64-3.52-8.71-9.23
						c-1.07-5.71,1.08-10.95,4.8-11.7C586.11,196.04,589.99,200.06,591.06,205.78z"/>
					<g>
						<path class="st9" d="M713.33,322.75c-14.11,11.15-36.89,35.76-54.99,47.65c-20.45-12.75-54.95-45.48-54.95-45.48l-27.7,33.47
							c-0.68,0.14,77.23,53.2,89.36,50.51c14.31-3.18,45-46.33,61.43-75.73L713.33,322.75z"/>
						<path class="st6" d="M629.31,342.94c0,0-49.12-48.03-69.04-54.76c-19.93-6.73-38.19,7.65-39.43,26
							c-1.24,18.35,77.29,70.92,77.29,70.92L629.31,342.94z"/>
					</g>
					<path class="st4" d="M646.09,202.77c0.28,0.41,0.47,1.91,0.47,1.91l-2.78,5.9l-1.34-0.01l3.42-7.97
						C645.85,202.59,646.05,202.71,646.09,202.77z"/>
					<path class="st4" d="M644.5,209.09c0,0-9.37-0.41-21.53-3.21c-12.16-2.8-27.87-0.82-27.87-0.82l-8.99,17.33
						c0,0,2.85,23.24,29.25,29.95c0,0,8.55,1.68,19.19-7.65C645.2,235.37,644.5,209.09,644.5,209.09z"/>
				</g>
			</g>
			<g>
				<path class="st1" d="M736.03,286.62c-2.77,0.09-8.57,0.76-9.95,3.13c0,0.02-2.21,5.08-2.57,30.64l-6.79-0.47
					c2.2-29.18,5.03-32.57,4.87-32.22c2.13-4.27,9.05-5.28,13.87-5.22c0.02,0,0.87,0.03,0.82,0.02L736.03,286.62z"/>
				
					<rect x="787.58" y="283.28" transform="matrix(-1 -1.224647e-16 1.224647e-16 -1 1580.9551 573.5469)" class="st1" width="5.8" height="6.98"/>
				<path class="st1" d="M761.32,352.08c0-10.31-2.47-20.48-7.2-29.68l-0.93-1.81l-22.79-0.16l-2.16,4.92
					c-3.63,8.29-5.48,17.22-5.44,26.24l0.26,66.53h0c0,0,0,0,0,0.01c0,2.28,8.57,4.12,19.13,4.12c10.57,0,19.13-1.85,19.13-4.12
					C761.32,418.13,761.32,352.08,761.32,352.08z"/>
				
					<rect x="732.15" y="308.84" transform="matrix(-1 -1.224647e-16 1.224647e-16 -1 1485.4382 634.6023)" class="st10" width="21.13" height="16.92"/>
				<path class="st4" d="M734.52,280.91h55.52v10.22c0,4.33-3.57,7.84-7.98,7.84h-17.73c-3.22,0-8.85,2.78-8.85,5.95l-1.37,9.14
					l-15.73,0.11v-15.2h-3.87V280.91z"/>
			</g>
			<path class="st2" d="M701.18,328.44c0,0,12.25-20.84,15.26-24.88c3.01-4.03,3.08-17.08,4.18-20.3c1.1-3.23,9.03,1.08,6.57,6.99
				c-2.46,5.92-0.2,7.39,1.99,8.47c2.19,1.08,21.9-1.79,25.73,1.08c3.83,2.87,2.19,7.89,0,8.61c0,0,3.1,3.05,2.01,6.28
				c-1.09,3.23-2.55,3.77-2.55,3.77s1.28,0.54,0.73,3.94c-0.55,3.41-3.28,3.94-3.28,3.94s-1.1,1.25-0.91,3.76
				c0.18,2.51-3.28,2.15-11.13,3.05c-7.85,0.9-10.18-0.63-12.92,1.34c-2.74,1.97-5.11,9.41-5.11,9.41L701.18,328.44z"/>
		</g>
		<g>
			<g>
				<path class="st5" d="M172.51,391.38c0,0-36.62,15.39-42.38,14.42c0,0-2.78-1.27-8.48-2.73c-5.7-1.46-20.29-2.06-28.36,0.99
					c-8.07,3.05-15.06,3.03-15.16,5.51c-0.1,2.48,1.18,3.27,4.74,3.14c3.56-0.13,13.08-2.51,13.11-2.41
					c0.49,1.34,0.83,0.3-1.62,1.26c-2.06,0.81-22.99,10.22-29.51,13.15c-1.07,0.48-1.56,1.72-1.09,2.79l0,0
					c0.46,1.06,1.7,1.57,2.8,1.15l21.78-8.44c0.1-0.04,0.22,0,0.28,0.08l0,0c0.08,0.12,0.03,0.28-0.1,0.34l-25.1,10.86
					c-1.22,0.53-1.86,1.86-1.48,3.12l0,0c0.44,1.5,2.11,2.28,3.57,1.69l26.02-10.52c0.12-0.05,0.26,0.01,0.3,0.13l0,0
					c0.04,0.11-0.01,0.23-0.12,0.28l-24.84,10.67c-1.18,0.51-1.78,1.8-1.41,3l0,0c0.43,1.39,1.98,2.12,3.36,1.58l23.98-9.39
					c0.12-0.05,0.26,0.02,0.29,0.15l0,0c0.03,0.1-0.03,0.2-0.12,0.25L73,440.95c-1.28,0.55-1.93,1.97-1.5,3.27l0,0
					c0.37,1.11,1.43,1.85,2.61,1.84c4.82-0.05,17.91-4.77,30.25-8.05c15.61-4.16,77.85-21.07,77.85-21.07s0.75-12.81-4.84-17.75
					C171.77,394.25,172.49,395.76,172.51,391.38z"/>
				<polygon class="st11" points="220.55,283.06 199.4,376.96 150.22,394.7 163.49,423.43 232.7,409.16 222.54,359.28 				"/>
				<g>
					<path class="st12" d="M296.77,537.08c0.01,0.03,0.02,0.06,0.03,0.1L296.77,537.08z"/>
					<path class="st0" d="M294.45,595.28c2-22.97,1.94-59.38,2.31-58.2l-15.95-62.02c-18.18,0.08-35.86,0.16-51.52,0.15
						c-0.52,3.38-1.03,6.97-1.55,10.84c-3.36,25.81,4.79,70.31,12.18,109.22H294.45z"/>
				</g>
				<path class="st7" d="M296.56,595.28h57.22c-2.87-26.54,21.64-88.13,18.72-111.44c-26.19-0.42-61.39-8.9-91.69-8.78l-9.14,29.71
					c5.32,23.76,5.98,87.53,7.62,90.35L296.56,595.28z"/>
				<path class="st4" d="M224.82,282.86l19.36-6.44c0,0,34.87-9.74,41.42-11.08c0.57-0.12,20.54,59.33,36.92,103.97
					c16.38,44.64,35.37,139.65,35.37,139.65s-25.67,13.5-58.26,17.55c-33.88,4.21-80.23,2.89-80.23,2.89s10.49-123.76,10.01-152.55
					C228.93,348.06,224.82,282.86,224.82,282.86z"/>
				<path class="st11" d="M206.18,387.11l14.37-104.04l25.29-12.02c0,0-10.13,47.81-9.89,87.41c0.24,39.6-3.9,188.88-3.9,188.88
					s-18.1,6.6-25.54-3.32C199.07,534.09,206.18,387.11,206.18,387.11z"/>
				<path class="st11" d="M359.97,408.21c4.76-111.58-20.85-137.97-20.85-137.97l-53.68-4.86c0,0-28.8,66.31-18.09,156.52
					c5.7,47.97,17.5,91.23,37.72,112.94c14.74,15.83,71.61-3.52,81.75-24.04C388.66,507.97,357.61,463.62,359.97,408.21z"/>
				<path class="st5" d="M279.82,228.51l5.62,36.87c0,0-8.14,35.93-23.24,34.07c-12.66-1.56-17.46-22.37-17.46-22.37
					s0.09-8.21-0.12-17.71c-0.15-6.64-0.77-13.68-2.47-18.46C238.04,229.3,279.82,228.51,279.82,228.51z"/>
				<path class="st5" d="M242.16,240.91c-4.13-11.61,30.99-9.7,30.99-9.7l6.44-0.76c-0.56,2.51-2.25,7.94-5.42,12.06
					c-6.75,8.77-19.43,14.66-29.54,16.8C244.48,252.68,243.85,245.67,242.16,240.91z"/>
				<g>
					<path class="st1" d="M211.98,169.61c0,0-3.16,24.42,3.7,40.34c6.86,15.92,15.51,24.86,15.51,24.86l16.29-66.14L211.98,169.61z"
						/>
					<path class="st9" d="M264.15,169.91c0.82-0.63,22.88,44.29,14.93,61.35c-7.95,17.06-30.09,29.38-42.22,21.99
						c-13.42-8.18-30.2-59.09-15.51-78.78C236.04,154.78,264.15,169.91,264.15,169.91z"/>
					<path class="st13" d="M279.08,231.25c1.85-3.97,2.08-9.44,1.32-15.5l-0.61,0.15l-2.71,19.05
						C277.82,233.76,278.49,232.52,279.08,231.25z"/>
					<path class="st1" d="M253.46,140.34c14.54,3.81,22.67,7.81,37.35,20.01c18.06,15,11.27,42.93,1.19,57.62
						c-10.08,14.69-5.96,26.04-5.96,26.04l-4.13-5.01c-3.16-4.11-3.39-26.62-3.03-29.61c0.94-7.91,1.06-9.58-3.75-14.32
						c-3.71-3.65-6.83-14.15-12.78-20.24L241.43,180c0,0-13.23,2.95-22.61-0.91C191.88,167.98,214.88,129.83,253.46,140.34z"/>
					<path class="st4" d="M217.64,217.63c0,0,3.4,30.07,17.56,37.54c8.87,4.68,31.71-2.41,42.14-20.5c0,0-10.43-15.88-11.05-23.31
						c0,0-18.73,1.93-33.01,3.93C223.68,216.64,217.64,217.63,217.64,217.63z"/>
					<polygon class="st4" points="273.66,193.27 262.61,214.37 265.07,214.57 275.19,193.97 					"/>
					<polygon class="st4" points="278.71,212.63 275.02,234.34 277.34,234.67 280.89,212.36 					"/>
					<path class="st9" d="M273.11,202.18c0.16,6.07,3.2,10.92,6.8,10.83c3.59-0.09,6.38-5.09,6.22-11.16
						c-0.16-6.07-3.2-10.92-6.8-10.83C275.74,191.11,272.95,196.1,273.11,202.18z"/>
				</g>
				<path class="st4" d="M94.77,439.95c-0.59-3.83,1.51-7.47,4.9-9.05c-0.26-0.59-0.44-1.21-0.54-1.86
					c-0.63-4.11,2.26-7.97,6.44-8.59c4.19-0.62,8.11,2.22,8.75,6.33l2.99,19.36c0.55,3.54-1.94,6.87-5.55,7.4
					c-3.61,0.54-6.99-1.91-7.53-5.45c-0.04-0.29-0.07-0.58-0.07-0.86C99.61,447.6,95.47,444.44,94.77,439.95z"/>
				<path class="st4" d="M117.79,405.77c2.52,2.45,2.79,6.37,0.95,9.55c0.52,0.28,1,0.62,1.42,1.04c2.7,2.63,2.47,7.18-0.52,10.13
					c-2.98,2.95-7.61,3.21-10.31,0.58l-12.7-12.39c-2.33-2.27-2.13-6.18,0.45-8.73c2.57-2.54,6.56-2.77,8.88-0.5
					c0.19,0.18,0.36,0.38,0.52,0.59C109.88,403.05,114.84,402.9,117.79,405.77z"/>
				<path class="st3" d="M113.41,415.96c0.28,1.98-1.01,3.78-2.88,4.04c-1.87,0.26-3.62-1.14-3.9-3.11
					c-0.28-1.97,1.01-3.78,2.88-4.04C111.39,412.59,113.13,413.98,113.41,415.96z"/>
				<path class="st2" d="M118.65,442.87L118.65,442.87c-5.06,4.49-12.87,4.1-17.44-0.87l-9.72-10.57
					c-4.57-4.97-4.17-12.64,0.89-17.13h0c5.06-4.49,12.87-4.1,17.44,0.87l9.72,10.57C124.1,430.71,123.71,438.38,118.65,442.87z"/>
				<path class="st9" d="M178.84,418.81c-9.97,3.19-28.88,4.83-32.94,3.41c0,0-1.98-0.68-7.61-3.2c-5.64-2.52-19.62-3.37-28.53-1.64
					c-8.91,1.72-16.15,0.47-16.7,3.02c-0.55,2.55,0.62,3.6,4.33,4.09c3.71,0.49,14-0.29,14.01-0.17c0.05,0.49-1.19,0.87-1.91,1.01
					c-2.29,0.44-25.67,6.51-32.96,8.39c-1.2,0.31-1.93,1.5-1.64,2.69c0.28,1.18,1.48,1.93,2.69,1.68l24.09-4.88
					c0.11-0.02,0.23,0.03,0.27,0.14c0.06,0.14-0.02,0.29-0.16,0.33l-27.97,6.8c-1.36,0.33-2.26,1.6-2.11,2.97
					c0.18,1.63,1.76,2.74,3.39,2.38l28.86-6.28c0.13-0.03,0.26,0.06,0.29,0.19c0.02,0.12-0.06,0.24-0.18,0.27l-27.66,6.65
					c-1.31,0.31-2.17,1.54-2.01,2.86c0.19,1.52,1.66,2.55,3.18,2.23l26.75-5.04c0.13-0.03,0.25,0.13,0.26,0.27
					c0.01,0.11,0.2,0.91,0.09,0.93L82,451.98c-1.43,0.34-2.36,1.69-2.15,3.12l0,0c0.18,1.21,1.14,2.17,2.37,2.37
					c5,0.8,16.73-1.73,30.1-2.95c5.78-0.53,19.53-4.97,32.12-6.92c14.75-2.29,27.8-0.48,37.9,3.18c1.1-3.7,4.72-13.1,3.38-17
					C183.91,428.5,180.9,423.86,178.84,418.81z"/>
				<path class="st4" d="M114.9,439c0.36,2.56-1.32,4.9-3.75,5.23s-4.71-1.47-5.07-4.02c-0.36-2.56,1.32-4.9,3.75-5.23
					C112.27,434.64,114.54,436.44,114.9,439z"/>
				<path class="st4" d="M110.46,440.96c0.36,2.56-1.32,4.9-3.75,5.23s-4.71-1.47-5.07-4.02c-0.36-2.56,1.32-4.9,3.75-5.23
					C107.82,436.6,110.09,438.4,110.46,440.96z"/>
				<path class="st4" d="M105.82,445.86c0.23,1.62-0.92,3.12-2.57,3.35c-1.65,0.23-3.18-0.91-3.41-2.53
					c-0.23-1.62,0.92-3.12,2.57-3.35C104.06,443.11,105.59,444.24,105.82,445.86z"/>
				
					<ellipse transform="matrix(0.992 -0.1263 0.1263 0.992 -56.1728 17.2535)" class="st4" cx="107.98" cy="451.63" rx="3.55" ry="2.89"/>
				<path class="st4" d="M111.98,445.99c0.22,1.58-1.17,3.08-3.11,3.35c-1.94,0.27-3.7-0.8-3.92-2.38
					c-0.22-1.58,1.17-3.08,3.11-3.35C110,443.34,111.76,444.41,111.98,445.99z"/>
				<path class="st2" d="M166.21,416.41l3.74,36.08c0,0,127.41-3.68,135.57-7.02s43.53-107.57,43.53-107.57s9.4-62.49-9.92-67.66
					c-19.32-5.17-32.24,14.21-40.4,42.94c-8.16,28.73-24.48,84.86-24.48,84.86L166.21,416.41z"/>
			</g>
			<g>
				<path class="st14" d="M502.28,282.24c6.33-19.85,2.36-56.97-7.48-74.76c-19.41-35.09-75.64-65.87-106.51-37.61
					c-31.39,6.78-55.99,38.16-56.91,69.62c-34.07,18.44-55.34,60.92-24.23,94.52c-9.61,29.17,14.08,70.86,36.69,91.24
					c5.43,4.89-3.37,38.89,29.68,54.13C396.89,490.15,583.41,480.31,502.28,282.24z"/>
				<g>
					<path class="st9" d="M413.29,183.98c0,0,12.91,3.08,21.01,15.39c8.1,12.32,14.34,50.82-11.64,67.3
						c-25.98,16.48-46.98-9.98-47.6-33.15C374.44,210.35,379,179.49,413.29,183.98z"/>
					<path class="st9" d="M369.42,228.53c0.53,5.48,3.6,9.67,6.85,9.37c3.25-0.31,5.45-4.99,4.91-10.47
						c-0.53-5.48-3.6-9.67-6.85-9.37C371.09,218.36,368.89,223.05,369.42,228.53z"/>
					<path class="st14" d="M403.38,179.66c0,0,20.17,43.47,33.67,46.5c13.5,3.02,13.31,20.07,13.31,20.07s-3.44-46.11-16.09-55.13
						C421.61,182.07,403.38,179.66,403.38,179.66z"/>
					<path class="st9" d="M431.3,234.15c-1.78,5.5-0.15,10.92,3.63,12.1c3.78,1.18,8.29-2.32,10.07-7.82
						c1.78-5.5,0.15-10.92-3.63-12.1C437.59,225.15,433.08,228.65,431.3,234.15z"/>
					<g>
						<path class="st9" d="M245.38,297.51c-7.26-12.26,26-34.63,50.48-53.84c9.29-8,17.31-12.68,17.35-12.71
							c6.78-5.78,19.06-15.7,30.85-20.16c1.92-0.73,18.97,0.52,20.54,0.55c1.57,0.03,11.55,3.01,9.13,6.67
							c-0.57,0.87-7.3-0.11-11.73-0.79c4.99,1.05,14.06,4.02,14.81,5.6c1.74,3.67-15.11,1.66-20,0.56
							c-3.91-0.89-10.35,6.09-12.77,8.92c-0.01,0.01-0.01,0.01-0.02,0.02c-1.16,1.38-0.43,3.48,1.33,3.89
							c1.16,0.27,2.47,0.4,3.64-0.08c0.51-0.21,2.63-4.09,4.44-5.05c2.87-1.53,5.39,0.18,2.67,4.44c0,0-1.96,3.15-5.34,7.36
							c-3.21,3.99-17.84,5.91-21.35,5.33c-1.76,0.03-6.67,1.41-7.64,1.41c0,0-21.07,17.83-36.1,37.52
							c20.52,5.59,54.95,16.8,54.95,16.8s2.25,42.79,0.09,41.5C338.55,344.15,253.85,311.8,245.38,297.51z"/>
					</g>
					<g>
						<path class="st5" d="M476.93,209.61c0.03-0.01-10.54,0.67-10.52,0.66c-4.9,1.4-10.78,4.25-11.41,5.88
							c-1.47,3.78,12.45-0.64,17.25-2.09c3.17-0.96,14.13,2.97,18.36,5.43L476.93,209.61z"/>
						<path class="st15" d="M490.62,219.49l2.05,1.48C492.22,220.51,491.51,220.01,490.62,219.49z"/>
					</g>
					<path class="st14" d="M511.15,595.28c0.05-73.27-29.21-94.55-33.6-91.62l-109,11.14l-22.5,80.49H511.15z"/>
					<path class="st1" d="M292.83,331.37l10.54-40.21l89.72,10.87c0,0,25.19-1.59,38.76-1.16c9.62,0.3,64.44-7.69,100.89-16.55
						c0.21,0.47,6.59,32.86,12.98,44.85c-27.36,13.45-41.12,14.86-59.98,30.78c-0.01,0.07-1.94,79.4-3.85,126.13
						c4.1,11.61,14.4,35.13,14.4,35.13s-33.57,18.85-84.58,14.56c-30.44-2.56-52.76-9.42-52.76-9.42s9.41-33.45,11.93-52.98
						c-10.96-47.89-27.48-116.06-27.48-116.06L292.83,331.37z"/>
					<path class="st9" d="M424.09,258.53c0,0,2.88,32.65,6.59,41.69c3.71,9.05,3.15,41.59-16.89,47.46
						c-20.04,5.87-19.68-35.88-20.51-45.55c-0.83-9.67-1.74-41.31-1.74-41.31L424.09,258.53z"/>
					<path class="st5" d="M425.09,268.44c-2.05,2.18-4.44,4.16-7.21,5.9c-9.71,6.07-18.61,5.99-25.84,2.35
						c-0.31-8.62-0.52-15.87-0.52-15.87l32.56-2.28C424.09,258.53,424.45,262.68,425.09,268.44z"/>
					<path class="st4" d="M377.73,224.85l-6.27,31.22c0,0,12.68,16.12,25.51,17.59c12.83,1.47,10.14,0.88,17.01-0.29
						c6.86-1.17,21.98-11.43,21.98-11.43s-1.79-26.09-0.3-30.78C435.66,231.16,403.09,238.34,377.73,224.85z"/>
					<g>
						<path class="st4" d="M429.98,265.71l-1.28-1.98c0.07-0.04,7.05-4.39,14.28-9.34c12.54-8.6,15.42-11.87,16.03-13.05
							c2.35-4.61,1.65-17.4-1.12-20.73c-0.67-0.81-1.15-0.68-1.38-0.62c-4.32,1.15-17.83,11.65-22.67,15.6l-0.02,0.02
							c-0.6,0.47-3.64,2.83-4.11,3.13l-1.32-1.95c0.28-0.19,2.47-1.87,3.94-3.01c0.87-0.71,17.88-14.54,23.56-16.05
							c1.41-0.38,2.78,0.12,3.85,1.4c3.63,4.36,4,18.18,1.41,23.26c-0.47,0.92-1.89,3.71-16.8,13.93
							C437.07,261.3,430.05,265.67,429.98,265.71z"/>
					</g>
					<g>
						<path class="st4" d="M377.04,258.88c-0.06-0.03-5.67-2.81-11.42-6.26c-3.4-2.04-6.19-3.91-8.3-5.56
							c-2.81-2.21-4.42-4.04-4.9-5.59c-1.05-3.36,1.05-9.49,2-11.96c1.94-5.05,4.55-9.49,6.97-11.88c1.79-1.77,3.49-2.42,5.05-1.96
							c5.65,1.7,15.66,13.5,16.08,14l-1.84,1.5c-2.76-3.27-10.82-12.02-14.95-13.26c-0.62-0.19-1.59,0.31-2.66,1.37
							c-2.16,2.13-4.63,6.36-6.43,11.05c-1.75,4.55-2.52,8.65-1.95,10.45c1.19,3.81,15,11.84,23.41,16.01L377.04,258.88z"/>
					</g>
					<ellipse class="st1" cx="369.93" cy="368.99" rx="27.2" ry="33.41"/>
					<ellipse class="st1" cx="461.74" cy="366.98" rx="27.2" ry="33.41"/>
					<path class="st9" d="M471.76,222.07c-6.94,0.44-9.97-1.66-12.43-0.34c-2.46,1.32,5.82,5.57,8.95,6.89
						c3.13,1.32,19.02,4.76,22.38,3.22c3.36-1.54,12.31,3.96,20.59,11.87c8.28,7.91,37.61,36.21,37.61,36.21l-19.04,9.73L541,322.41
						c0,0,50.37-22.26,54.85-32.82c1.22-2.88-14.55-22.87-34.02-37.82c-19.47-14.95-54.84-32.25-57.75-35.33
						c-2.91-3.08-19.69-11.43-21.03-12.31c-1.34-0.88-17.05,0.34-17.05,0.34s-15.6,7.91-14.72,10.36
						c1.34,3.74,14.82-3.62,15.42-3.62c0.33,0,4.45,1.63,9.55,3.71c3.86,1.57,2.78,4.69,0.99,5.67
						C475.66,221.46,473.64,221.95,471.76,222.07z"/>
					<path class="st1" d="M532.74,284.32c-8.52,2.07-18.05,4.1-27.77,5.98l15.89,49.83c7-3.42,15.22-6.22,24.86-10.96
						C539.32,317.18,532.95,284.79,532.74,284.32z"/>
					<path class="st9" d="M353.44,231.09c-1.81,0.96-3.93,4.85-4.44,5.05l1.77,6.74c3.38-4.21,5.34-7.36,5.34-7.36
						C358.83,231.27,356.31,229.56,353.44,231.09z"/>
				</g>
			</g>
		</g>
	</g>
	<path class="st4" d="M400.32,72.87c4.21,0.03,8.42,0.05,12.63,0.08c-0.04,4.8-0.15,9.6-0.32,14.39c3.26,0.09,6.52,0.18,9.78,0.27
		c0.18-4.87,0.28-9.73,0.33-14.6c4.21,0.03,8.42,0.05,12.63,0.08c0.03-2.97,0.03-5.95,0-8.92c-4.21,0.03-8.42,0.05-12.63,0.08
		c-0.04-4.87-0.15-9.73-0.33-14.6c-3.26,0.09-6.52,0.18-9.78,0.27c0.17,4.8,0.28,9.6,0.32,14.39c-4.21,0.03-8.42,0.05-12.63,0.08
		C400.34,67.22,400.34,70.05,400.32,72.87z"/>
	<g>
		<g>
			<path class="st1" d="M105.43,487.75c-0.78,0.1-1.49-0.45-1.59-1.22c-0.1-0.77,0.46-1.47,1.24-1.56c0.78-0.09,1.49,0.45,1.59,1.22
				C106.77,486.95,106.21,487.65,105.43,487.75z"/>
			<path class="st1" d="M86.63,490.96c-0.78,0.09-1.49-0.45-1.59-1.22c-0.1-0.77,0.46-1.47,1.24-1.56c0.78-0.09,1.49,0.45,1.59,1.22
				C87.97,490.17,87.41,490.87,86.63,490.96z"/>
			<path class="st1" d="M91.99,503.21c-0.78,0.09-1.49-0.45-1.59-1.22c-0.1-0.77,0.46-1.47,1.24-1.56c0.78-0.1,1.49,0.45,1.59,1.22
				C93.33,502.42,92.77,503.12,91.99,503.21z"/>
			<path class="st1" d="M106.3,496.92c-0.94,0.11-1.79-0.54-1.91-1.46c-0.12-0.92,0.55-1.76,1.49-1.87
				c0.94-0.11,1.79,0.54,1.91,1.46C107.9,495.97,107.24,496.8,106.3,496.92z"/>
			<path class="st1" d="M105.06,491.8c-0.54-0.01-0.97-0.44-0.97-0.97c0.01-0.53,0.45-0.96,0.99-0.95c0.54,0.01,0.97,0.44,0.97,0.97
				C106.04,491.38,105.6,491.8,105.06,491.8z"/>
			<path class="st1" d="M97.11,502.15c-0.54,0.07-1.02-0.31-1.09-0.84c-0.07-0.53,0.31-1.01,0.85-1.07
				c0.54-0.07,1.02,0.31,1.09,0.84C98.02,501.6,97.64,502.08,97.11,502.15z"/>
			<path class="st1" d="M90.53,485.13c-0.54,0.06-1.02-0.31-1.09-0.84c-0.07-0.53,0.31-1.01,0.85-1.07
				c0.54-0.07,1.02,0.31,1.09,0.84C91.45,484.58,91.07,485.06,90.53,485.13z"/>
			<path class="st1" d="M98.43,484.01c-1.21,0.15-2.3-0.69-2.45-1.88c-0.15-1.18,0.71-2.26,1.91-2.41c1.21-0.15,2.3,0.69,2.45,1.88
				C100.5,482.78,99.64,483.86,98.43,484.01z"/>
			<path class="st1" d="M86.64,498.54c-1.21,0.15-2.3-0.69-2.45-1.88c-0.15-1.18,0.71-2.26,1.91-2.41c1.21-0.15,2.3,0.69,2.45,1.88
				C88.7,497.32,87.85,498.4,86.64,498.54z"/>
			<path class="st1" d="M102.34,504.29c-1.21,0.15-2.3-0.69-2.45-1.88c-0.15-1.18,0.71-2.26,1.91-2.41c1.21-0.15,2.3,0.69,2.45,1.88
				C104.4,503.07,103.55,504.15,102.34,504.29z"/>
			<path class="st1" d="M102.35,501.89c-0.35-0.23-0.68-0.59-0.95-0.92c-0.39-0.49-0.72-1.06-0.97-1.63
				c-0.05-0.13-0.22-0.49-0.46-1.1c1.21-0.85,2.12-2.06,2.58-3.45c0.12,0,0.23,0,0.35,0c0.27,0,0.54,0.01,0.81,0.02
				c0.74,0.05,1.71,0.27,2.25,0.74l0.24-0.9c-0.14,0.03-0.28,0.04-0.42,0.04c-0.14,0-0.27-0.01-0.4-0.02
				c-0.26-0.03-0.52-0.09-0.77-0.16c-0.25-0.08-0.5-0.17-0.74-0.28c-0.24-0.11-0.48-0.24-0.72-0.36c-0.11-0.06-0.22-0.12-0.33-0.19
				c0.11-0.75,0.08-1.52-0.06-2.26c0.7-0.16,1.66-0.33,2.37-0.22l-0.09-0.69c-0.69,0.28-1.68,0.34-2.42,0.35
				c-0.19-0.64-0.46-1.23-0.81-1.77c0.96-0.78,2.33-1.92,3.56-2.26l-0.5-0.79c-0.85,0.94-2.51,1.66-3.71,2.2
				c-0.88-0.98-2.05-1.7-3.35-2.05c0.09-1.25,0.2-2.53,0.76-3.67c0.08-0.16,0.17-0.33,0.29-0.48l-1.35-0.32
				c0.03,0.19,0.03,0.37,0.03,0.56c-0.02,1.29-0.54,2.52-1.05,3.69c-1.31-0.09-2.68,0.19-3.89,0.86c-0.63-0.66-1.16-1.23-1.55-1.98
				c-0.13-0.24-0.26-0.57-0.31-0.83l-0.61,0.35c0.11,0.09,0.23,0.21,0.32,0.32c0.66,0.76,1,1.72,1.32,2.69
				c-0.87,0.67-1.57,1.53-2.04,2.52c-0.69-0.04-2.1-0.09-2.88-0.7l-0.25,0.9c0.48-0.07,1.1,0.06,1.56,0.23
				c0.32,0.11,0.93,0.4,1.2,0.54c-0.38,1.3-0.34,2.66,0.04,3.88c-0.56,0.33-1.14,0.61-1.77,0.79c-0.59,0.17-1.37,0.28-1.92,0.17
				l0.43,1.29c0.38-0.4,1.08-0.76,1.65-0.97c0.64-0.22,1.3-0.34,1.97-0.39c0.6,1.24,1.57,2.26,2.75,2.94
				c-0.14,0.66-0.44,2.05-0.9,2.95l0.89,0.32c0.22-0.88,0.83-2.02,1.22-2.72c0.94,0.32,1.98,0.45,3.03,0.33
				c0.05,0.52,0.05,1.26-0.11,1.76l0.71-0.03c-0.2-0.5-0.26-1.24-0.26-1.78c0.73-0.12,1.42-0.34,2.04-0.66
				c0.4,0.49,0.63,0.8,0.73,0.92c0.6,0.79,1.22,1.93,1.31,2.9L102.35,501.89z"/>
		</g>
		<g>
			<path class="st1" d="M110.13,524.27c0,0.77-0.64,1.4-1.43,1.4c-0.79,0-1.43-0.63-1.43-1.4c0-0.77,0.64-1.4,1.43-1.4
				C109.49,522.87,110.13,523.5,110.13,524.27z"/>
			<path class="st1" d="M111.06,543c0,0.77-0.64,1.4-1.43,1.4c-0.79,0-1.43-0.63-1.43-1.4c0-0.77,0.64-1.4,1.43-1.4
				C110.43,541.6,111.06,542.22,111.06,543z"/>
			<path class="st1" d="M124.1,539.28c0,0.77-0.64,1.4-1.43,1.4c-0.79,0-1.43-0.63-1.43-1.4c0-0.77,0.64-1.4,1.43-1.4
				C123.46,537.87,124.1,538.5,124.1,539.28z"/>
			<path class="st1" d="M119.5,524.55c0,0.93-0.77,1.68-1.71,1.68s-1.71-0.75-1.71-1.68c0-0.93,0.77-1.68,1.71-1.68
				S119.5,523.63,119.5,524.55z"/>
			<path class="st1" d="M114.17,525.13c-0.07,0.53-0.56,0.89-1.1,0.82c-0.53-0.07-0.91-0.55-0.84-1.08c0.07-0.53,0.56-0.89,1.1-0.82
				C113.87,524.12,114.24,524.61,114.17,525.13z"/>
			<path class="st1" d="M123.65,534.16c0,0.53-0.44,0.96-0.98,0.96c-0.54,0-0.98-0.43-0.98-0.96c0-0.53,0.44-0.96,0.98-0.96
				C123.21,533.2,123.65,533.63,123.65,534.16z"/>
			<path class="st1" d="M105.65,538.48c0,0.53-0.44,0.96-0.98,0.96c-0.54,0-0.98-0.43-0.98-0.96c0-0.53,0.44-0.96,0.98-0.96
				C105.21,537.52,105.65,537.95,105.65,538.48z"/>
			<path class="st1" d="M105.49,530.64c0,1.19-0.98,2.16-2.2,2.16c-1.21,0-2.2-0.97-2.2-2.16c0-1.19,0.98-2.16,2.2-2.16
				C104.5,528.48,105.49,529.44,105.49,530.64z"/>
			<path class="st1" d="M118.72,543.92c0,1.19-0.98,2.16-2.2,2.16c-1.21,0-2.2-0.97-2.2-2.16c0-1.19,0.98-2.16,2.2-2.16
				C117.74,541.76,118.72,542.73,118.72,543.92z"/>
			<path class="st1" d="M126.46,529.32c0,1.19-0.98,2.16-2.2,2.16c-1.21,0-2.2-0.97-2.2-2.16c0-1.19,0.98-2.16,2.2-2.16
				C125.47,527.16,126.46,528.12,126.46,529.32z"/>
			<path class="st1" d="M124.03,529.01c-0.28,0.31-0.68,0.6-1.04,0.81c-0.55,0.32-1.16,0.57-1.77,0.75
				c-0.13,0.04-0.53,0.15-1.16,0.32c-0.71-1.28-1.82-2.32-3.17-2.93c0.01-0.11,0.03-0.23,0.04-0.34c0.03-0.26,0.08-0.53,0.12-0.78
				c0.14-0.72,0.49-1.63,1.02-2.1l-0.88-0.34c0.01,0.14,0,0.28-0.01,0.41c-0.02,0.13-0.04,0.26-0.07,0.39
				c-0.06,0.25-0.15,0.5-0.26,0.73c-0.11,0.24-0.23,0.46-0.38,0.69c-0.15,0.22-0.3,0.44-0.46,0.66c-0.07,0.1-0.15,0.2-0.23,0.3
				c-0.75-0.2-1.52-0.27-2.29-0.21c-0.07-0.71-0.13-1.65,0.07-2.34h-0.71c0.2,0.71,0.13,1.68,0.06,2.4c-0.67,0.1-1.3,0.3-1.89,0.57
				c-0.67-1.03-1.65-2.51-1.84-3.74l-0.86,0.39c0.84,0.94,1.37,2.65,1.76,3.88c-1.1,0.74-1.97,1.79-2.48,3.02
				c-1.25-0.24-2.53-0.5-3.61-1.2c-0.16-0.1-0.31-0.21-0.45-0.34l-0.49,1.27c0.2-0.01,0.38,0.01,0.57,0.04
				c1.3,0.18,2.48,0.83,3.6,1.48c-0.25,1.27-0.14,2.63,0.39,3.9c-0.74,0.53-1.38,0.98-2.19,1.27c-0.26,0.09-0.6,0.19-0.88,0.2
				l0.28,0.64c0.1-0.1,0.24-0.2,0.36-0.28c0.85-0.55,1.86-0.76,2.88-0.95c0.57,0.93,1.35,1.72,2.29,2.29
				c-0.12,0.67-0.34,2.04-1.06,2.72l0.88,0.35c-0.01-0.48,0.2-1.06,0.42-1.5c0.15-0.3,0.52-0.85,0.69-1.1
				c1.27,0.53,2.64,0.66,3.92,0.44c0.27,0.58,0.48,1.19,0.58,1.83c0.1,0.6,0.12,1.37-0.06,1.89l1.36-0.26
				c-0.36-0.42-0.64-1.14-0.77-1.73c-0.15-0.65-0.18-1.31-0.15-1.97c1.33-0.43,2.48-1.25,3.31-2.32c0.65,0.22,2.02,0.68,2.87,1.24
				l0.44-0.83c-0.86-0.32-1.94-1.06-2.6-1.52c0.44-0.88,0.7-1.87,0.71-2.92c0.54,0.02,1.28,0.1,1.77,0.32l0.06-0.69
				c-0.53,0.14-1.29,0.11-1.83,0.03c-0.03-0.73-0.17-1.42-0.41-2.07c0.54-0.33,0.88-0.51,1.02-0.59c0.87-0.49,2.11-0.96,3.09-0.92
				L124.03,529.01z"/>
		</g>
		<g>
			<polygon class="st0" points="105.86,328.09 89.55,328.09 88.06,313.43 107.35,313.43 			"/>
			<path class="st6" d="M97.28,297.92H55.46c-28,0-50.69,22.3-50.69,49.8l0.05,99.57h16.81l0.13-99.57
				c0-18.29,15.09-33.12,33.71-33.12h53.35v-5.36C108.81,302.99,103.65,297.92,97.28,297.92z"/>
		</g>
		<path class="st0" d="M48.04,408.65l-22.35,17.87c-6.04-3-13.57-2.45-19.16,2.02c-7.58,6.06-8.72,17.01-2.55,24.46
			c6.17,7.45,17.31,8.57,24.89,2.51c4.67-3.73,6.89-9.32,6.47-14.81l23.61-18.88c3.7-2.96,4.26-8.31,1.25-11.94
			C57.18,406.24,51.74,405.69,48.04,408.65z"/>
		<path class="st4" d="M108.2,399.74c0,2.39-1.97,4.33-4.41,4.33c-2.44,0-4.41-1.94-4.41-4.33c0-2.39,4.41-27.93,4.41-27.93
			S108.2,397.35,108.2,399.74z"/>
		<path class="st4" d="M101.63,362.8c0,2.39-1.97,4.33-4.41,4.33c-2.44,0-4.41-1.94-4.41-4.33c0-2.39,4.41-32.18,4.41-32.18
			S101.63,360.41,101.63,362.8z"/>
		<path class="st4" d="M93.28,384.5c0,2.39-1.97,4.33-4.41,4.33c-2.44,0-4.41-1.94-4.41-4.33c0-2.39,4.41-29.24,4.41-29.24
			S93.28,382.1,93.28,384.5z"/>
	</g>
</g>
</svg>
